<svg width="160" height="117" viewBox="0 0 160 117" fill="none" xmlns="http://www.w3.org/2000/svg">
<mask id="path-1-inside-1_52132_696" fill="white">
<path fill-rule="evenodd" clip-rule="evenodd" d="M59.6201 8.19008L55.2578 0L50.8382 8.19008H5C2.23858 8.19008 0 10.4286 0 13.1901V112C0 114.761 2.23857 117 4.99999 117H154.113C156.874 117 159.113 114.762 159.113 112V13.1901C159.113 10.4287 156.874 8.19008 154.113 8.19008H59.6201Z"/>
</mask>
<path fill-rule="evenodd" clip-rule="evenodd" d="M59.6201 8.19008L55.2578 0L50.8382 8.19008H5C2.23858 8.19008 0 10.4286 0 13.1901V112C0 114.761 2.23857 117 4.99999 117H154.113C156.874 117 159.113 114.762 159.113 112V13.1901C159.113 10.4287 156.874 8.19008 154.113 8.19008H59.6201Z" fill="white"/>
<path d="M55.2578 0L56.1404 -0.470106L55.2636 -2.11637L54.3778 -0.474902L55.2578 0ZM59.6201 8.19008L58.7375 8.66018L59.0198 9.19008H59.6201V8.19008ZM50.8382 8.19008V9.19008H51.4348L51.7182 8.66498L50.8382 8.19008ZM54.3752 0.470106L58.7375 8.66018L60.5027 7.71997L56.1404 -0.470106L54.3752 0.470106ZM51.7182 8.66498L56.1379 0.474902L54.3778 -0.474902L49.9581 7.71518L51.7182 8.66498ZM5 9.19008H50.8382V7.19008H5V9.19008ZM1 13.1901C1 10.9809 2.79086 9.19008 5 9.19008V7.19008C1.68629 7.19008 -1 9.87636 -1 13.1901H1ZM1 112V13.1901H-1V112H1ZM4.99999 116C2.79086 116 1 114.209 1 112H-1C-1 115.314 1.68628 118 4.99999 118V116ZM154.113 116H4.99999V118H154.113V116ZM158.113 112C158.113 114.209 156.322 116 154.113 116V118C157.426 118 160.113 115.314 160.113 112H158.113ZM158.113 13.1901V112H160.113V13.1901H158.113ZM154.113 9.19008C156.322 9.19008 158.113 10.9809 158.113 13.1901H160.113C160.113 9.87637 157.426 7.19008 154.113 7.19008V9.19008ZM59.6201 9.19008H154.113V7.19008H59.6201V9.19008Z" fill="black" mask="url(#path-1-inside-1_52132_696)"/>
<rect x="11.1267" y="71" width="135.746" height="31" rx="5" fill="#F1F3F2"/>
<path d="M31.7734 87.552L31.9922 89.052L32.3125 87.7004L34.5625 79.7629H35.8281L38.0234 87.7004L38.3359 89.0754L38.5781 87.5442L40.3438 79.7629H41.8516L39.0938 91.1379H37.7266L35.3828 82.8489L35.2031 81.9817L35.0234 82.8489L32.5938 91.1379H31.2266L28.4766 79.7629H29.9766L31.7734 87.552ZM44.7422 83.7082C45.3828 82.9218 46.2161 82.5285 47.2422 82.5285C49.0286 82.5285 49.9297 83.5364 49.9453 85.552V91.1379H48.5V85.5442C48.4948 84.9348 48.3542 84.4843 48.0781 84.1926C47.8073 83.9009 47.3828 83.7551 46.8047 83.7551C46.3359 83.7551 45.9245 83.8801 45.5703 84.1301C45.2161 84.3801 44.9401 84.7082 44.7422 85.1145V91.1379H43.2969V79.1379H44.7422V83.7082ZM57.3281 91.1379C57.2448 90.9713 57.1771 90.6744 57.125 90.2473C56.4531 90.9452 55.651 91.2942 54.7188 91.2942C53.8854 91.2942 53.2005 91.0598 52.6641 90.591C52.1328 90.1171 51.8672 89.5181 51.8672 88.7942C51.8672 87.914 52.2005 87.2317 52.8672 86.7473C53.5391 86.2577 54.4818 86.0129 55.6953 86.0129H57.1016V85.3489C57.1016 84.8437 56.9505 84.4426 56.6484 84.1457C56.3464 83.8437 55.901 83.6926 55.3125 83.6926C54.7969 83.6926 54.3646 83.8228 54.0156 84.0832C53.6667 84.3437 53.4922 84.6588 53.4922 85.0285H52.0391C52.0391 84.6067 52.1875 84.2004 52.4844 83.8098C52.7865 83.414 53.1927 83.1015 53.7031 82.8723C54.2188 82.6431 54.7839 82.5285 55.3984 82.5285C56.3724 82.5285 57.1354 82.7733 57.6875 83.2629C58.2396 83.7473 58.526 84.4166 58.5469 85.2707V89.1614C58.5469 89.9374 58.6458 90.5546 58.8438 91.0129V91.1379H57.3281ZM54.9297 90.0364C55.3828 90.0364 55.8125 89.9192 56.2188 89.6848C56.625 89.4504 56.9193 89.1457 57.1016 88.7707V87.0364H55.9688C54.1979 87.0364 53.3125 87.5546 53.3125 88.591C53.3125 89.0442 53.4635 89.3983 53.7656 89.6535C54.0677 89.9088 54.4557 90.0364 54.9297 90.0364ZM62.7734 80.6379V82.6848H64.3516V83.802H62.7734V89.0442C62.7734 89.3827 62.8438 89.6379 62.9844 89.8098C63.125 89.9765 63.3646 90.0598 63.7031 90.0598C63.8698 90.0598 64.099 90.0285 64.3906 89.966V91.1379C64.0104 91.2421 63.6406 91.2942 63.2812 91.2942C62.6354 91.2942 62.1484 91.0989 61.8203 90.7082C61.4922 90.3176 61.3281 89.7629 61.3281 89.0442V83.802H59.7891V82.6848H61.3281V80.6379H62.7734ZM69.4375 90.1145C69.9531 90.1145 70.4036 89.9582 70.7891 89.6457C71.1745 89.3332 71.388 88.9426 71.4297 88.4739H72.7969C72.7708 88.9582 72.6042 89.4192 72.2969 89.8567C71.9896 90.2942 71.5781 90.6431 71.0625 90.9035C70.5521 91.164 70.0104 91.2942 69.4375 91.2942C68.2865 91.2942 67.3698 90.9114 66.6875 90.1457C66.0104 89.3749 65.6719 88.3228 65.6719 86.9895V86.7473C65.6719 85.9244 65.8229 85.1926 66.125 84.552C66.4271 83.9114 66.8594 83.414 67.4219 83.0598C67.9896 82.7056 68.6589 82.5285 69.4297 82.5285C70.3776 82.5285 71.1641 82.8124 71.7891 83.3801C72.4193 83.9478 72.7552 84.6848 72.7969 85.591H71.4297C71.388 85.0442 71.1797 84.5963 70.8047 84.2473C70.4349 83.8931 69.9766 83.716 69.4297 83.716C68.6953 83.716 68.125 83.9817 67.7188 84.5129C67.3177 85.039 67.1172 85.802 67.1172 86.802V87.0754C67.1172 88.0494 67.3177 88.7994 67.7188 89.3254C68.1198 89.8515 68.6927 90.1145 69.4375 90.1145ZM75.8672 83.7082C76.5078 82.9218 77.3411 82.5285 78.3672 82.5285C80.1536 82.5285 81.0547 83.5364 81.0703 85.552V91.1379H79.625V85.5442C79.6198 84.9348 79.4792 84.4843 79.2031 84.1926C78.9323 83.9009 78.5078 83.7551 77.9297 83.7551C77.4609 83.7551 77.0495 83.8801 76.6953 84.1301C76.3411 84.3801 76.0651 84.7082 75.8672 85.1145V91.1379H74.4219V79.1379H75.8672V83.7082ZM86.8203 86.8332C86.8203 86.0051 86.9818 85.2603 87.3047 84.5989C87.6328 83.9374 88.0859 83.427 88.6641 83.0676C89.2474 82.7082 89.9115 82.5285 90.6562 82.5285C91.8073 82.5285 92.737 82.927 93.4453 83.7239C94.1589 84.5207 94.5156 85.5806 94.5156 86.9035V87.0051C94.5156 87.828 94.3568 88.5676 94.0391 89.2239C93.7266 89.8749 93.276 90.3827 92.6875 90.7473C92.1042 91.1119 91.4323 91.2942 90.6719 91.2942C89.526 91.2942 88.5964 90.8957 87.8828 90.0989C87.1745 89.302 86.8203 88.2473 86.8203 86.9348V86.8332ZM88.2734 87.0051C88.2734 87.9426 88.4896 88.6952 88.9219 89.2629C89.3594 89.8306 89.9427 90.1145 90.6719 90.1145C91.4062 90.1145 91.9896 89.828 92.4219 89.2551C92.8542 88.677 93.0703 87.8697 93.0703 86.8332C93.0703 85.9062 92.849 85.1562 92.4062 84.5832C91.9688 84.0051 91.3854 83.716 90.6562 83.716C89.9427 83.716 89.3672 83.9999 88.9297 84.5676C88.4922 85.1353 88.2734 85.9478 88.2734 87.0051ZM97.6953 82.6848L97.7422 83.7473C98.388 82.9348 99.2318 82.5285 100.273 82.5285C102.06 82.5285 102.961 83.5364 102.977 85.552V91.1379H101.531V85.5442C101.526 84.9348 101.385 84.4843 101.109 84.1926C100.839 83.9009 100.414 83.7551 99.8359 83.7551C99.3672 83.7551 98.9557 83.8801 98.6016 84.1301C98.2474 84.3801 97.9714 84.7082 97.7734 85.1145V91.1379H96.3281V82.6848H97.6953ZM106.727 91.1379H105.281V79.1379H106.727V91.1379ZM110.617 91.1379H109.172V82.6848H110.617V91.1379ZM109.055 80.4426C109.055 80.2082 109.125 80.0103 109.266 79.8489C109.411 79.6874 109.625 79.6067 109.906 79.6067C110.188 79.6067 110.401 79.6874 110.547 79.8489C110.693 80.0103 110.766 80.2082 110.766 80.4426C110.766 80.677 110.693 80.8723 110.547 81.0285C110.401 81.1848 110.188 81.2629 109.906 81.2629C109.625 81.2629 109.411 81.1848 109.266 81.0285C109.125 80.8723 109.055 80.677 109.055 80.4426ZM114.305 82.6848L114.352 83.7473C114.997 82.9348 115.841 82.5285 116.883 82.5285C118.669 82.5285 119.57 83.5364 119.586 85.552V91.1379H118.141V85.5442C118.135 84.9348 117.995 84.4843 117.719 84.1926C117.448 83.9009 117.023 83.7551 116.445 83.7551C115.977 83.7551 115.565 83.8801 115.211 84.1301C114.857 84.3801 114.581 84.7082 114.383 85.1145V91.1379H112.938V82.6848H114.305ZM125.273 91.2942C124.128 91.2942 123.195 90.9192 122.477 90.1692C121.758 89.414 121.398 88.4062 121.398 87.1457V86.8801C121.398 86.0416 121.557 85.2942 121.875 84.6379C122.198 83.9765 122.646 83.4608 123.219 83.091C123.797 82.716 124.422 82.5285 125.094 82.5285C126.193 82.5285 127.047 82.8905 127.656 83.6145C128.266 84.3384 128.57 85.3749 128.57 86.7239V87.3254H122.844C122.865 88.1588 123.107 88.8332 123.57 89.3489C124.039 89.8593 124.633 90.1145 125.352 90.1145C125.862 90.1145 126.294 90.0103 126.648 89.802C127.003 89.5937 127.312 89.3176 127.578 88.9739L128.461 89.6614C127.753 90.7499 126.69 91.2942 125.273 91.2942ZM125.094 83.716C124.51 83.716 124.021 83.9296 123.625 84.3567C123.229 84.7785 122.984 85.3723 122.891 86.1379H127.125V86.0285C127.083 85.2942 126.885 84.7265 126.531 84.3254C126.177 83.9192 125.698 83.716 125.094 83.716Z" fill="#4B9200"/>
<path d="M18.1875 28.3828H19.6875C19.6094 29.1016 19.4036 29.7448 19.0703 30.3125C18.737 30.8802 18.2656 31.3307 17.6562 31.6641C17.0469 31.9922 16.2865 32.1562 15.375 32.1562C14.7083 32.1562 14.1016 32.0312 13.5547 31.7812C13.013 31.5312 12.5469 31.1771 12.1562 30.7188C11.7656 30.2552 11.4635 29.7005 11.25 29.0547C11.0417 28.4036 10.9375 27.6797 10.9375 26.8828V25.75C10.9375 24.9531 11.0417 24.2318 11.25 23.5859C11.4635 22.9349 11.7682 22.3776 12.1641 21.9141C12.5651 21.4505 13.0469 21.0938 13.6094 20.8438C14.1719 20.5938 14.8047 20.4688 15.5078 20.4688C16.3672 20.4688 17.0938 20.6302 17.6875 20.9531C18.2812 21.276 18.7422 21.724 19.0703 22.2969C19.4036 22.8646 19.6094 23.5234 19.6875 24.2734H18.1875C18.1146 23.7422 17.9792 23.2865 17.7812 22.9062C17.5833 22.5208 17.3021 22.224 16.9375 22.0156C16.5729 21.8073 16.0964 21.7031 15.5078 21.7031C15.0026 21.7031 14.5573 21.7995 14.1719 21.9922C13.7917 22.1849 13.4714 22.4583 13.2109 22.8125C12.9557 23.1667 12.763 23.5911 12.6328 24.0859C12.5026 24.5807 12.4375 25.1302 12.4375 25.7344V26.8828C12.4375 27.4401 12.4948 27.9635 12.6094 28.4531C12.7292 28.9427 12.9089 29.3724 13.1484 29.7422C13.388 30.112 13.6927 30.4036 14.0625 30.6172C14.4323 30.8255 14.8698 30.9297 15.375 30.9297C16.0156 30.9297 16.526 30.8281 16.9062 30.625C17.2865 30.4219 17.5729 30.1302 17.7656 29.75C17.9635 29.3698 18.1042 28.9141 18.1875 28.3828ZM22.9688 20V32H21.5234V20H22.9688ZM22.625 27.4531L22.0234 27.4297C22.0286 26.8516 22.1146 26.3177 22.2812 25.8281C22.4479 25.3333 22.6823 24.9036 22.9844 24.5391C23.2865 24.1745 23.6458 23.8932 24.0625 23.6953C24.4844 23.4922 24.9505 23.3906 25.4609 23.3906C25.8776 23.3906 26.2526 23.4479 26.5859 23.5625C26.9193 23.6719 27.2031 23.849 27.4375 24.0938C27.6771 24.3385 27.8594 24.6562 27.9844 25.0469C28.1094 25.4323 28.1719 25.9036 28.1719 26.4609V32H26.7188V26.4453C26.7188 26.0026 26.6536 25.6484 26.5234 25.3828C26.3932 25.112 26.2031 24.9167 25.9531 24.7969C25.7031 24.6719 25.3958 24.6094 25.0312 24.6094C24.6719 24.6094 24.3438 24.6849 24.0469 24.8359C23.7552 24.987 23.5026 25.1953 23.2891 25.4609C23.0807 25.7266 22.9167 26.0312 22.7969 26.375C22.6823 26.7135 22.625 27.0729 22.625 27.4531ZM33.8438 32.1562C33.2552 32.1562 32.7214 32.0573 32.2422 31.8594C31.7682 31.6562 31.3594 31.3724 31.0156 31.0078C30.6771 30.6432 30.4167 30.2109 30.2344 29.7109C30.0521 29.2109 29.9609 28.6641 29.9609 28.0703V27.7422C29.9609 27.0547 30.0625 26.4427 30.2656 25.9062C30.4688 25.3646 30.7448 24.9062 31.0938 24.5312C31.4427 24.1562 31.8385 23.8724 32.2812 23.6797C32.724 23.487 33.1823 23.3906 33.6562 23.3906C34.2604 23.3906 34.7812 23.4948 35.2188 23.7031C35.6615 23.9115 36.0234 24.2031 36.3047 24.5781C36.5859 24.9479 36.7943 25.3854 36.9297 25.8906C37.0651 26.3906 37.1328 26.9375 37.1328 27.5312V28.1797H30.8203V27H35.6875V26.8906C35.6667 26.5156 35.5885 26.151 35.4531 25.7969C35.3229 25.4427 35.1146 25.151 34.8281 24.9219C34.5417 24.6927 34.151 24.5781 33.6562 24.5781C33.3281 24.5781 33.026 24.6484 32.75 24.7891C32.474 24.9245 32.237 25.1276 32.0391 25.3984C31.8411 25.6693 31.6875 26 31.5781 26.3906C31.4688 26.7812 31.4141 27.2318 31.4141 27.7422V28.0703C31.4141 28.4714 31.4688 28.849 31.5781 29.2031C31.6927 29.5521 31.8568 29.8594 32.0703 30.125C32.2891 30.3906 32.5521 30.599 32.8594 30.75C33.1719 30.901 33.526 30.9766 33.9219 30.9766C34.4323 30.9766 34.8646 30.8724 35.2188 30.6641C35.5729 30.4557 35.8828 30.1771 36.1484 29.8281L37.0234 30.5234C36.8411 30.7995 36.6094 31.0625 36.3281 31.3125C36.0469 31.5625 35.7005 31.7656 35.2891 31.9219C34.8828 32.0781 34.401 32.1562 33.8438 32.1562ZM42.3281 32.1562C41.7396 32.1562 41.2057 32.0573 40.7266 31.8594C40.2526 31.6562 39.8438 31.3724 39.5 31.0078C39.1615 30.6432 38.901 30.2109 38.7188 29.7109C38.5365 29.2109 38.4453 28.6641 38.4453 28.0703V27.7422C38.4453 27.0547 38.5469 26.4427 38.75 25.9062C38.9531 25.3646 39.2292 24.9062 39.5781 24.5312C39.9271 24.1562 40.3229 23.8724 40.7656 23.6797C41.2083 23.487 41.6667 23.3906 42.1406 23.3906C42.7448 23.3906 43.2656 23.4948 43.7031 23.7031C44.1458 23.9115 44.5078 24.2031 44.7891 24.5781C45.0703 24.9479 45.2786 25.3854 45.4141 25.8906C45.5495 26.3906 45.6172 26.9375 45.6172 27.5312V28.1797H39.3047V27H44.1719V26.8906C44.151 26.5156 44.0729 26.151 43.9375 25.7969C43.8073 25.4427 43.599 25.151 43.3125 24.9219C43.026 24.6927 42.6354 24.5781 42.1406 24.5781C41.8125 24.5781 41.5104 24.6484 41.2344 24.7891C40.9583 24.9245 40.7214 25.1276 40.5234 25.3984C40.3255 25.6693 40.1719 26 40.0625 26.3906C39.9531 26.7812 39.8984 27.2318 39.8984 27.7422V28.0703C39.8984 28.4714 39.9531 28.849 40.0625 29.2031C40.1771 29.5521 40.3411 29.8594 40.5547 30.125C40.7734 30.3906 41.0365 30.599 41.3438 30.75C41.6562 30.901 42.0104 30.9766 42.4062 30.9766C42.9167 30.9766 43.349 30.8724 43.7031 30.6641C44.0573 30.4557 44.3672 30.1771 44.6328 29.8281L45.5078 30.5234C45.3255 30.7995 45.0938 31.0625 44.8125 31.3125C44.5312 31.5625 44.1849 31.7656 43.7734 31.9219C43.3672 32.0781 42.8854 32.1562 42.3281 32.1562ZM50.8438 23.5469V24.6562H46.2734V23.5469H50.8438ZM47.8203 21.4922H49.2656V29.9062C49.2656 30.1927 49.3099 30.4089 49.3984 30.5547C49.487 30.7005 49.6016 30.7969 49.7422 30.8438C49.8828 30.8906 50.0339 30.9141 50.1953 30.9141C50.3151 30.9141 50.4401 30.9036 50.5703 30.8828C50.7057 30.8568 50.8073 30.8359 50.875 30.8203L50.8828 32C50.7682 32.0365 50.6172 32.0703 50.4297 32.1016C50.2474 32.138 50.026 32.1562 49.7656 32.1562C49.4115 32.1562 49.0859 32.0859 48.7891 31.9453C48.4922 31.8047 48.2552 31.5703 48.0781 31.2422C47.9062 30.9089 47.8203 30.4609 47.8203 29.8984V21.4922ZM57.5234 30.5547V26.2031C57.5234 25.8698 57.4557 25.5807 57.3203 25.3359C57.1901 25.0859 56.9922 24.8932 56.7266 24.7578C56.4609 24.6224 56.1328 24.5547 55.7422 24.5547C55.3776 24.5547 55.0573 24.6172 54.7812 24.7422C54.5104 24.8672 54.2969 25.0312 54.1406 25.2344C53.9896 25.4375 53.9141 25.6562 53.9141 25.8906H52.4688C52.4688 25.5885 52.5469 25.2891 52.7031 24.9922C52.8594 24.6953 53.0833 24.4271 53.375 24.1875C53.6719 23.9427 54.026 23.75 54.4375 23.6094C54.8542 23.4635 55.3177 23.3906 55.8281 23.3906C56.4427 23.3906 56.9844 23.4948 57.4531 23.7031C57.9271 23.9115 58.2969 24.2266 58.5625 24.6484C58.8333 25.0651 58.9688 25.5885 58.9688 26.2188V30.1562C58.9688 30.4375 58.9922 30.737 59.0391 31.0547C59.0911 31.3724 59.1667 31.6458 59.2656 31.875V32H57.7578C57.6849 31.8333 57.6276 31.612 57.5859 31.3359C57.5443 31.0547 57.5234 30.7943 57.5234 30.5547ZM57.7734 26.875L57.7891 27.8906H56.3281C55.9167 27.8906 55.5495 27.9245 55.2266 27.9922C54.9036 28.0547 54.6328 28.151 54.4141 28.2812C54.1953 28.4115 54.0286 28.5755 53.9141 28.7734C53.7995 28.9661 53.7422 29.1927 53.7422 29.4531C53.7422 29.7188 53.8021 29.9609 53.9219 30.1797C54.0417 30.3984 54.2214 30.5729 54.4609 30.7031C54.7057 30.8281 55.0052 30.8906 55.3594 30.8906C55.8021 30.8906 56.1927 30.7969 56.5312 30.6094C56.8698 30.4219 57.138 30.1927 57.3359 29.9219C57.5391 29.651 57.6484 29.388 57.6641 29.1328L58.2812 29.8281C58.2448 30.0469 58.1458 30.2891 57.9844 30.5547C57.8229 30.8203 57.6068 31.0755 57.3359 31.3203C57.0703 31.5599 56.7526 31.7604 56.3828 31.9219C56.0182 32.0781 55.6068 32.1562 55.1484 32.1562C54.5755 32.1562 54.0729 32.0443 53.6406 31.8203C53.2135 31.5964 52.8802 31.2969 52.6406 30.9219C52.4062 30.5417 52.2891 30.1172 52.2891 29.6484C52.2891 29.1953 52.3776 28.7969 52.5547 28.4531C52.7318 28.1042 52.987 27.8151 53.3203 27.5859C53.6536 27.3516 54.0547 27.1745 54.5234 27.0547C54.9922 26.9349 55.5156 26.875 56.0938 26.875H57.7734ZM62.6875 20V32H61.2422V20H62.6875ZM62.3438 27.4531L61.7422 27.4297C61.7474 26.8516 61.8333 26.3177 62 25.8281C62.1667 25.3333 62.401 24.9036 62.7031 24.5391C63.0052 24.1745 63.3646 23.8932 63.7812 23.6953C64.2031 23.4922 64.6693 23.3906 65.1797 23.3906C65.5964 23.3906 65.9714 23.4479 66.3047 23.5625C66.638 23.6719 66.9219 23.849 67.1562 24.0938C67.3958 24.3385 67.5781 24.6562 67.7031 25.0469C67.8281 25.4323 67.8906 25.9036 67.8906 26.4609V32H66.4375V26.4453C66.4375 26.0026 66.3724 25.6484 66.2422 25.3828C66.112 25.112 65.9219 24.9167 65.6719 24.7969C65.4219 24.6719 65.1146 24.6094 64.75 24.6094C64.3906 24.6094 64.0625 24.6849 63.7656 24.8359C63.474 24.987 63.2214 25.1953 63.0078 25.4609C62.7995 25.7266 62.6354 26.0312 62.5156 26.375C62.401 26.7135 62.3438 27.0729 62.3438 27.4531ZM74.9766 29.7578C74.9766 29.5495 74.9297 29.3568 74.8359 29.1797C74.7474 28.9974 74.5625 28.8333 74.2812 28.6875C74.0052 28.5365 73.5885 28.4062 73.0312 28.2969C72.5625 28.1979 72.138 28.0807 71.7578 27.9453C71.3828 27.8099 71.0625 27.6458 70.7969 27.4531C70.5365 27.2604 70.3359 27.0339 70.1953 26.7734C70.0547 26.513 69.9844 26.2083 69.9844 25.8594C69.9844 25.526 70.0573 25.2109 70.2031 24.9141C70.3542 24.6172 70.5651 24.3542 70.8359 24.125C71.112 23.8958 71.4427 23.7161 71.8281 23.5859C72.2135 23.4557 72.6432 23.3906 73.1172 23.3906C73.7943 23.3906 74.3724 23.5104 74.8516 23.75C75.3307 23.9896 75.6979 24.3099 75.9531 24.7109C76.2083 25.1068 76.3359 25.5469 76.3359 26.0312H74.8906C74.8906 25.7969 74.8203 25.5703 74.6797 25.3516C74.5443 25.1276 74.3438 24.9427 74.0781 24.7969C73.8177 24.651 73.4974 24.5781 73.1172 24.5781C72.7161 24.5781 72.3906 24.6406 72.1406 24.7656C71.8958 24.8854 71.7161 25.0391 71.6016 25.2266C71.4922 25.4141 71.4375 25.612 71.4375 25.8203C71.4375 25.9766 71.4635 26.1172 71.5156 26.2422C71.5729 26.362 71.6719 26.474 71.8125 26.5781C71.9531 26.6771 72.151 26.7708 72.4062 26.8594C72.6615 26.9479 72.987 27.0365 73.3828 27.125C74.0755 27.2812 74.6458 27.4688 75.0938 27.6875C75.5417 27.9062 75.875 28.1745 76.0938 28.4922C76.3125 28.8099 76.4219 29.1953 76.4219 29.6484C76.4219 30.0182 76.3438 30.3568 76.1875 30.6641C76.0365 30.9714 75.8151 31.237 75.5234 31.4609C75.237 31.6797 74.8932 31.8516 74.4922 31.9766C74.0964 32.0964 73.651 32.1562 73.1562 32.1562C72.4115 32.1562 71.7812 32.0234 71.2656 31.7578C70.75 31.4922 70.3594 31.1484 70.0938 30.7266C69.8281 30.3047 69.6953 29.8594 69.6953 29.3906H71.1484C71.1693 29.7865 71.2839 30.1016 71.4922 30.3359C71.7005 30.5651 71.9557 30.7292 72.2578 30.8281C72.5599 30.9219 72.8594 30.9688 73.1562 30.9688C73.5521 30.9688 73.8828 30.9167 74.1484 30.8125C74.4193 30.7083 74.625 30.5651 74.7656 30.3828C74.9062 30.2005 74.9766 29.9922 74.9766 29.7578Z" fill="black"/>
<path d="M18.1875 50.3828H19.6875C19.6094 51.1016 19.4036 51.7448 19.0703 52.3125C18.737 52.8802 18.2656 53.3307 17.6562 53.6641C17.0469 53.9922 16.2865 54.1562 15.375 54.1562C14.7083 54.1562 14.1016 54.0312 13.5547 53.7812C13.013 53.5312 12.5469 53.1771 12.1562 52.7188C11.7656 52.2552 11.4635 51.7005 11.25 51.0547C11.0417 50.4036 10.9375 49.6797 10.9375 48.8828V47.75C10.9375 46.9531 11.0417 46.2318 11.25 45.5859C11.4635 44.9349 11.7682 44.3776 12.1641 43.9141C12.5651 43.4505 13.0469 43.0938 13.6094 42.8438C14.1719 42.5938 14.8047 42.4688 15.5078 42.4688C16.3672 42.4688 17.0938 42.6302 17.6875 42.9531C18.2812 43.276 18.7422 43.724 19.0703 44.2969C19.4036 44.8646 19.6094 45.5234 19.6875 46.2734H18.1875C18.1146 45.7422 17.9792 45.2865 17.7812 44.9062C17.5833 44.5208 17.3021 44.224 16.9375 44.0156C16.5729 43.8073 16.0964 43.7031 15.5078 43.7031C15.0026 43.7031 14.5573 43.7995 14.1719 43.9922C13.7917 44.1849 13.4714 44.4583 13.2109 44.8125C12.9557 45.1667 12.763 45.5911 12.6328 46.0859C12.5026 46.5807 12.4375 47.1302 12.4375 47.7344V48.8828C12.4375 49.4401 12.4948 49.9635 12.6094 50.4531C12.7292 50.9427 12.9089 51.3724 13.1484 51.7422C13.388 52.112 13.6927 52.4036 14.0625 52.6172C14.4323 52.8255 14.8698 52.9297 15.375 52.9297C16.0156 52.9297 16.526 52.8281 16.9062 52.625C17.2865 52.4219 17.5729 52.1302 17.7656 51.75C17.9635 51.3698 18.1042 50.9141 18.1875 50.3828ZM22.9688 42V54H21.5234V42H22.9688ZM22.625 49.4531L22.0234 49.4297C22.0286 48.8516 22.1146 48.3177 22.2812 47.8281C22.4479 47.3333 22.6823 46.9036 22.9844 46.5391C23.2865 46.1745 23.6458 45.8932 24.0625 45.6953C24.4844 45.4922 24.9505 45.3906 25.4609 45.3906C25.8776 45.3906 26.2526 45.4479 26.5859 45.5625C26.9193 45.6719 27.2031 45.849 27.4375 46.0938C27.6771 46.3385 27.8594 46.6562 27.9844 47.0469C28.1094 47.4323 28.1719 47.9036 28.1719 48.4609V54H26.7188V48.4453C26.7188 48.0026 26.6536 47.6484 26.5234 47.3828C26.3932 47.112 26.2031 46.9167 25.9531 46.7969C25.7031 46.6719 25.3958 46.6094 25.0312 46.6094C24.6719 46.6094 24.3438 46.6849 24.0469 46.8359C23.7552 46.987 23.5026 47.1953 23.2891 47.4609C23.0807 47.7266 22.9167 48.0312 22.7969 48.375C22.6823 48.7135 22.625 49.0729 22.625 49.4531ZM35.3203 52.5547V48.2031C35.3203 47.8698 35.2526 47.5807 35.1172 47.3359C34.987 47.0859 34.7891 46.8932 34.5234 46.7578C34.2578 46.6224 33.9297 46.5547 33.5391 46.5547C33.1745 46.5547 32.8542 46.6172 32.5781 46.7422C32.3073 46.8672 32.0938 47.0312 31.9375 47.2344C31.7865 47.4375 31.7109 47.6562 31.7109 47.8906H30.2656C30.2656 47.5885 30.3438 47.2891 30.5 46.9922C30.6562 46.6953 30.8802 46.4271 31.1719 46.1875C31.4688 45.9427 31.8229 45.75 32.2344 45.6094C32.651 45.4635 33.1146 45.3906 33.625 45.3906C34.2396 45.3906 34.7812 45.4948 35.25 45.7031C35.724 45.9115 36.0938 46.2266 36.3594 46.6484C36.6302 47.0651 36.7656 47.5885 36.7656 48.2188V52.1562C36.7656 52.4375 36.7891 52.737 36.8359 53.0547C36.888 53.3724 36.9635 53.6458 37.0625 53.875V54H35.5547C35.4818 53.8333 35.4245 53.612 35.3828 53.3359C35.3411 53.0547 35.3203 52.7943 35.3203 52.5547ZM35.5703 48.875L35.5859 49.8906H34.125C33.7135 49.8906 33.3464 49.9245 33.0234 49.9922C32.7005 50.0547 32.4297 50.151 32.2109 50.2812C31.9922 50.4115 31.8255 50.5755 31.7109 50.7734C31.5964 50.9661 31.5391 51.1927 31.5391 51.4531C31.5391 51.7188 31.599 51.9609 31.7188 52.1797C31.8385 52.3984 32.0182 52.5729 32.2578 52.7031C32.5026 52.8281 32.8021 52.8906 33.1562 52.8906C33.599 52.8906 33.9896 52.7969 34.3281 52.6094C34.6667 52.4219 34.9349 52.1927 35.1328 51.9219C35.3359 51.651 35.4453 51.388 35.4609 51.1328L36.0781 51.8281C36.0417 52.0469 35.9427 52.2891 35.7812 52.5547C35.6198 52.8203 35.4036 53.0755 35.1328 53.3203C34.8672 53.5599 34.5495 53.7604 34.1797 53.9219C33.8151 54.0781 33.4036 54.1562 32.9453 54.1562C32.3724 54.1562 31.8698 54.0443 31.4375 53.8203C31.0104 53.5964 30.6771 53.2969 30.4375 52.9219C30.2031 52.5417 30.0859 52.1172 30.0859 51.6484C30.0859 51.1953 30.1745 50.7969 30.3516 50.4531C30.5286 50.1042 30.7839 49.8151 31.1172 49.5859C31.4505 49.3516 31.8516 49.1745 32.3203 49.0547C32.7891 48.9349 33.3125 48.875 33.8906 48.875H35.5703ZM44.3672 52.3594V42H45.8203V54H44.4922L44.3672 52.3594ZM38.6797 49.8672V49.7031C38.6797 49.0573 38.7578 48.4714 38.9141 47.9453C39.0755 47.4141 39.3021 46.9583 39.5938 46.5781C39.8906 46.1979 40.2422 45.9062 40.6484 45.7031C41.0599 45.4948 41.5182 45.3906 42.0234 45.3906C42.5547 45.3906 43.0182 45.4844 43.4141 45.6719C43.8151 45.8542 44.1536 46.1224 44.4297 46.4766C44.7109 46.8255 44.9323 47.2474 45.0938 47.7422C45.2552 48.237 45.3672 48.7969 45.4297 49.4219V50.1406C45.3724 50.7604 45.2604 51.3177 45.0938 51.8125C44.9323 52.3073 44.7109 52.7292 44.4297 53.0781C44.1536 53.4271 43.8151 53.6953 43.4141 53.8828C43.013 54.0651 42.5443 54.1562 42.0078 54.1562C41.513 54.1562 41.0599 54.0495 40.6484 53.8359C40.2422 53.6224 39.8906 53.3229 39.5938 52.9375C39.3021 52.5521 39.0755 52.099 38.9141 51.5781C38.7578 51.0521 38.6797 50.4818 38.6797 49.8672ZM40.1328 49.7031V49.8672C40.1328 50.2891 40.1745 50.6849 40.2578 51.0547C40.3464 51.4245 40.4818 51.75 40.6641 52.0312C40.8464 52.3125 41.0781 52.5339 41.3594 52.6953C41.6406 52.8516 41.9766 52.9297 42.3672 52.9297C42.8464 52.9297 43.2396 52.8281 43.5469 52.625C43.8594 52.4219 44.1094 52.1536 44.2969 51.8203C44.4844 51.487 44.6302 51.125 44.7344 50.7344V48.8516C44.6719 48.5651 44.5807 48.2891 44.4609 48.0234C44.3464 47.7526 44.1953 47.513 44.0078 47.3047C43.8255 47.0911 43.599 46.9219 43.3281 46.7969C43.0625 46.6719 42.7474 46.6094 42.3828 46.6094C41.987 46.6094 41.6458 46.6927 41.3594 46.8594C41.0781 47.0208 40.8464 47.2448 40.6641 47.5312C40.4818 47.8125 40.3464 48.1406 40.2578 48.5156C40.1745 48.8854 40.1328 49.2812 40.1328 49.7031Z" fill="black"/>
</svg>
