<svg width="160" height="117" viewBox="0 0 160 117" fill="none" xmlns="http://www.w3.org/2000/svg">
<mask id="path-1-inside-1_52132_696" fill="white">
<path fill-rule="evenodd" clip-rule="evenodd" d="M59.6201 8.19008L55.2578 0L50.8382 8.19008H5C2.23858 8.19008 0 10.4286 0 13.1901V112C0 114.761 2.23857 117 4.99999 117H154.113C156.874 117 159.113 114.762 159.113 112V13.1901C159.113 10.4287 156.874 8.19008 154.113 8.19008H59.6201Z"/>
</mask>
<path fill-rule="evenodd" clip-rule="evenodd" d="M59.6201 8.19008L55.2578 0L50.8382 8.19008H5C2.23858 8.19008 0 10.4286 0 13.1901V112C0 114.761 2.23857 117 4.99999 117H154.113C156.874 117 159.113 114.762 159.113 112V13.1901C159.113 10.4287 156.874 8.19008 154.113 8.19008H59.6201Z" fill="white"/>
<path d="M55.2578 0L56.1404 -0.470106L55.2636 -2.11637L54.3778 -0.474902L55.2578 0ZM59.6201 8.19008L58.7375 8.66018L59.0198 9.19008H59.6201V8.19008ZM50.8382 8.19008V9.19008H51.4348L51.7182 8.66498L50.8382 8.19008ZM54.3752 0.470106L58.7375 8.66018L60.5027 7.71997L56.1404 -0.470106L54.3752 0.470106ZM51.7182 8.66498L56.1379 0.474902L54.3778 -0.474902L49.9581 7.71518L51.7182 8.66498ZM5 9.19008H50.8382V7.19008H5V9.19008ZM1 13.1901C1 10.9809 2.79086 9.19008 5 9.19008V7.19008C1.68629 7.19008 -1 9.87636 -1 13.1901H1ZM1 112V13.1901H-1V112H1ZM4.99999 116C2.79086 116 1 114.209 1 112H-1C-1 115.314 1.68628 118 4.99999 118V116ZM154.113 116H4.99999V118H154.113V116ZM158.113 112C158.113 114.209 156.322 116 154.113 116V118C157.426 118 160.113 115.314 160.113 112H158.113ZM158.113 13.1901V112H160.113V13.1901H158.113ZM154.113 9.19008C156.322 9.19008 158.113 10.9809 158.113 13.1901H160.113C160.113 9.87637 157.426 7.19008 154.113 7.19008V9.19008ZM59.6201 9.19008H154.113V7.19008H59.6201V9.19008Z" fill="black" mask="url(#path-1-inside-1_52132_696)"/>
<rect x="11.1267" y="71" width="135.746" height="31" rx="5" fill="#F1F3F2"/>
<path d="M31.7734 87.552L31.9922 89.052L32.3125 87.7004L34.5625 79.7629H35.8281L38.0234 87.7004L38.3359 89.0754L38.5781 87.5442L40.3438 79.7629H41.8516L39.0938 91.1379H37.7266L35.3828 82.8489L35.2031 81.9817L35.0234 82.8489L32.5938 91.1379H31.2266L28.4766 79.7629H29.9766L31.7734 87.552ZM44.7422 83.7082C45.3828 82.9218 46.2161 82.5285 47.2422 82.5285C49.0286 82.5285 49.9297 83.5364 49.9453 85.552V91.1379H48.5V85.5442C48.4948 84.9348 48.3542 84.4843 48.0781 84.1926C47.8073 83.9009 47.3828 83.7551 46.8047 83.7551C46.3359 83.7551 45.9245 83.8801 45.5703 84.1301C45.2161 84.3801 44.9401 84.7082 44.7422 85.1145V91.1379H43.2969V79.1379H44.7422V83.7082ZM57.3281 91.1379C57.2448 90.9713 57.1771 90.6744 57.125 90.2473C56.4531 90.9452 55.651 91.2942 54.7188 91.2942C53.8854 91.2942 53.2005 91.0598 52.6641 90.591C52.1328 90.1171 51.8672 89.5181 51.8672 88.7942C51.8672 87.914 52.2005 87.2317 52.8672 86.7473C53.5391 86.2577 54.4818 86.0129 55.6953 86.0129H57.1016V85.3489C57.1016 84.8437 56.9505 84.4426 56.6484 84.1457C56.3464 83.8437 55.901 83.6926 55.3125 83.6926C54.7969 83.6926 54.3646 83.8228 54.0156 84.0832C53.6667 84.3437 53.4922 84.6588 53.4922 85.0285H52.0391C52.0391 84.6067 52.1875 84.2004 52.4844 83.8098C52.7865 83.414 53.1927 83.1015 53.7031 82.8723C54.2188 82.6431 54.7839 82.5285 55.3984 82.5285C56.3724 82.5285 57.1354 82.7733 57.6875 83.2629C58.2396 83.7473 58.526 84.4166 58.5469 85.2707V89.1614C58.5469 89.9374 58.6458 90.5546 58.8438 91.0129V91.1379H57.3281ZM54.9297 90.0364C55.3828 90.0364 55.8125 89.9192 56.2188 89.6848C56.625 89.4504 56.9193 89.1457 57.1016 88.7707V87.0364H55.9688C54.1979 87.0364 53.3125 87.5546 53.3125 88.591C53.3125 89.0442 53.4635 89.3983 53.7656 89.6535C54.0677 89.9088 54.4557 90.0364 54.9297 90.0364ZM62.7734 80.6379V82.6848H64.3516V83.802H62.7734V89.0442C62.7734 89.3827 62.8438 89.6379 62.9844 89.8098C63.125 89.9765 63.3646 90.0598 63.7031 90.0598C63.8698 90.0598 64.099 90.0285 64.3906 89.966V91.1379C64.0104 91.2421 63.6406 91.2942 63.2812 91.2942C62.6354 91.2942 62.1484 91.0989 61.8203 90.7082C61.4922 90.3176 61.3281 89.7629 61.3281 89.0442V83.802H59.7891V82.6848H61.3281V80.6379H62.7734ZM69.4375 90.1145C69.9531 90.1145 70.4036 89.9582 70.7891 89.6457C71.1745 89.3332 71.388 88.9426 71.4297 88.4739H72.7969C72.7708 88.9582 72.6042 89.4192 72.2969 89.8567C71.9896 90.2942 71.5781 90.6431 71.0625 90.9035C70.5521 91.164 70.0104 91.2942 69.4375 91.2942C68.2865 91.2942 67.3698 90.9114 66.6875 90.1457C66.0104 89.3749 65.6719 88.3228 65.6719 86.9895V86.7473C65.6719 85.9244 65.8229 85.1926 66.125 84.552C66.4271 83.9114 66.8594 83.414 67.4219 83.0598C67.9896 82.7056 68.6589 82.5285 69.4297 82.5285C70.3776 82.5285 71.1641 82.8124 71.7891 83.3801C72.4193 83.9478 72.7552 84.6848 72.7969 85.591H71.4297C71.388 85.0442 71.1797 84.5963 70.8047 84.2473C70.4349 83.8931 69.9766 83.716 69.4297 83.716C68.6953 83.716 68.125 83.9817 67.7188 84.5129C67.3177 85.039 67.1172 85.802 67.1172 86.802V87.0754C67.1172 88.0494 67.3177 88.7994 67.7188 89.3254C68.1198 89.8515 68.6927 90.1145 69.4375 90.1145ZM75.8672 83.7082C76.5078 82.9218 77.3411 82.5285 78.3672 82.5285C80.1536 82.5285 81.0547 83.5364 81.0703 85.552V91.1379H79.625V85.5442C79.6198 84.9348 79.4792 84.4843 79.2031 84.1926C78.9323 83.9009 78.5078 83.7551 77.9297 83.7551C77.4609 83.7551 77.0495 83.8801 76.6953 84.1301C76.3411 84.3801 76.0651 84.7082 75.8672 85.1145V91.1379H74.4219V79.1379H75.8672V83.7082ZM86.8203 86.8332C86.8203 86.0051 86.9818 85.2603 87.3047 84.5989C87.6328 83.9374 88.0859 83.427 88.6641 83.0676C89.2474 82.7082 89.9115 82.5285 90.6562 82.5285C91.8073 82.5285 92.737 82.927 93.4453 83.7239C94.1589 84.5207 94.5156 85.5806 94.5156 86.9035V87.0051C94.5156 87.828 94.3568 88.5676 94.0391 89.2239C93.7266 89.8749 93.276 90.3827 92.6875 90.7473C92.1042 91.1119 91.4323 91.2942 90.6719 91.2942C89.526 91.2942 88.5964 90.8957 87.8828 90.0989C87.1745 89.302 86.8203 88.2473 86.8203 86.9348V86.8332ZM88.2734 87.0051C88.2734 87.9426 88.4896 88.6952 88.9219 89.2629C89.3594 89.8306 89.9427 90.1145 90.6719 90.1145C91.4062 90.1145 91.9896 89.828 92.4219 89.2551C92.8542 88.677 93.0703 87.8697 93.0703 86.8332C93.0703 85.9062 92.849 85.1562 92.4062 84.5832C91.9688 84.0051 91.3854 83.716 90.6562 83.716C89.9427 83.716 89.3672 83.9999 88.9297 84.5676C88.4922 85.1353 88.2734 85.9478 88.2734 87.0051ZM97.6953 82.6848L97.7422 83.7473C98.388 82.9348 99.2318 82.5285 100.273 82.5285C102.06 82.5285 102.961 83.5364 102.977 85.552V91.1379H101.531V85.5442C101.526 84.9348 101.385 84.4843 101.109 84.1926C100.839 83.9009 100.414 83.7551 99.8359 83.7551C99.3672 83.7551 98.9557 83.8801 98.6016 84.1301C98.2474 84.3801 97.9714 84.7082 97.7734 85.1145V91.1379H96.3281V82.6848H97.6953ZM106.727 91.1379H105.281V79.1379H106.727V91.1379ZM110.617 91.1379H109.172V82.6848H110.617V91.1379ZM109.055 80.4426C109.055 80.2082 109.125 80.0103 109.266 79.8489C109.411 79.6874 109.625 79.6067 109.906 79.6067C110.188 79.6067 110.401 79.6874 110.547 79.8489C110.693 80.0103 110.766 80.2082 110.766 80.4426C110.766 80.677 110.693 80.8723 110.547 81.0285C110.401 81.1848 110.188 81.2629 109.906 81.2629C109.625 81.2629 109.411 81.1848 109.266 81.0285C109.125 80.8723 109.055 80.677 109.055 80.4426ZM114.305 82.6848L114.352 83.7473C114.997 82.9348 115.841 82.5285 116.883 82.5285C118.669 82.5285 119.57 83.5364 119.586 85.552V91.1379H118.141V85.5442C118.135 84.9348 117.995 84.4843 117.719 84.1926C117.448 83.9009 117.023 83.7551 116.445 83.7551C115.977 83.7551 115.565 83.8801 115.211 84.1301C114.857 84.3801 114.581 84.7082 114.383 85.1145V91.1379H112.938V82.6848H114.305ZM125.273 91.2942C124.128 91.2942 123.195 90.9192 122.477 90.1692C121.758 89.414 121.398 88.4062 121.398 87.1457V86.8801C121.398 86.0416 121.557 85.2942 121.875 84.6379C122.198 83.9765 122.646 83.4608 123.219 83.091C123.797 82.716 124.422 82.5285 125.094 82.5285C126.193 82.5285 127.047 82.8905 127.656 83.6145C128.266 84.3384 128.57 85.3749 128.57 86.7239V87.3254H122.844C122.865 88.1588 123.107 88.8332 123.57 89.3489C124.039 89.8593 124.633 90.1145 125.352 90.1145C125.862 90.1145 126.294 90.0103 126.648 89.802C127.003 89.5937 127.312 89.3176 127.578 88.9739L128.461 89.6614C127.753 90.7499 126.69 91.2942 125.273 91.2942ZM125.094 83.716C124.51 83.716 124.021 83.9296 123.625 84.3567C123.229 84.7785 122.984 85.3723 122.891 86.1379H127.125V86.0285C127.083 85.2942 126.885 84.7265 126.531 84.3254C126.177 83.9192 125.698 83.716 125.094 83.716Z" fill="#4B9200"/>
<path d="M15.5156 27.5391H12.4766V26.3125H15.5156C16.1042 26.3125 16.5807 26.2188 16.9453 26.0312C17.3099 25.8438 17.5755 25.5833 17.7422 25.25C17.9141 24.9167 18 24.5365 18 24.1094C18 23.7188 17.9141 23.3516 17.7422 23.0078C17.5755 22.6641 17.3099 22.388 16.9453 22.1797C16.5807 21.9661 16.1042 21.8594 15.5156 21.8594H12.8281V32H11.3203V20.625H15.5156C16.375 20.625 17.1016 20.7734 17.6953 21.0703C18.2891 21.3672 18.7396 21.7786 19.0469 22.3047C19.3542 22.8255 19.5078 23.4219 19.5078 24.0938C19.5078 24.8229 19.3542 25.4453 19.0469 25.9609C18.7396 26.4766 18.2891 26.8698 17.6953 27.1406C17.1016 27.4062 16.375 27.5391 15.5156 27.5391ZM24.5938 32.1562C24.0052 32.1562 23.4714 32.0573 22.9922 31.8594C22.5182 31.6562 22.1094 31.3724 21.7656 31.0078C21.4271 30.6432 21.1667 30.2109 20.9844 29.7109C20.8021 29.2109 20.7109 28.6641 20.7109 28.0703V27.7422C20.7109 27.0547 20.8125 26.4427 21.0156 25.9062C21.2188 25.3646 21.4948 24.9062 21.8438 24.5312C22.1927 24.1562 22.5885 23.8724 23.0312 23.6797C23.474 23.487 23.9323 23.3906 24.4062 23.3906C25.0104 23.3906 25.5312 23.4948 25.9688 23.7031C26.4115 23.9115 26.7734 24.2031 27.0547 24.5781C27.3359 24.9479 27.5443 25.3854 27.6797 25.8906C27.8151 26.3906 27.8828 26.9375 27.8828 27.5312V28.1797H21.5703V27H26.4375V26.8906C26.4167 26.5156 26.3385 26.151 26.2031 25.7969C26.0729 25.4427 25.8646 25.151 25.5781 24.9219C25.2917 24.6927 24.901 24.5781 24.4062 24.5781C24.0781 24.5781 23.776 24.6484 23.5 24.7891C23.224 24.9245 22.987 25.1276 22.7891 25.3984C22.5911 25.6693 22.4375 26 22.3281 26.3906C22.2188 26.7812 22.1641 27.2318 22.1641 27.7422V28.0703C22.1641 28.4714 22.2188 28.849 22.3281 29.2031C22.4427 29.5521 22.6068 29.8594 22.8203 30.125C23.0391 30.3906 23.3021 30.599 23.6094 30.75C23.9219 30.901 24.276 30.9766 24.6719 30.9766C25.1823 30.9766 25.6146 30.8724 25.9688 30.6641C26.3229 30.4557 26.6328 30.1771 26.8984 29.8281L27.7734 30.5234C27.5911 30.7995 27.3594 31.0625 27.0781 31.3125C26.7969 31.5625 26.4505 31.7656 26.0391 31.9219C25.6328 32.0781 25.151 32.1562 24.5938 32.1562ZM31.0156 25.3516V32H29.5703V23.5469H30.9375L31.0156 25.3516ZM30.6719 27.4531L30.0703 27.4297C30.0755 26.8516 30.1615 26.3177 30.3281 25.8281C30.4948 25.3333 30.7292 24.9036 31.0312 24.5391C31.3333 24.1745 31.6927 23.8932 32.1094 23.6953C32.5312 23.4922 32.9974 23.3906 33.5078 23.3906C33.9245 23.3906 34.2995 23.4479 34.6328 23.5625C34.9661 23.6719 35.25 23.849 35.4844 24.0938C35.724 24.3385 35.9062 24.6562 36.0312 25.0469C36.1562 25.4323 36.2188 25.9036 36.2188 26.4609V32H34.7656V26.4453C34.7656 26.0026 34.7005 25.6484 34.5703 25.3828C34.4401 25.112 34.25 24.9167 34 24.7969C33.75 24.6719 33.4427 24.6094 33.0781 24.6094C32.7188 24.6094 32.3906 24.6849 32.0938 24.8359C31.8021 24.987 31.5495 25.1953 31.3359 25.4609C31.1276 25.7266 30.9635 26.0312 30.8438 26.375C30.7292 26.7135 30.6719 27.0729 30.6719 27.4531ZM43.8906 23.5469H45.2031V31.8203C45.2031 32.5651 45.0521 33.2005 44.75 33.7266C44.4479 34.2526 44.026 34.651 43.4844 34.9219C42.9479 35.1979 42.3281 35.3359 41.625 35.3359C41.3333 35.3359 40.9896 35.2891 40.5938 35.1953C40.2031 35.1068 39.8177 34.9531 39.4375 34.7344C39.0625 34.5208 38.7474 34.2318 38.4922 33.8672L39.25 33.0078C39.6042 33.4349 39.974 33.7318 40.3594 33.8984C40.75 34.0651 41.1354 34.1484 41.5156 34.1484C41.974 34.1484 42.3698 34.0625 42.7031 33.8906C43.0365 33.7188 43.2943 33.4635 43.4766 33.125C43.6641 32.7917 43.7578 32.3802 43.7578 31.8906V25.4062L43.8906 23.5469ZM38.0703 27.8672V27.7031C38.0703 27.0573 38.1458 26.4714 38.2969 25.9453C38.4531 25.4141 38.6745 24.9583 38.9609 24.5781C39.2526 24.1979 39.6042 23.9062 40.0156 23.7031C40.4271 23.4948 40.8906 23.3906 41.4062 23.3906C41.9375 23.3906 42.401 23.4844 42.7969 23.6719C43.1979 23.8542 43.5365 24.1224 43.8125 24.4766C44.0938 24.8255 44.3151 25.2474 44.4766 25.7422C44.638 26.237 44.75 26.7969 44.8125 27.4219V28.1406C44.7552 28.7604 44.6432 29.3177 44.4766 29.8125C44.3151 30.3073 44.0938 30.7292 43.8125 31.0781C43.5365 31.4271 43.1979 31.6953 42.7969 31.8828C42.3958 32.0651 41.9271 32.1562 41.3906 32.1562C40.8854 32.1562 40.4271 32.0495 40.0156 31.8359C39.6094 31.6224 39.2604 31.3229 38.9688 30.9375C38.6771 30.5521 38.4531 30.099 38.2969 29.5781C38.1458 29.0521 38.0703 28.4818 38.0703 27.8672ZM39.5156 27.7031V27.8672C39.5156 28.2891 39.5573 28.6849 39.6406 29.0547C39.7292 29.4245 39.862 29.75 40.0391 30.0312C40.2214 30.3125 40.4531 30.5339 40.7344 30.6953C41.0156 30.8516 41.3516 30.9297 41.7422 30.9297C42.2214 30.9297 42.6172 30.8281 42.9297 30.625C43.2422 30.4219 43.4896 30.1536 43.6719 29.8203C43.8594 29.487 44.0052 29.125 44.1094 28.7344V26.8516C44.0521 26.5651 43.9635 26.2891 43.8438 26.0234C43.7292 25.7526 43.5781 25.513 43.3906 25.3047C43.2083 25.0911 42.9818 24.9219 42.7109 24.7969C42.4401 24.6719 42.1224 24.6094 41.7578 24.6094C41.362 24.6094 41.0208 24.6927 40.7344 24.8594C40.4531 25.0208 40.2214 25.2448 40.0391 25.5312C39.862 25.8125 39.7292 26.1406 39.6406 26.5156C39.5573 26.8854 39.5156 27.2812 39.5156 27.7031ZM52.5703 30.0469V23.5469H54.0234V32H52.6406L52.5703 30.0469ZM52.8438 28.2656L53.4453 28.25C53.4453 28.8125 53.3854 29.3333 53.2656 29.8125C53.151 30.2865 52.9635 30.6979 52.7031 31.0469C52.4427 31.3958 52.1016 31.6693 51.6797 31.8672C51.2578 32.0599 50.7448 32.1562 50.1406 32.1562C49.7292 32.1562 49.3516 32.0964 49.0078 31.9766C48.6693 31.8568 48.3776 31.6719 48.1328 31.4219C47.888 31.1719 47.6979 30.8464 47.5625 30.4453C47.4323 30.0443 47.3672 29.5625 47.3672 29V23.5469H48.8125V29.0156C48.8125 29.3958 48.8542 29.7109 48.9375 29.9609C49.026 30.2057 49.1432 30.401 49.2891 30.5469C49.4401 30.6875 49.6068 30.7865 49.7891 30.8438C49.9766 30.901 50.1693 30.9297 50.3672 30.9297C50.9818 30.9297 51.4688 30.8125 51.8281 30.5781C52.1875 30.3385 52.4453 30.0182 52.6016 29.6172C52.763 29.2109 52.8438 28.7604 52.8438 28.2656ZM57.7969 23.5469V32H56.3438V23.5469H57.7969ZM56.2344 21.3047C56.2344 21.0703 56.3047 20.8724 56.4453 20.7109C56.5911 20.5495 56.8047 20.4688 57.0859 20.4688C57.362 20.4688 57.5729 20.5495 57.7188 20.7109C57.8698 20.8724 57.9453 21.0703 57.9453 21.3047C57.9453 21.5286 57.8698 21.7214 57.7188 21.8828C57.5729 22.0391 57.362 22.1172 57.0859 22.1172C56.8047 22.1172 56.5911 22.0391 56.4453 21.8828C56.3047 21.7214 56.2344 21.5286 56.2344 21.3047ZM61.5625 25.3516V32H60.1172V23.5469H61.4844L61.5625 25.3516ZM61.2188 27.4531L60.6172 27.4297C60.6224 26.8516 60.7083 26.3177 60.875 25.8281C61.0417 25.3333 61.276 24.9036 61.5781 24.5391C61.8802 24.1745 62.2396 23.8932 62.6562 23.6953C63.0781 23.4922 63.5443 23.3906 64.0547 23.3906C64.4714 23.3906 64.8464 23.4479 65.1797 23.5625C65.513 23.6719 65.7969 23.849 66.0312 24.0938C66.2708 24.3385 66.4531 24.6562 66.5781 25.0469C66.7031 25.4323 66.7656 25.9036 66.7656 26.4609V32H65.3125V26.4453C65.3125 26.0026 65.2474 25.6484 65.1172 25.3828C64.987 25.112 64.7969 24.9167 64.5469 24.7969C64.2969 24.6719 63.9896 24.6094 63.625 24.6094C63.2656 24.6094 62.9375 24.6849 62.6406 24.8359C62.349 24.987 62.0964 25.1953 61.8828 25.4609C61.6745 25.7266 61.5104 26.0312 61.3906 26.375C61.276 26.7135 61.2188 27.0729 61.2188 27.4531ZM73.8828 29.7578C73.8828 29.5495 73.8359 29.3568 73.7422 29.1797C73.6536 28.9974 73.4688 28.8333 73.1875 28.6875C72.9115 28.5365 72.4948 28.4062 71.9375 28.2969C71.4688 28.1979 71.0443 28.0807 70.6641 27.9453C70.2891 27.8099 69.9688 27.6458 69.7031 27.4531C69.4427 27.2604 69.2422 27.0339 69.1016 26.7734C68.9609 26.513 68.8906 26.2083 68.8906 25.8594C68.8906 25.526 68.9635 25.2109 69.1094 24.9141C69.2604 24.6172 69.4714 24.3542 69.7422 24.125C70.0182 23.8958 70.349 23.7161 70.7344 23.5859C71.1198 23.4557 71.5495 23.3906 72.0234 23.3906C72.7005 23.3906 73.2786 23.5104 73.7578 23.75C74.237 23.9896 74.6042 24.3099 74.8594 24.7109C75.1146 25.1068 75.2422 25.5469 75.2422 26.0312H73.7969C73.7969 25.7969 73.7266 25.5703 73.5859 25.3516C73.4505 25.1276 73.25 24.9427 72.9844 24.7969C72.724 24.651 72.4036 24.5781 72.0234 24.5781C71.6224 24.5781 71.2969 24.6406 71.0469 24.7656C70.8021 24.8854 70.6224 25.0391 70.5078 25.2266C70.3984 25.4141 70.3438 25.612 70.3438 25.8203C70.3438 25.9766 70.3698 26.1172 70.4219 26.2422C70.4792 26.362 70.5781 26.474 70.7188 26.5781C70.8594 26.6771 71.0573 26.7708 71.3125 26.8594C71.5677 26.9479 71.8932 27.0365 72.2891 27.125C72.9818 27.2812 73.5521 27.4688 74 27.6875C74.4479 27.9062 74.7812 28.1745 75 28.4922C75.2188 28.8099 75.3281 29.1953 75.3281 29.6484C75.3281 30.0182 75.25 30.3568 75.0938 30.6641C74.9427 30.9714 74.7214 31.237 74.4297 31.4609C74.1432 31.6797 73.7995 31.8516 73.3984 31.9766C73.0026 32.0964 72.5573 32.1562 72.0625 32.1562C71.3177 32.1562 70.6875 32.0234 70.1719 31.7578C69.6562 31.4922 69.2656 31.1484 69 30.7266C68.7344 30.3047 68.6016 29.8594 68.6016 29.3906H70.0547C70.0755 29.7865 70.1901 30.1016 70.3984 30.3359C70.6068 30.5651 70.862 30.7292 71.1641 30.8281C71.4661 30.9219 71.7656 30.9688 72.0625 30.9688C72.4583 30.9688 72.7891 30.9167 73.0547 30.8125C73.3255 30.7083 73.5312 30.5651 73.6719 30.3828C73.8125 30.2005 73.8828 29.9922 73.8828 29.7578Z" fill="black"/>
<path d="M15.5312 43.6328L11.7656 54H10.2266L14.5625 42.625H15.5547L15.5312 43.6328ZM18.6875 54L14.9141 43.6328L14.8906 42.625H15.8828L20.2344 54H18.6875ZM18.4922 49.7891V51.0234H12.1016V49.7891H18.4922ZM22.9844 47.3516V54H21.5391V45.5469H22.9062L22.9844 47.3516ZM22.6406 49.4531L22.0391 49.4297C22.0443 48.8516 22.1302 48.3177 22.2969 47.8281C22.4635 47.3333 22.6979 46.9036 23 46.5391C23.3021 46.1745 23.6615 45.8932 24.0781 45.6953C24.5 45.4922 24.9661 45.3906 25.4766 45.3906C25.8932 45.3906 26.2682 45.4479 26.6016 45.5625C26.9349 45.6719 27.2188 45.849 27.4531 46.0938C27.6927 46.3385 27.875 46.6562 28 47.0469C28.125 47.4323 28.1875 47.9036 28.1875 48.4609V54H26.7344V48.4453C26.7344 48.0026 26.6693 47.6484 26.5391 47.3828C26.4089 47.112 26.2188 46.9167 25.9688 46.7969C25.7188 46.6719 25.4115 46.6094 25.0469 46.6094C24.6875 46.6094 24.3594 46.6849 24.0625 46.8359C23.7708 46.987 23.5182 47.1953 23.3047 47.4609C23.0964 47.7266 22.9323 48.0312 22.8125 48.375C22.6979 48.7135 22.6406 49.0729 22.6406 49.4531ZM33.9219 45.5469V46.6562H29.3516V45.5469H33.9219ZM30.8984 43.4922H32.3438V51.9062C32.3438 52.1927 32.388 52.4089 32.4766 52.5547C32.5651 52.7005 32.6797 52.7969 32.8203 52.8438C32.9609 52.8906 33.112 52.9141 33.2734 52.9141C33.3932 52.9141 33.5182 52.9036 33.6484 52.8828C33.7839 52.8568 33.8854 52.8359 33.9531 52.8203L33.9609 54C33.8464 54.0365 33.6953 54.0703 33.5078 54.1016C33.3255 54.138 33.1042 54.1562 32.8438 54.1562C32.4896 54.1562 32.1641 54.0859 31.8672 53.9453C31.5703 53.8047 31.3333 53.5703 31.1562 53.2422C30.9844 52.9089 30.8984 52.4609 30.8984 51.8984V43.4922ZM40.6016 52.5547V48.2031C40.6016 47.8698 40.5339 47.5807 40.3984 47.3359C40.2682 47.0859 40.0703 46.8932 39.8047 46.7578C39.5391 46.6224 39.2109 46.5547 38.8203 46.5547C38.4557 46.5547 38.1354 46.6172 37.8594 46.7422C37.5885 46.8672 37.375 47.0312 37.2188 47.2344C37.0677 47.4375 36.9922 47.6562 36.9922 47.8906H35.5469C35.5469 47.5885 35.625 47.2891 35.7812 46.9922C35.9375 46.6953 36.1615 46.4271 36.4531 46.1875C36.75 45.9427 37.1042 45.75 37.5156 45.6094C37.9323 45.4635 38.3958 45.3906 38.9062 45.3906C39.5208 45.3906 40.0625 45.4948 40.5312 45.7031C41.0052 45.9115 41.375 46.2266 41.6406 46.6484C41.9115 47.0651 42.0469 47.5885 42.0469 48.2188V52.1562C42.0469 52.4375 42.0703 52.737 42.1172 53.0547C42.1693 53.3724 42.2448 53.6458 42.3438 53.875V54H40.8359C40.763 53.8333 40.7057 53.612 40.6641 53.3359C40.6224 53.0547 40.6016 52.7943 40.6016 52.5547ZM40.8516 48.875L40.8672 49.8906H39.4062C38.9948 49.8906 38.6276 49.9245 38.3047 49.9922C37.9818 50.0547 37.7109 50.151 37.4922 50.2812C37.2734 50.4115 37.1068 50.5755 36.9922 50.7734C36.8776 50.9661 36.8203 51.1927 36.8203 51.4531C36.8203 51.7188 36.8802 51.9609 37 52.1797C37.1198 52.3984 37.2995 52.5729 37.5391 52.7031C37.7839 52.8281 38.0833 52.8906 38.4375 52.8906C38.8802 52.8906 39.2708 52.7969 39.6094 52.6094C39.9479 52.4219 40.2161 52.1927 40.4141 51.9219C40.6172 51.651 40.7266 51.388 40.7422 51.1328L41.3594 51.8281C41.3229 52.0469 41.224 52.2891 41.0625 52.5547C40.901 52.8203 40.6849 53.0755 40.4141 53.3203C40.1484 53.5599 39.8307 53.7604 39.4609 53.9219C39.0964 54.0781 38.6849 54.1562 38.2266 54.1562C37.6536 54.1562 37.151 54.0443 36.7188 53.8203C36.2917 53.5964 35.9583 53.2969 35.7188 52.9219C35.4844 52.5417 35.3672 52.1172 35.3672 51.6484C35.3672 51.1953 35.4557 50.7969 35.6328 50.4531C35.8099 50.1042 36.0651 49.8151 36.3984 49.5859C36.7318 49.3516 37.1328 49.1745 37.6016 49.0547C38.0703 48.9349 38.5938 48.875 39.1719 48.875H40.8516ZM47.7031 52.9688C48.0469 52.9688 48.3646 52.8984 48.6562 52.7578C48.9479 52.6172 49.1875 52.4245 49.375 52.1797C49.5625 51.9297 49.6693 51.6458 49.6953 51.3281H51.0703C51.0443 51.8281 50.875 52.2943 50.5625 52.7266C50.2552 53.1536 49.8516 53.5 49.3516 53.7656C48.8516 54.026 48.3021 54.1562 47.7031 54.1562C47.0677 54.1562 46.513 54.0443 46.0391 53.8203C45.5703 53.5964 45.1797 53.2891 44.8672 52.8984C44.5599 52.5078 44.3281 52.0599 44.1719 51.5547C44.0208 51.0443 43.9453 50.5052 43.9453 49.9375V49.6094C43.9453 49.0417 44.0208 48.5052 44.1719 48C44.3281 47.4896 44.5599 47.0391 44.8672 46.6484C45.1797 46.2578 45.5703 45.9505 46.0391 45.7266C46.513 45.5026 47.0677 45.3906 47.7031 45.3906C48.3646 45.3906 48.9427 45.526 49.4375 45.7969C49.9323 46.0625 50.3203 46.4271 50.6016 46.8906C50.888 47.349 51.0443 47.8698 51.0703 48.4531H49.6953C49.6693 48.1042 49.5703 47.7891 49.3984 47.5078C49.2318 47.2266 49.0026 47.0026 48.7109 46.8359C48.4245 46.6641 48.0885 46.5781 47.7031 46.5781C47.2604 46.5781 46.888 46.6667 46.5859 46.8438C46.2891 47.0156 46.0521 47.25 45.875 47.5469C45.7031 47.8385 45.5781 48.1641 45.5 48.5234C45.4271 48.8776 45.3906 49.2396 45.3906 49.6094V49.9375C45.3906 50.3073 45.4271 50.6719 45.5 51.0312C45.5729 51.3906 45.6953 51.7161 45.8672 52.0078C46.0443 52.2995 46.2812 52.5339 46.5781 52.7109C46.8802 52.8828 47.2552 52.9688 47.7031 52.9688ZM54.1406 46.875V54H52.6953V45.5469H54.1016L54.1406 46.875ZM56.7812 45.5L56.7734 46.8438C56.6536 46.8177 56.5391 46.8021 56.4297 46.7969C56.3255 46.7865 56.2057 46.7812 56.0703 46.7812C55.737 46.7812 55.4427 46.8333 55.1875 46.9375C54.9323 47.0417 54.7161 47.1875 54.5391 47.375C54.362 47.5625 54.2214 47.7865 54.1172 48.0469C54.0182 48.3021 53.9531 48.5833 53.9219 48.8906L53.5156 49.125C53.5156 48.6146 53.5651 48.1354 53.6641 47.6875C53.7682 47.2396 53.9271 46.8438 54.1406 46.5C54.3542 46.151 54.625 45.8802 54.9531 45.6875C55.2865 45.4896 55.6823 45.3906 56.1406 45.3906C56.2448 45.3906 56.3646 45.4036 56.5 45.4297C56.6354 45.4505 56.7292 45.474 56.7812 45.5ZM62.0469 45.5469V46.6562H57.4766V45.5469H62.0469ZM59.0234 43.4922H60.4688V51.9062C60.4688 52.1927 60.513 52.4089 60.6016 52.5547C60.6901 52.7005 60.8047 52.7969 60.9453 52.8438C61.0859 52.8906 61.237 52.9141 61.3984 52.9141C61.5182 52.9141 61.6432 52.9036 61.7734 52.8828C61.9089 52.8568 62.0104 52.8359 62.0781 52.8203L62.0859 54C61.9714 54.0365 61.8203 54.0703 61.6328 54.1016C61.4505 54.138 61.2292 54.1562 60.9688 54.1562C60.6146 54.1562 60.2891 54.0859 59.9922 53.9453C59.6953 53.8047 59.4583 53.5703 59.2812 53.2422C59.1094 52.9089 59.0234 52.4609 59.0234 51.8984V43.4922ZM65.3125 45.5469V54H63.8594V45.5469H65.3125ZM63.75 43.3047C63.75 43.0703 63.8203 42.8724 63.9609 42.7109C64.1068 42.5495 64.3203 42.4688 64.6016 42.4688C64.8776 42.4688 65.0885 42.5495 65.2344 42.7109C65.3854 42.8724 65.4609 43.0703 65.4609 43.3047C65.4609 43.5286 65.3854 43.7214 65.2344 43.8828C65.0885 44.0391 64.8776 44.1172 64.6016 44.1172C64.3203 44.1172 64.1068 44.0391 63.9609 43.8828C63.8203 43.7214 63.75 43.5286 63.75 43.3047ZM71.0156 52.9688C71.3594 52.9688 71.6771 52.8984 71.9688 52.7578C72.2604 52.6172 72.5 52.4245 72.6875 52.1797C72.875 51.9297 72.9818 51.6458 73.0078 51.3281H74.3828C74.3568 51.8281 74.1875 52.2943 73.875 52.7266C73.5677 53.1536 73.1641 53.5 72.6641 53.7656C72.1641 54.026 71.6146 54.1562 71.0156 54.1562C70.3802 54.1562 69.8255 54.0443 69.3516 53.8203C68.8828 53.5964 68.4922 53.2891 68.1797 52.8984C67.8724 52.5078 67.6406 52.0599 67.4844 51.5547C67.3333 51.0443 67.2578 50.5052 67.2578 49.9375V49.6094C67.2578 49.0417 67.3333 48.5052 67.4844 48C67.6406 47.4896 67.8724 47.0391 68.1797 46.6484C68.4922 46.2578 68.8828 45.9505 69.3516 45.7266C69.8255 45.5026 70.3802 45.3906 71.0156 45.3906C71.6771 45.3906 72.2552 45.526 72.75 45.7969C73.2448 46.0625 73.6328 46.4271 73.9141 46.8906C74.2005 47.349 74.3568 47.8698 74.3828 48.4531H73.0078C72.9818 48.1042 72.8828 47.7891 72.7109 47.5078C72.5443 47.2266 72.3151 47.0026 72.0234 46.8359C71.737 46.6641 71.401 46.5781 71.0156 46.5781C70.5729 46.5781 70.2005 46.6667 69.8984 46.8438C69.6016 47.0156 69.3646 47.25 69.1875 47.5469C69.0156 47.8385 68.8906 48.1641 68.8125 48.5234C68.7396 48.8776 68.7031 49.2396 68.7031 49.6094V49.9375C68.7031 50.3073 68.7396 50.6719 68.8125 51.0312C68.8854 51.3906 69.0078 51.7161 69.1797 52.0078C69.3568 52.2995 69.5938 52.5339 69.8906 52.7109C70.1927 52.8828 70.5677 52.9688 71.0156 52.9688ZM80.9922 52.5547V48.2031C80.9922 47.8698 80.9245 47.5807 80.7891 47.3359C80.6589 47.0859 80.4609 46.8932 80.1953 46.7578C79.9297 46.6224 79.6016 46.5547 79.2109 46.5547C78.8464 46.5547 78.526 46.6172 78.25 46.7422C77.9792 46.8672 77.7656 47.0312 77.6094 47.2344C77.4583 47.4375 77.3828 47.6562 77.3828 47.8906H75.9375C75.9375 47.5885 76.0156 47.2891 76.1719 46.9922C76.3281 46.6953 76.5521 46.4271 76.8438 46.1875C77.1406 45.9427 77.4948 45.75 77.9062 45.6094C78.3229 45.4635 78.7865 45.3906 79.2969 45.3906C79.9115 45.3906 80.4531 45.4948 80.9219 45.7031C81.3958 45.9115 81.7656 46.2266 82.0312 46.6484C82.3021 47.0651 82.4375 47.5885 82.4375 48.2188V52.1562C82.4375 52.4375 82.4609 52.737 82.5078 53.0547C82.5599 53.3724 82.6354 53.6458 82.7344 53.875V54H81.2266C81.1536 53.8333 81.0964 53.612 81.0547 53.3359C81.013 53.0547 80.9922 52.7943 80.9922 52.5547ZM81.2422 48.875L81.2578 49.8906H79.7969C79.3854 49.8906 79.0182 49.9245 78.6953 49.9922C78.3724 50.0547 78.1016 50.151 77.8828 50.2812C77.6641 50.4115 77.4974 50.5755 77.3828 50.7734C77.2682 50.9661 77.2109 51.1927 77.2109 51.4531C77.2109 51.7188 77.2708 51.9609 77.3906 52.1797C77.5104 52.3984 77.6901 52.5729 77.9297 52.7031C78.1745 52.8281 78.474 52.8906 78.8281 52.8906C79.2708 52.8906 79.6615 52.7969 80 52.6094C80.3385 52.4219 80.6068 52.1927 80.8047 51.9219C81.0078 51.651 81.1172 51.388 81.1328 51.1328L81.75 51.8281C81.7135 52.0469 81.6146 52.2891 81.4531 52.5547C81.2917 52.8203 81.0755 53.0755 80.8047 53.3203C80.5391 53.5599 80.2214 53.7604 79.8516 53.9219C79.487 54.0781 79.0755 54.1562 78.6172 54.1562C78.0443 54.1562 77.5417 54.0443 77.1094 53.8203C76.6823 53.5964 76.349 53.2969 76.1094 52.9219C75.875 52.5417 75.7578 52.1172 75.7578 51.6484C75.7578 51.1953 75.8464 50.7969 76.0234 50.4531C76.2005 50.1042 76.4557 49.8151 76.7891 49.5859C77.1224 49.3516 77.5234 49.1745 77.9922 49.0547C78.4609 48.9349 78.9844 48.875 79.5625 48.875H81.2422Z" fill="black"/>
</svg>
