<svg width="160" height="117" viewBox="0 0 160 117" fill="none" xmlns="http://www.w3.org/2000/svg">
<mask id="path-1-inside-1_52132_696" fill="white">
<path fill-rule="evenodd" clip-rule="evenodd" d="M59.6201 8.19008L55.2578 0L50.8382 8.19008H5C2.23858 8.19008 0 10.4286 0 13.1901V112C0 114.761 2.23857 117 4.99999 117H154.113C156.874 117 159.113 114.762 159.113 112V13.1901C159.113 10.4287 156.874 8.19008 154.113 8.19008H59.6201Z"/>
</mask>
<path fill-rule="evenodd" clip-rule="evenodd" d="M59.6201 8.19008L55.2578 0L50.8382 8.19008H5C2.23858 8.19008 0 10.4286 0 13.1901V112C0 114.761 2.23857 117 4.99999 117H154.113C156.874 117 159.113 114.762 159.113 112V13.1901C159.113 10.4287 156.874 8.19008 154.113 8.19008H59.6201Z" fill="white"/>
<path d="M55.2578 0L56.1404 -0.470106L55.2636 -2.11637L54.3778 -0.474902L55.2578 0ZM59.6201 8.19008L58.7375 8.66018L59.0198 9.19008H59.6201V8.19008ZM50.8382 8.19008V9.19008H51.4348L51.7182 8.66498L50.8382 8.19008ZM54.3752 0.470106L58.7375 8.66018L60.5027 7.71997L56.1404 -0.470106L54.3752 0.470106ZM51.7182 8.66498L56.1379 0.474902L54.3778 -0.474902L49.9581 7.71518L51.7182 8.66498ZM5 9.19008H50.8382V7.19008H5V9.19008ZM1 13.1901C1 10.9809 2.79086 9.19008 5 9.19008V7.19008C1.68629 7.19008 -1 9.87636 -1 13.1901H1ZM1 112V13.1901H-1V112H1ZM4.99999 116C2.79086 116 1 114.209 1 112H-1C-1 115.314 1.68628 118 4.99999 118V116ZM154.113 116H4.99999V118H154.113V116ZM158.113 112C158.113 114.209 156.322 116 154.113 116V118C157.426 118 160.113 115.314 160.113 112H158.113ZM158.113 13.1901V112H160.113V13.1901H158.113ZM154.113 9.19008C156.322 9.19008 158.113 10.9809 158.113 13.1901H160.113C160.113 9.87637 157.426 7.19008 154.113 7.19008V9.19008ZM59.6201 9.19008H154.113V7.19008H59.6201V9.19008Z" fill="black" mask="url(#path-1-inside-1_52132_696)"/>
<rect x="11.1268" y="71" width="135.746" height="31" rx="5" fill="#F1F3F2"/>
<path d="M31.7736 87.5518L31.9923 89.0518L32.3126 87.7002L34.5626 79.7627H35.8282L38.0236 87.7002L38.3361 89.0752L38.5782 87.5439L40.3439 79.7627H41.8517L39.0939 91.1377H37.7267L35.3829 82.8486L35.2032 81.9814L35.0236 82.8486L32.5939 91.1377H31.2267L28.4767 79.7627H29.9767L31.7736 87.5518ZM44.7423 83.708C45.3829 82.9215 46.2163 82.5283 47.2423 82.5283C49.0288 82.5283 49.9298 83.5361 49.9454 85.5518V91.1377H48.5001V85.5439C48.4949 84.9346 48.3543 84.484 48.0782 84.1924C47.8074 83.9007 47.3829 83.7549 46.8048 83.7549C46.3361 83.7549 45.9246 83.8799 45.5704 84.1299C45.2163 84.3799 44.9402 84.708 44.7423 85.1143V91.1377H43.297V79.1377H44.7423V83.708ZM57.3282 91.1377C57.2449 90.971 57.1772 90.6742 57.1251 90.2471C56.4532 90.945 55.6512 91.2939 54.7189 91.2939C53.8855 91.2939 53.2006 91.0596 52.6642 90.5908C52.1329 90.1169 51.8673 89.5179 51.8673 88.7939C51.8673 87.9137 52.2006 87.2314 52.8673 86.7471C53.5392 86.2575 54.4819 86.0127 55.6954 86.0127H57.1017V85.3486C57.1017 84.8434 56.9506 84.4424 56.6486 84.1455C56.3465 83.8434 55.9012 83.6924 55.3126 83.6924C54.797 83.6924 54.3647 83.8226 54.0157 84.083C53.6668 84.3434 53.4923 84.6585 53.4923 85.0283H52.0392C52.0392 84.6064 52.1876 84.2002 52.4845 83.8096C52.7866 83.4137 53.1928 83.1012 53.7032 82.8721C54.2189 82.6429 54.784 82.5283 55.3986 82.5283C56.3725 82.5283 57.1355 82.7731 57.6876 83.2627C58.2397 83.7471 58.5262 84.4163 58.547 85.2705V89.1611C58.547 89.9372 58.646 90.5544 58.8439 91.0127V91.1377H57.3282ZM54.9298 90.0361C55.3829 90.0361 55.8126 89.9189 56.2189 89.6846C56.6251 89.4502 56.9194 89.1455 57.1017 88.7705V87.0361H55.9689C54.198 87.0361 53.3126 87.5544 53.3126 88.5908C53.3126 89.0439 53.4637 89.3981 53.7657 89.6533C54.0678 89.9085 54.4559 90.0361 54.9298 90.0361ZM62.7736 80.6377V82.6846H64.3517V83.8018H62.7736V89.0439C62.7736 89.3825 62.8439 89.6377 62.9845 89.8096C63.1251 89.9762 63.3647 90.0596 63.7032 90.0596C63.8699 90.0596 64.0991 90.0283 64.3907 89.9658V91.1377C64.0105 91.2419 63.6407 91.2939 63.2814 91.2939C62.6355 91.2939 62.1486 91.0986 61.8204 90.708C61.4923 90.3174 61.3282 89.7627 61.3282 89.0439V83.8018H59.7892V82.6846H61.3282V80.6377H62.7736ZM69.4376 90.1143C69.9532 90.1143 70.4038 89.958 70.7892 89.6455C71.1746 89.333 71.3881 88.9424 71.4298 88.4736H72.797C72.771 88.958 72.6043 89.4189 72.297 89.8564C71.9897 90.2939 71.5782 90.6429 71.0626 90.9033C70.5522 91.1637 70.0105 91.2939 69.4376 91.2939C68.2866 91.2939 67.3699 90.9111 66.6876 90.1455C66.0105 89.3747 65.672 88.3226 65.672 86.9893V86.7471C65.672 85.9242 65.823 85.1924 66.1251 84.5518C66.4272 83.9111 66.8595 83.4137 67.422 83.0596C67.9897 82.7054 68.659 82.5283 69.4298 82.5283C70.3777 82.5283 71.1642 82.8122 71.7892 83.3799C72.4194 83.9476 72.7553 84.6846 72.797 85.5908H71.4298C71.3881 85.0439 71.1798 84.596 70.8048 84.2471C70.435 83.8929 69.9767 83.7158 69.4298 83.7158C68.6954 83.7158 68.1251 83.9814 67.7189 84.5127C67.3178 85.0387 67.1173 85.8018 67.1173 86.8018V87.0752C67.1173 88.0492 67.3178 88.7992 67.7189 89.3252C68.1199 89.8512 68.6928 90.1143 69.4376 90.1143ZM75.8673 83.708C76.5079 82.9215 77.3413 82.5283 78.3673 82.5283C80.1538 82.5283 81.0548 83.5361 81.0704 85.5518V91.1377H79.6251V85.5439C79.6199 84.9346 79.4793 84.484 79.2032 84.1924C78.9324 83.9007 78.5079 83.7549 77.9298 83.7549C77.4611 83.7549 77.0496 83.8799 76.6954 84.1299C76.3413 84.3799 76.0652 84.708 75.8673 85.1143V91.1377H74.422V79.1377H75.8673V83.708ZM86.8204 86.833C86.8204 86.0049 86.9819 85.2601 87.3048 84.5986C87.6329 83.9372 88.0861 83.4268 88.6642 83.0674C89.2475 82.708 89.9116 82.5283 90.6564 82.5283C91.8074 82.5283 92.7371 82.9268 93.4454 83.7236C94.159 84.5205 94.5157 85.5804 94.5157 86.9033V87.0049C94.5157 87.8278 94.3569 88.5674 94.0392 89.2236C93.7267 89.8747 93.2762 90.3825 92.6876 90.7471C92.1043 91.1117 91.4324 91.2939 90.672 91.2939C89.5262 91.2939 88.5965 90.8955 87.8829 90.0986C87.1746 89.3018 86.8204 88.2471 86.8204 86.9346V86.833ZM88.2736 87.0049C88.2736 87.9424 88.4897 88.695 88.922 89.2627C89.3595 89.8304 89.9428 90.1143 90.672 90.1143C91.4064 90.1143 91.9897 89.8278 92.422 89.2549C92.8543 88.6768 93.0704 87.8695 93.0704 86.833C93.0704 85.9059 92.8491 85.1559 92.4064 84.583C91.9689 84.0049 91.3855 83.7158 90.6564 83.7158C89.9428 83.7158 89.3673 83.9997 88.9298 84.5674C88.4923 85.1351 88.2736 85.9476 88.2736 87.0049ZM97.6954 82.6846L97.7423 83.7471C98.3881 82.9346 99.2319 82.5283 100.274 82.5283C102.06 82.5283 102.961 83.5361 102.977 85.5518V91.1377H101.531V85.5439C101.526 84.9346 101.386 84.484 101.109 84.1924C100.839 83.9007 100.414 83.7549 99.8361 83.7549C99.3673 83.7549 98.9559 83.8799 98.6017 84.1299C98.2475 84.3799 97.9715 84.708 97.7736 85.1143V91.1377H96.3282V82.6846H97.6954ZM106.727 91.1377H105.281V79.1377H106.727V91.1377ZM110.617 91.1377H109.172V82.6846H110.617V91.1377ZM109.055 80.4424C109.055 80.208 109.125 80.0101 109.266 79.8486C109.412 79.6872 109.625 79.6064 109.906 79.6064C110.188 79.6064 110.401 79.6872 110.547 79.8486C110.693 80.0101 110.766 80.208 110.766 80.4424C110.766 80.6768 110.693 80.8721 110.547 81.0283C110.401 81.1846 110.188 81.2627 109.906 81.2627C109.625 81.2627 109.412 81.1846 109.266 81.0283C109.125 80.8721 109.055 80.6768 109.055 80.4424ZM114.305 82.6846L114.352 83.7471C114.998 82.9346 115.841 82.5283 116.883 82.5283C118.669 82.5283 119.57 83.5361 119.586 85.5518V91.1377H118.141V85.5439C118.136 84.9346 117.995 84.484 117.719 84.1924C117.448 83.9007 117.024 83.7549 116.445 83.7549C115.977 83.7549 115.565 83.8799 115.211 84.1299C114.857 84.3799 114.581 84.708 114.383 85.1143V91.1377H112.938V82.6846H114.305ZM125.274 91.2939C124.128 91.2939 123.195 90.9189 122.477 90.1689C121.758 89.4137 121.399 88.4059 121.399 87.1455V86.8799C121.399 86.0413 121.557 85.2939 121.875 84.6377C122.198 83.9762 122.646 83.4606 123.219 83.0908C123.797 82.7158 124.422 82.5283 125.094 82.5283C126.193 82.5283 127.047 82.8903 127.656 83.6143C128.266 84.3382 128.57 85.3747 128.57 86.7236V87.3252H122.844C122.865 88.1585 123.107 88.833 123.57 89.3486C124.039 89.859 124.633 90.1143 125.352 90.1143C125.862 90.1143 126.294 90.0101 126.649 89.8018C127.003 89.5934 127.313 89.3174 127.578 88.9736L128.461 89.6611C127.753 90.7497 126.69 91.2939 125.274 91.2939ZM125.094 83.7158C124.511 83.7158 124.021 83.9294 123.625 84.3564C123.229 84.7783 122.984 85.3721 122.891 86.1377H127.125V86.0283C127.083 85.2939 126.886 84.7262 126.531 84.3252C126.177 83.9189 125.698 83.7158 125.094 83.7158Z" fill="#4B9200"/>
<path d="M18.5469 30.7734V32H12.5234V30.7734H18.5469ZM12.8281 20.625V32H11.3203V20.625H12.8281ZM17.75 25.5156V26.7422H12.5234V25.5156H17.75ZM18.4688 20.625V21.8594H12.5234V20.625H18.4688ZM25.1797 30.5547V26.2031C25.1797 25.8698 25.112 25.5807 24.9766 25.3359C24.8464 25.0859 24.6484 24.8932 24.3828 24.7578C24.1172 24.6224 23.7891 24.5547 23.3984 24.5547C23.0339 24.5547 22.7135 24.6172 22.4375 24.7422C22.1667 24.8672 21.9531 25.0312 21.7969 25.2344C21.6458 25.4375 21.5703 25.6562 21.5703 25.8906H20.125C20.125 25.5885 20.2031 25.2891 20.3594 24.9922C20.5156 24.6953 20.7396 24.4271 21.0312 24.1875C21.3281 23.9427 21.6823 23.75 22.0938 23.6094C22.5104 23.4635 22.974 23.3906 23.4844 23.3906C24.099 23.3906 24.6406 23.4948 25.1094 23.7031C25.5833 23.9115 25.9531 24.2266 26.2188 24.6484C26.4896 25.0651 26.625 25.5885 26.625 26.2188V30.1562C26.625 30.4375 26.6484 30.737 26.6953 31.0547C26.7474 31.3724 26.8229 31.6458 26.9219 31.875V32H25.4141C25.3411 31.8333 25.2839 31.612 25.2422 31.3359C25.2005 31.0547 25.1797 30.7943 25.1797 30.5547ZM25.4297 26.875L25.4453 27.8906H23.9844C23.5729 27.8906 23.2057 27.9245 22.8828 27.9922C22.5599 28.0547 22.2891 28.151 22.0703 28.2812C21.8516 28.4115 21.6849 28.5755 21.5703 28.7734C21.4557 28.9661 21.3984 29.1927 21.3984 29.4531C21.3984 29.7188 21.4583 29.9609 21.5781 30.1797C21.6979 30.3984 21.8776 30.5729 22.1172 30.7031C22.362 30.8281 22.6615 30.8906 23.0156 30.8906C23.4583 30.8906 23.849 30.7969 24.1875 30.6094C24.526 30.4219 24.7943 30.1927 24.9922 29.9219C25.1953 29.651 25.3047 29.388 25.3203 29.1328L25.9375 29.8281C25.901 30.0469 25.8021 30.2891 25.6406 30.5547C25.4792 30.8203 25.263 31.0755 24.9922 31.3203C24.7266 31.5599 24.4089 31.7604 24.0391 31.9219C23.6745 32.0781 23.263 32.1562 22.8047 32.1562C22.2318 32.1562 21.7292 32.0443 21.2969 31.8203C20.8698 31.5964 20.5365 31.2969 20.2969 30.9219C20.0625 30.5417 19.9453 30.1172 19.9453 29.6484C19.9453 29.1953 20.0339 28.7969 20.2109 28.4531C20.388 28.1042 20.6432 27.8151 20.9766 27.5859C21.3099 27.3516 21.7109 27.1745 22.1797 27.0547C22.6484 26.9349 23.1719 26.875 23.75 26.875H25.4297ZM34.375 23.5469H35.6875V31.8203C35.6875 32.5651 35.5365 33.2005 35.2344 33.7266C34.9323 34.2526 34.5104 34.651 33.9688 34.9219C33.4323 35.1979 32.8125 35.3359 32.1094 35.3359C31.8177 35.3359 31.474 35.2891 31.0781 35.1953C30.6875 35.1068 30.3021 34.9531 29.9219 34.7344C29.5469 34.5208 29.2318 34.2318 28.9766 33.8672L29.7344 33.0078C30.0885 33.4349 30.4583 33.7318 30.8438 33.8984C31.2344 34.0651 31.6198 34.1484 32 34.1484C32.4583 34.1484 32.8542 34.0625 33.1875 33.8906C33.5208 33.7188 33.7786 33.4635 33.9609 33.125C34.1484 32.7917 34.2422 32.3802 34.2422 31.8906V25.4062L34.375 23.5469ZM28.5547 27.8672V27.7031C28.5547 27.0573 28.6302 26.4714 28.7812 25.9453C28.9375 25.4141 29.1589 24.9583 29.4453 24.5781C29.737 24.1979 30.0885 23.9062 30.5 23.7031C30.9115 23.4948 31.375 23.3906 31.8906 23.3906C32.4219 23.3906 32.8854 23.4844 33.2812 23.6719C33.6823 23.8542 34.0208 24.1224 34.2969 24.4766C34.5781 24.8255 34.7995 25.2474 34.9609 25.7422C35.1224 26.237 35.2344 26.7969 35.2969 27.4219V28.1406C35.2396 28.7604 35.1276 29.3177 34.9609 29.8125C34.7995 30.3073 34.5781 30.7292 34.2969 31.0781C34.0208 31.4271 33.6823 31.6953 33.2812 31.8828C32.8802 32.0651 32.4115 32.1562 31.875 32.1562C31.3698 32.1562 30.9115 32.0495 30.5 31.8359C30.0938 31.6224 29.7448 31.3229 29.4531 30.9375C29.1615 30.5521 28.9375 30.099 28.7812 29.5781C28.6302 29.0521 28.5547 28.4818 28.5547 27.8672ZM30 27.7031V27.8672C30 28.2891 30.0417 28.6849 30.125 29.0547C30.2135 29.4245 30.3464 29.75 30.5234 30.0312C30.7057 30.3125 30.9375 30.5339 31.2188 30.6953C31.5 30.8516 31.8359 30.9297 32.2266 30.9297C32.7057 30.9297 33.1016 30.8281 33.4141 30.625C33.7266 30.4219 33.974 30.1536 34.1562 29.8203C34.3438 29.487 34.4896 29.125 34.5938 28.7344V26.8516C34.5365 26.5651 34.4479 26.2891 34.3281 26.0234C34.2135 25.7526 34.0625 25.513 33.875 25.3047C33.6927 25.0911 33.4661 24.9219 33.1953 24.7969C32.9245 24.6719 32.6068 24.6094 32.2422 24.6094C31.8464 24.6094 31.5052 24.6927 31.2188 24.8594C30.9375 25.0208 30.7057 25.2448 30.5234 25.5312C30.3464 25.8125 30.2135 26.1406 30.125 26.5156C30.0417 26.8854 30 27.2812 30 27.7031ZM39.4531 20V32H38V20H39.4531ZM45.2812 32.1562C44.6927 32.1562 44.1589 32.0573 43.6797 31.8594C43.2057 31.6562 42.7969 31.3724 42.4531 31.0078C42.1146 30.6432 41.8542 30.2109 41.6719 29.7109C41.4896 29.2109 41.3984 28.6641 41.3984 28.0703V27.7422C41.3984 27.0547 41.5 26.4427 41.7031 25.9062C41.9062 25.3646 42.1823 24.9062 42.5312 24.5312C42.8802 24.1562 43.276 23.8724 43.7188 23.6797C44.1615 23.487 44.6198 23.3906 45.0938 23.3906C45.6979 23.3906 46.2188 23.4948 46.6562 23.7031C47.099 23.9115 47.4609 24.2031 47.7422 24.5781C48.0234 24.9479 48.2318 25.3854 48.3672 25.8906C48.5026 26.3906 48.5703 26.9375 48.5703 27.5312V28.1797H42.2578V27H47.125V26.8906C47.1042 26.5156 47.026 26.151 46.8906 25.7969C46.7604 25.4427 46.5521 25.151 46.2656 24.9219C45.9792 24.6927 45.5885 24.5781 45.0938 24.5781C44.7656 24.5781 44.4635 24.6484 44.1875 24.7891C43.9115 24.9245 43.6745 25.1276 43.4766 25.3984C43.2786 25.6693 43.125 26 43.0156 26.3906C42.9062 26.7812 42.8516 27.2318 42.8516 27.7422V28.0703C42.8516 28.4714 42.9062 28.849 43.0156 29.2031C43.1302 29.5521 43.2943 29.8594 43.5078 30.125C43.7266 30.3906 43.9896 30.599 44.2969 30.75C44.6094 30.901 44.9635 30.9766 45.3594 30.9766C45.8698 30.9766 46.3021 30.8724 46.6562 30.6641C47.0104 30.4557 47.3203 30.1771 47.5859 29.8281L48.4609 30.5234C48.2786 30.7995 48.0469 31.0625 47.7656 31.3125C47.4844 31.5625 47.138 31.7656 46.7266 31.9219C46.3203 32.0781 45.8385 32.1562 45.2812 32.1562ZM55.1797 29.7578C55.1797 29.5495 55.1328 29.3568 55.0391 29.1797C54.9505 28.9974 54.7656 28.8333 54.4844 28.6875C54.2083 28.5365 53.7917 28.4062 53.2344 28.2969C52.7656 28.1979 52.3411 28.0807 51.9609 27.9453C51.5859 27.8099 51.2656 27.6458 51 27.4531C50.7396 27.2604 50.5391 27.0339 50.3984 26.7734C50.2578 26.513 50.1875 26.2083 50.1875 25.8594C50.1875 25.526 50.2604 25.2109 50.4062 24.9141C50.5573 24.6172 50.7682 24.3542 51.0391 24.125C51.3151 23.8958 51.6458 23.7161 52.0312 23.5859C52.4167 23.4557 52.8464 23.3906 53.3203 23.3906C53.9974 23.3906 54.5755 23.5104 55.0547 23.75C55.5339 23.9896 55.901 24.3099 56.1562 24.7109C56.4115 25.1068 56.5391 25.5469 56.5391 26.0312H55.0938C55.0938 25.7969 55.0234 25.5703 54.8828 25.3516C54.7474 25.1276 54.5469 24.9427 54.2812 24.7969C54.0208 24.651 53.7005 24.5781 53.3203 24.5781C52.9193 24.5781 52.5938 24.6406 52.3438 24.7656C52.099 24.8854 51.9193 25.0391 51.8047 25.2266C51.6953 25.4141 51.6406 25.612 51.6406 25.8203C51.6406 25.9766 51.6667 26.1172 51.7188 26.2422C51.776 26.362 51.875 26.474 52.0156 26.5781C52.1562 26.6771 52.3542 26.7708 52.6094 26.8594C52.8646 26.9479 53.1901 27.0365 53.5859 27.125C54.2786 27.2812 54.849 27.4688 55.2969 27.6875C55.7448 27.9062 56.0781 28.1745 56.2969 28.4922C56.5156 28.8099 56.625 29.1953 56.625 29.6484C56.625 30.0182 56.5469 30.3568 56.3906 30.6641C56.2396 30.9714 56.0182 31.237 55.7266 31.4609C55.4401 31.6797 55.0964 31.8516 54.6953 31.9766C54.2995 32.0964 53.8542 32.1562 53.3594 32.1562C52.6146 32.1562 51.9844 32.0234 51.4688 31.7578C50.9531 31.4922 50.5625 31.1484 50.2969 30.7266C50.0312 30.3047 49.8984 29.8594 49.8984 29.3906H51.3516C51.3724 29.7865 51.487 30.1016 51.6953 30.3359C51.9036 30.5651 52.1589 30.7292 52.4609 30.8281C52.763 30.9219 53.0625 30.9688 53.3594 30.9688C53.7552 30.9688 54.0859 30.9167 54.3516 30.8125C54.6224 30.7083 54.8281 30.5651 54.9688 30.3828C55.1094 30.2005 55.1797 29.9922 55.1797 29.7578Z" fill="black"/>
<path d="M15.5234 42.625V54H14.0391V42.625H15.5234ZM19.1797 42.625V43.8594H10.3906V42.625H19.1797ZM23.375 54.1562C22.7865 54.1562 22.2526 54.0573 21.7734 53.8594C21.2995 53.6562 20.8906 53.3724 20.5469 53.0078C20.2083 52.6432 19.9479 52.2109 19.7656 51.7109C19.5833 51.2109 19.4922 50.6641 19.4922 50.0703V49.7422C19.4922 49.0547 19.5938 48.4427 19.7969 47.9062C20 47.3646 20.276 46.9062 20.625 46.5312C20.974 46.1562 21.3698 45.8724 21.8125 45.6797C22.2552 45.487 22.7135 45.3906 23.1875 45.3906C23.7917 45.3906 24.3125 45.4948 24.75 45.7031C25.1927 45.9115 25.5547 46.2031 25.8359 46.5781C26.1172 46.9479 26.3255 47.3854 26.4609 47.8906C26.5964 48.3906 26.6641 48.9375 26.6641 49.5312V50.1797H20.3516V49H25.2188V48.8906C25.1979 48.5156 25.1198 48.151 24.9844 47.7969C24.8542 47.4427 24.6458 47.151 24.3594 46.9219C24.0729 46.6927 23.6823 46.5781 23.1875 46.5781C22.8594 46.5781 22.5573 46.6484 22.2812 46.7891C22.0052 46.9245 21.7682 47.1276 21.5703 47.3984C21.3724 47.6693 21.2188 48 21.1094 48.3906C21 48.7812 20.9453 49.2318 20.9453 49.7422V50.0703C20.9453 50.4714 21 50.849 21.1094 51.2031C21.224 51.5521 21.388 51.8594 21.6016 52.125C21.8203 52.3906 22.0833 52.599 22.3906 52.75C22.7031 52.901 23.0573 52.9766 23.4531 52.9766C23.9635 52.9766 24.3958 52.8724 24.75 52.6641C25.1042 52.4557 25.4141 52.1771 25.6797 51.8281L26.5547 52.5234C26.3724 52.7995 26.1406 53.0625 25.8594 53.3125C25.5781 53.5625 25.2318 53.7656 24.8203 53.9219C24.4141 54.0781 23.9323 54.1562 23.375 54.1562ZM29.3281 45.5469L31.1797 48.625L33.0547 45.5469H34.75L31.9844 49.7188L34.8359 54H33.1641L31.2109 50.8281L29.2578 54H27.5781L30.4219 49.7188L27.6641 45.5469H29.3281ZM41.2734 52.5547V48.2031C41.2734 47.8698 41.2057 47.5807 41.0703 47.3359C40.9401 47.0859 40.7422 46.8932 40.4766 46.7578C40.2109 46.6224 39.8828 46.5547 39.4922 46.5547C39.1276 46.5547 38.8073 46.6172 38.5312 46.7422C38.2604 46.8672 38.0469 47.0312 37.8906 47.2344C37.7396 47.4375 37.6641 47.6562 37.6641 47.8906H36.2188C36.2188 47.5885 36.2969 47.2891 36.4531 46.9922C36.6094 46.6953 36.8333 46.4271 37.125 46.1875C37.4219 45.9427 37.776 45.75 38.1875 45.6094C38.6042 45.4635 39.0677 45.3906 39.5781 45.3906C40.1927 45.3906 40.7344 45.4948 41.2031 45.7031C41.6771 45.9115 42.0469 46.2266 42.3125 46.6484C42.5833 47.0651 42.7188 47.5885 42.7188 48.2188V52.1562C42.7188 52.4375 42.7422 52.737 42.7891 53.0547C42.8411 53.3724 42.9167 53.6458 43.0156 53.875V54H41.5078C41.4349 53.8333 41.3776 53.612 41.3359 53.3359C41.2943 53.0547 41.2734 52.7943 41.2734 52.5547ZM41.5234 48.875L41.5391 49.8906H40.0781C39.6667 49.8906 39.2995 49.9245 38.9766 49.9922C38.6536 50.0547 38.3828 50.151 38.1641 50.2812C37.9453 50.4115 37.7786 50.5755 37.6641 50.7734C37.5495 50.9661 37.4922 51.1927 37.4922 51.4531C37.4922 51.7188 37.5521 51.9609 37.6719 52.1797C37.7917 52.3984 37.9714 52.5729 38.2109 52.7031C38.4557 52.8281 38.7552 52.8906 39.1094 52.8906C39.5521 52.8906 39.9427 52.7969 40.2812 52.6094C40.6198 52.4219 40.888 52.1927 41.0859 51.9219C41.2891 51.651 41.3984 51.388 41.4141 51.1328L42.0312 51.8281C41.9948 52.0469 41.8958 52.2891 41.7344 52.5547C41.5729 52.8203 41.3568 53.0755 41.0859 53.3203C40.8203 53.5599 40.5026 53.7604 40.1328 53.9219C39.7682 54.0781 39.3568 54.1562 38.8984 54.1562C38.3255 54.1562 37.8229 54.0443 37.3906 53.8203C36.9635 53.5964 36.6302 53.2969 36.3906 52.9219C36.1562 52.5417 36.0391 52.1172 36.0391 51.6484C36.0391 51.1953 36.1276 50.7969 36.3047 50.4531C36.4818 50.1042 36.737 49.8151 37.0703 49.5859C37.4036 49.3516 37.8047 49.1745 38.2734 49.0547C38.7422 48.9349 39.2656 48.875 39.8438 48.875H41.5234ZM49.9141 51.7578C49.9141 51.5495 49.8672 51.3568 49.7734 51.1797C49.6849 50.9974 49.5 50.8333 49.2188 50.6875C48.9427 50.5365 48.526 50.4062 47.9688 50.2969C47.5 50.1979 47.0755 50.0807 46.6953 49.9453C46.3203 49.8099 46 49.6458 45.7344 49.4531C45.474 49.2604 45.2734 49.0339 45.1328 48.7734C44.9922 48.513 44.9219 48.2083 44.9219 47.8594C44.9219 47.526 44.9948 47.2109 45.1406 46.9141C45.2917 46.6172 45.5026 46.3542 45.7734 46.125C46.0495 45.8958 46.3802 45.7161 46.7656 45.5859C47.151 45.4557 47.5807 45.3906 48.0547 45.3906C48.7318 45.3906 49.3099 45.5104 49.7891 45.75C50.2682 45.9896 50.6354 46.3099 50.8906 46.7109C51.1458 47.1068 51.2734 47.5469 51.2734 48.0312H49.8281C49.8281 47.7969 49.7578 47.5703 49.6172 47.3516C49.4818 47.1276 49.2812 46.9427 49.0156 46.7969C48.7552 46.651 48.4349 46.5781 48.0547 46.5781C47.6536 46.5781 47.3281 46.6406 47.0781 46.7656C46.8333 46.8854 46.6536 47.0391 46.5391 47.2266C46.4297 47.4141 46.375 47.612 46.375 47.8203C46.375 47.9766 46.401 48.1172 46.4531 48.2422C46.5104 48.362 46.6094 48.474 46.75 48.5781C46.8906 48.6771 47.0885 48.7708 47.3438 48.8594C47.599 48.9479 47.9245 49.0365 48.3203 49.125C49.013 49.2812 49.5833 49.4688 50.0312 49.6875C50.4792 49.9062 50.8125 50.1745 51.0312 50.4922C51.25 50.8099 51.3594 51.1953 51.3594 51.6484C51.3594 52.0182 51.2812 52.3568 51.125 52.6641C50.974 52.9714 50.7526 53.237 50.4609 53.4609C50.1745 53.6797 49.8307 53.8516 49.4297 53.9766C49.0339 54.0964 48.5885 54.1562 48.0938 54.1562C47.349 54.1562 46.7188 54.0234 46.2031 53.7578C45.6875 53.4922 45.2969 53.1484 45.0312 52.7266C44.7656 52.3047 44.6328 51.8594 44.6328 51.3906H46.0859C46.1068 51.7865 46.2214 52.1016 46.4297 52.3359C46.638 52.5651 46.8932 52.7292 47.1953 52.8281C47.4974 52.9219 47.7969 52.9688 48.0938 52.9688C48.4896 52.9688 48.8203 52.9167 49.0859 52.8125C49.3568 52.7083 49.5625 52.5651 49.7031 52.3828C49.8438 52.2005 49.9141 51.9922 49.9141 51.7578ZM54.5703 52.2812V53.4453C54.5703 53.9193 54.4505 54.4193 54.2109 54.9453C53.9714 55.4766 53.6354 55.9193 53.2031 56.2734L52.3828 55.7031C52.5495 55.474 52.6901 55.2396 52.8047 55C52.9193 54.7656 53.0052 54.5208 53.0625 54.2656C53.125 54.0156 53.1562 53.75 53.1562 53.4688V52.2812H54.5703ZM67.1094 42.625H68.6094V50.3203C68.6094 51.1745 68.4193 51.8854 68.0391 52.4531C67.6589 53.0208 67.1536 53.4479 66.5234 53.7344C65.8984 54.0156 65.2188 54.1562 64.4844 54.1562C63.7135 54.1562 63.0156 54.0156 62.3906 53.7344C61.7708 53.4479 61.2786 53.0208 60.9141 52.4531C60.5547 51.8854 60.375 51.1745 60.375 50.3203V42.625H61.8672V50.3203C61.8672 50.9141 61.9766 51.4036 62.1953 51.7891C62.4141 52.1745 62.7188 52.4609 63.1094 52.6484C63.5052 52.8359 63.9635 52.9297 64.4844 52.9297C65.0104 52.9297 65.4688 52.8359 65.8594 52.6484C66.2552 52.4609 66.5625 52.1745 66.7812 51.7891C67 51.4036 67.1094 50.9141 67.1094 50.3203V42.625ZM77.0391 51.125C77.0391 50.8594 76.9974 50.625 76.9141 50.4219C76.8359 50.2135 76.6953 50.026 76.4922 49.8594C76.2943 49.6927 76.0182 49.5339 75.6641 49.3828C75.3151 49.2318 74.8724 49.0781 74.3359 48.9219C73.7734 48.7552 73.2656 48.5703 72.8125 48.3672C72.3594 48.1589 71.9714 47.9219 71.6484 47.6562C71.3255 47.3906 71.0781 47.0859 70.9062 46.7422C70.7344 46.3984 70.6484 46.0052 70.6484 45.5625C70.6484 45.1198 70.7396 44.7109 70.9219 44.3359C71.1042 43.9609 71.3646 43.6354 71.7031 43.3594C72.0469 43.0781 72.4557 42.8594 72.9297 42.7031C73.4036 42.5469 73.9323 42.4688 74.5156 42.4688C75.3698 42.4688 76.0938 42.6328 76.6875 42.9609C77.2865 43.2839 77.7422 43.7083 78.0547 44.2344C78.3672 44.7552 78.5234 45.3125 78.5234 45.9062H77.0234C77.0234 45.4792 76.9323 45.1016 76.75 44.7734C76.5677 44.4401 76.2917 44.1797 75.9219 43.9922C75.5521 43.7995 75.0833 43.7031 74.5156 43.7031C73.9792 43.7031 73.5365 43.7839 73.1875 43.9453C72.8385 44.1068 72.5781 44.3255 72.4062 44.6016C72.2396 44.8776 72.1562 45.1927 72.1562 45.5469C72.1562 45.7865 72.2057 46.0052 72.3047 46.2031C72.4089 46.3958 72.5677 46.5755 72.7812 46.7422C73 46.9089 73.276 47.0625 73.6094 47.2031C73.9479 47.3438 74.3516 47.4792 74.8203 47.6094C75.4661 47.7917 76.0234 47.9948 76.4922 48.2188C76.9609 48.4427 77.3464 48.6953 77.6484 48.9766C77.9557 49.2526 78.1823 49.5677 78.3281 49.9219C78.4792 50.2708 78.5547 50.6667 78.5547 51.1094C78.5547 51.5729 78.4609 51.9922 78.2734 52.3672C78.0859 52.7422 77.8177 53.0625 77.4688 53.3281C77.1198 53.5938 76.7005 53.7995 76.2109 53.9453C75.7266 54.0859 75.1849 54.1562 74.5859 54.1562C74.0599 54.1562 73.5417 54.0833 73.0312 53.9375C72.526 53.7917 72.0651 53.5729 71.6484 53.2812C71.237 52.9896 70.9062 52.6302 70.6562 52.2031C70.4115 51.7708 70.2891 51.2708 70.2891 50.7031H71.7891C71.7891 51.0938 71.8646 51.4297 72.0156 51.7109C72.1667 51.987 72.3724 52.2161 72.6328 52.3984C72.8984 52.5807 73.1979 52.7161 73.5312 52.8047C73.8698 52.888 74.2214 52.9297 74.5859 52.9297C75.112 52.9297 75.5573 52.8568 75.9219 52.7109C76.2865 52.5651 76.5625 52.3568 76.75 52.0859C76.9427 51.8151 77.0391 51.4948 77.0391 51.125ZM84.6875 43.6328L80.9219 54H79.3828L83.7188 42.625H84.7109L84.6875 43.6328ZM87.8438 54L84.0703 43.6328L84.0469 42.625H85.0391L89.3906 54H87.8438ZM87.6484 49.7891V51.0234H81.2578V49.7891H87.6484Z" fill="black"/>
</svg>
