<svg width="160" height="117" viewBox="0 0 160 117" fill="none" xmlns="http://www.w3.org/2000/svg">
<mask id="path-1-inside-1_52132_696" fill="white">
<path fill-rule="evenodd" clip-rule="evenodd" d="M59.6201 8.19008L55.2578 0L50.8382 8.19008H5C2.23858 8.19008 0 10.4286 0 13.1901V112C0 114.761 2.23857 117 4.99999 117H154.113C156.874 117 159.113 114.762 159.113 112V13.1901C159.113 10.4287 156.874 8.19008 154.113 8.19008H59.6201Z"/>
</mask>
<path fill-rule="evenodd" clip-rule="evenodd" d="M59.6201 8.19008L55.2578 0L50.8382 8.19008H5C2.23858 8.19008 0 10.4286 0 13.1901V112C0 114.761 2.23857 117 4.99999 117H154.113C156.874 117 159.113 114.762 159.113 112V13.1901C159.113 10.4287 156.874 8.19008 154.113 8.19008H59.6201Z" fill="white"/>
<path d="M55.2578 0L56.1404 -0.470106L55.2636 -2.11637L54.3778 -0.474902L55.2578 0ZM59.6201 8.19008L58.7375 8.66018L59.0198 9.19008H59.6201V8.19008ZM50.8382 8.19008V9.19008H51.4348L51.7182 8.66498L50.8382 8.19008ZM54.3752 0.470106L58.7375 8.66018L60.5027 7.71997L56.1404 -0.470106L54.3752 0.470106ZM51.7182 8.66498L56.1379 0.474902L54.3778 -0.474902L49.9581 7.71518L51.7182 8.66498ZM5 9.19008H50.8382V7.19008H5V9.19008ZM1 13.1901C1 10.9809 2.79086 9.19008 5 9.19008V7.19008C1.68629 7.19008 -1 9.87636 -1 13.1901H1ZM1 112V13.1901H-1V112H1ZM4.99999 116C2.79086 116 1 114.209 1 112H-1C-1 115.314 1.68628 118 4.99999 118V116ZM154.113 116H4.99999V118H154.113V116ZM158.113 112C158.113 114.209 156.322 116 154.113 116V118C157.426 118 160.113 115.314 160.113 112H158.113ZM158.113 13.1901V112H160.113V13.1901H158.113ZM154.113 9.19008C156.322 9.19008 158.113 10.9809 158.113 13.1901H160.113C160.113 9.87637 157.426 7.19008 154.113 7.19008V9.19008ZM59.6201 9.19008H154.113V7.19008H59.6201V9.19008Z" fill="black" mask="url(#path-1-inside-1_52132_696)"/>
<rect x="11.1268" y="71" width="135.746" height="31" rx="5" fill="#F1F3F2"/>
<path d="M31.7736 87.5518L31.9923 89.0518L32.3126 87.7002L34.5626 79.7627H35.8282L38.0236 87.7002L38.3361 89.0752L38.5782 87.5439L40.3439 79.7627H41.8517L39.0939 91.1377H37.7267L35.3829 82.8486L35.2032 81.9814L35.0236 82.8486L32.5939 91.1377H31.2267L28.4767 79.7627H29.9767L31.7736 87.5518ZM44.7423 83.708C45.3829 82.9215 46.2163 82.5283 47.2423 82.5283C49.0288 82.5283 49.9298 83.5361 49.9454 85.5518V91.1377H48.5001V85.5439C48.4949 84.9346 48.3543 84.484 48.0782 84.1924C47.8074 83.9007 47.3829 83.7549 46.8048 83.7549C46.3361 83.7549 45.9246 83.8799 45.5704 84.1299C45.2163 84.3799 44.9402 84.708 44.7423 85.1143V91.1377H43.297V79.1377H44.7423V83.708ZM57.3282 91.1377C57.2449 90.971 57.1772 90.6742 57.1251 90.2471C56.4532 90.945 55.6512 91.2939 54.7189 91.2939C53.8855 91.2939 53.2006 91.0596 52.6642 90.5908C52.1329 90.1169 51.8673 89.5179 51.8673 88.7939C51.8673 87.9137 52.2006 87.2314 52.8673 86.7471C53.5392 86.2575 54.4819 86.0127 55.6954 86.0127H57.1017V85.3486C57.1017 84.8434 56.9506 84.4424 56.6486 84.1455C56.3465 83.8434 55.9012 83.6924 55.3126 83.6924C54.797 83.6924 54.3647 83.8226 54.0157 84.083C53.6668 84.3434 53.4923 84.6585 53.4923 85.0283H52.0392C52.0392 84.6064 52.1876 84.2002 52.4845 83.8096C52.7866 83.4137 53.1928 83.1012 53.7032 82.8721C54.2189 82.6429 54.784 82.5283 55.3986 82.5283C56.3725 82.5283 57.1355 82.7731 57.6876 83.2627C58.2397 83.7471 58.5262 84.4163 58.547 85.2705V89.1611C58.547 89.9372 58.646 90.5544 58.8439 91.0127V91.1377H57.3282ZM54.9298 90.0361C55.3829 90.0361 55.8126 89.9189 56.2189 89.6846C56.6251 89.4502 56.9194 89.1455 57.1017 88.7705V87.0361H55.9689C54.198 87.0361 53.3126 87.5544 53.3126 88.5908C53.3126 89.0439 53.4637 89.3981 53.7657 89.6533C54.0678 89.9085 54.4559 90.0361 54.9298 90.0361ZM62.7736 80.6377V82.6846H64.3517V83.8018H62.7736V89.0439C62.7736 89.3825 62.8439 89.6377 62.9845 89.8096C63.1251 89.9762 63.3647 90.0596 63.7032 90.0596C63.8699 90.0596 64.0991 90.0283 64.3907 89.9658V91.1377C64.0105 91.2419 63.6407 91.2939 63.2814 91.2939C62.6355 91.2939 62.1486 91.0986 61.8204 90.708C61.4923 90.3174 61.3282 89.7627 61.3282 89.0439V83.8018H59.7892V82.6846H61.3282V80.6377H62.7736ZM69.4376 90.1143C69.9532 90.1143 70.4038 89.958 70.7892 89.6455C71.1746 89.333 71.3881 88.9424 71.4298 88.4736H72.797C72.771 88.958 72.6043 89.4189 72.297 89.8564C71.9897 90.2939 71.5782 90.6429 71.0626 90.9033C70.5522 91.1637 70.0105 91.2939 69.4376 91.2939C68.2866 91.2939 67.3699 90.9111 66.6876 90.1455C66.0105 89.3747 65.672 88.3226 65.672 86.9893V86.7471C65.672 85.9242 65.823 85.1924 66.1251 84.5518C66.4272 83.9111 66.8595 83.4137 67.422 83.0596C67.9897 82.7054 68.659 82.5283 69.4298 82.5283C70.3777 82.5283 71.1642 82.8122 71.7892 83.3799C72.4194 83.9476 72.7553 84.6846 72.797 85.5908H71.4298C71.3881 85.0439 71.1798 84.596 70.8048 84.2471C70.435 83.8929 69.9767 83.7158 69.4298 83.7158C68.6954 83.7158 68.1251 83.9814 67.7189 84.5127C67.3178 85.0387 67.1173 85.8018 67.1173 86.8018V87.0752C67.1173 88.0492 67.3178 88.7992 67.7189 89.3252C68.1199 89.8512 68.6928 90.1143 69.4376 90.1143ZM75.8673 83.708C76.5079 82.9215 77.3413 82.5283 78.3673 82.5283C80.1538 82.5283 81.0548 83.5361 81.0704 85.5518V91.1377H79.6251V85.5439C79.6199 84.9346 79.4793 84.484 79.2032 84.1924C78.9324 83.9007 78.5079 83.7549 77.9298 83.7549C77.4611 83.7549 77.0496 83.8799 76.6954 84.1299C76.3413 84.3799 76.0652 84.708 75.8673 85.1143V91.1377H74.422V79.1377H75.8673V83.708ZM86.8204 86.833C86.8204 86.0049 86.9819 85.2601 87.3048 84.5986C87.6329 83.9372 88.0861 83.4268 88.6642 83.0674C89.2475 82.708 89.9116 82.5283 90.6564 82.5283C91.8074 82.5283 92.7371 82.9268 93.4454 83.7236C94.159 84.5205 94.5157 85.5804 94.5157 86.9033V87.0049C94.5157 87.8278 94.3569 88.5674 94.0392 89.2236C93.7267 89.8747 93.2762 90.3825 92.6876 90.7471C92.1043 91.1117 91.4324 91.2939 90.672 91.2939C89.5262 91.2939 88.5965 90.8955 87.8829 90.0986C87.1746 89.3018 86.8204 88.2471 86.8204 86.9346V86.833ZM88.2736 87.0049C88.2736 87.9424 88.4897 88.695 88.922 89.2627C89.3595 89.8304 89.9428 90.1143 90.672 90.1143C91.4064 90.1143 91.9897 89.8278 92.422 89.2549C92.8543 88.6768 93.0704 87.8695 93.0704 86.833C93.0704 85.9059 92.8491 85.1559 92.4064 84.583C91.9689 84.0049 91.3855 83.7158 90.6564 83.7158C89.9428 83.7158 89.3673 83.9997 88.9298 84.5674C88.4923 85.1351 88.2736 85.9476 88.2736 87.0049ZM97.6954 82.6846L97.7423 83.7471C98.3881 82.9346 99.2319 82.5283 100.274 82.5283C102.06 82.5283 102.961 83.5361 102.977 85.5518V91.1377H101.531V85.5439C101.526 84.9346 101.386 84.484 101.109 84.1924C100.839 83.9007 100.414 83.7549 99.8361 83.7549C99.3673 83.7549 98.9559 83.8799 98.6017 84.1299C98.2475 84.3799 97.9715 84.708 97.7736 85.1143V91.1377H96.3282V82.6846H97.6954ZM106.727 91.1377H105.281V79.1377H106.727V91.1377ZM110.617 91.1377H109.172V82.6846H110.617V91.1377ZM109.055 80.4424C109.055 80.208 109.125 80.0101 109.266 79.8486C109.412 79.6872 109.625 79.6064 109.906 79.6064C110.188 79.6064 110.401 79.6872 110.547 79.8486C110.693 80.0101 110.766 80.208 110.766 80.4424C110.766 80.6768 110.693 80.8721 110.547 81.0283C110.401 81.1846 110.188 81.2627 109.906 81.2627C109.625 81.2627 109.412 81.1846 109.266 81.0283C109.125 80.8721 109.055 80.6768 109.055 80.4424ZM114.305 82.6846L114.352 83.7471C114.998 82.9346 115.841 82.5283 116.883 82.5283C118.669 82.5283 119.57 83.5361 119.586 85.5518V91.1377H118.141V85.5439C118.136 84.9346 117.995 84.484 117.719 84.1924C117.448 83.9007 117.024 83.7549 116.445 83.7549C115.977 83.7549 115.565 83.8799 115.211 84.1299C114.857 84.3799 114.581 84.708 114.383 85.1143V91.1377H112.938V82.6846H114.305ZM125.274 91.2939C124.128 91.2939 123.195 90.9189 122.477 90.1689C121.758 89.4137 121.399 88.4059 121.399 87.1455V86.8799C121.399 86.0413 121.557 85.2939 121.875 84.6377C122.198 83.9762 122.646 83.4606 123.219 83.0908C123.797 82.7158 124.422 82.5283 125.094 82.5283C126.193 82.5283 127.047 82.8903 127.656 83.6143C128.266 84.3382 128.57 85.3747 128.57 86.7236V87.3252H122.844C122.865 88.1585 123.107 88.833 123.57 89.3486C124.039 89.859 124.633 90.1143 125.352 90.1143C125.862 90.1143 126.294 90.0101 126.649 89.8018C127.003 89.5934 127.313 89.3174 127.578 88.9736L128.461 89.6611C127.753 90.7497 126.69 91.2939 125.274 91.2939ZM125.094 83.7158C124.511 83.7158 124.021 83.9294 123.625 84.3564C123.229 84.7783 122.984 85.3721 122.891 86.1377H127.125V86.0283C127.083 85.2939 126.886 84.7262 126.531 84.3252C126.177 83.9189 125.698 83.7158 125.094 83.7158Z" fill="#4B9200"/>
<path d="M19.7266 26.3359V30.5C19.5859 30.7083 19.362 30.9427 19.0547 31.2031C18.7474 31.4583 18.3229 31.6823 17.7812 31.875C17.2448 32.0625 16.5521 32.1562 15.7031 32.1562C15.0104 32.1562 14.3724 32.0365 13.7891 31.7969C13.2109 31.5521 12.7083 31.1979 12.2812 30.7344C11.8594 30.2656 11.5312 29.6979 11.2969 29.0312C11.0677 28.3594 10.9531 27.599 10.9531 26.75V25.8672C10.9531 25.0182 11.0521 24.2604 11.25 23.5938C11.4531 22.9271 11.75 22.362 12.1406 21.8984C12.5312 21.4297 13.0104 21.0755 13.5781 20.8359C14.1458 20.5911 14.7969 20.4688 15.5312 20.4688C16.401 20.4688 17.1276 20.6198 17.7109 20.9219C18.2995 21.2188 18.7578 21.6302 19.0859 22.1562C19.4193 22.6823 19.6328 23.2812 19.7266 23.9531H18.2188C18.151 23.5417 18.0156 23.1667 17.8125 22.8281C17.6146 22.4896 17.3307 22.2188 16.9609 22.0156C16.5911 21.8073 16.1146 21.7031 15.5312 21.7031C15.0052 21.7031 14.5495 21.7995 14.1641 21.9922C13.7786 22.1849 13.4609 22.4609 13.2109 22.8203C12.9609 23.1797 12.7734 23.6146 12.6484 24.125C12.5286 24.6354 12.4688 25.2109 12.4688 25.8516V26.75C12.4688 27.4062 12.5443 27.9922 12.6953 28.5078C12.8516 29.0234 13.0729 29.4635 13.3594 29.8281C13.6458 30.1875 13.987 30.4609 14.3828 30.6484C14.7839 30.8359 15.2266 30.9297 15.7109 30.9297C16.2474 30.9297 16.6823 30.8854 17.0156 30.7969C17.349 30.7031 17.6094 30.5938 17.7969 30.4688C17.9844 30.3385 18.1276 30.2161 18.2266 30.1016V27.5547H15.5938V26.3359H19.7266ZM21.625 27.8672V27.6875C21.625 27.0781 21.7135 26.513 21.8906 25.9922C22.0677 25.4661 22.3229 25.0104 22.6562 24.625C22.9896 24.2344 23.3932 23.9323 23.8672 23.7188C24.3411 23.5 24.8724 23.3906 25.4609 23.3906C26.0547 23.3906 26.5885 23.5 27.0625 23.7188C27.5417 23.9323 27.9479 24.2344 28.2812 24.625C28.6198 25.0104 28.8776 25.4661 29.0547 25.9922C29.2318 26.513 29.3203 27.0781 29.3203 27.6875V27.8672C29.3203 28.4766 29.2318 29.0417 29.0547 29.5625C28.8776 30.0833 28.6198 30.5391 28.2812 30.9297C27.9479 31.3151 27.5443 31.6172 27.0703 31.8359C26.6016 32.0495 26.0703 32.1562 25.4766 32.1562C24.8828 32.1562 24.349 32.0495 23.875 31.8359C23.401 31.6172 22.9948 31.3151 22.6562 30.9297C22.3229 30.5391 22.0677 30.0833 21.8906 29.5625C21.7135 29.0417 21.625 28.4766 21.625 27.8672ZM23.0703 27.6875V27.8672C23.0703 28.2891 23.1198 28.6875 23.2188 29.0625C23.3177 29.4323 23.4661 29.7604 23.6641 30.0469C23.8672 30.3333 24.1198 30.5599 24.4219 30.7266C24.724 30.888 25.0755 30.9688 25.4766 30.9688C25.8724 30.9688 26.2188 30.888 26.5156 30.7266C26.8177 30.5599 27.0677 30.3333 27.2656 30.0469C27.4635 29.7604 27.612 29.4323 27.7109 29.0625C27.8151 28.6875 27.8672 28.2891 27.8672 27.8672V27.6875C27.8672 27.2708 27.8151 26.8776 27.7109 26.5078C27.612 26.1328 27.4609 25.8021 27.2578 25.5156C27.0599 25.224 26.8099 24.9948 26.5078 24.8281C26.2109 24.6615 25.862 24.5781 25.4609 24.5781C25.0651 24.5781 24.7161 24.6615 24.4141 24.8281C24.1172 24.9948 23.8672 25.224 23.6641 25.5156C23.4661 25.8021 23.3177 26.1328 23.2188 26.5078C23.1198 26.8776 23.0703 27.2708 23.0703 27.6875ZM32.5781 24.875V32H31.1328V23.5469H32.5391L32.5781 24.875ZM35.2188 23.5L35.2109 24.8438C35.0911 24.8177 34.9766 24.8021 34.8672 24.7969C34.763 24.7865 34.6432 24.7812 34.5078 24.7812C34.1745 24.7812 33.8802 24.8333 33.625 24.9375C33.3698 25.0417 33.1536 25.1875 32.9766 25.375C32.7995 25.5625 32.6589 25.7865 32.5547 26.0469C32.4557 26.3021 32.3906 26.5833 32.3594 26.8906L31.9531 27.125C31.9531 26.6146 32.0026 26.1354 32.1016 25.6875C32.2057 25.2396 32.3646 24.8438 32.5781 24.5C32.7917 24.151 33.0625 23.8802 33.3906 23.6875C33.724 23.4896 34.1198 23.3906 34.5781 23.3906C34.6823 23.3906 34.8021 23.4036 34.9375 23.4297C35.0729 23.4505 35.1667 23.474 35.2188 23.5ZM38.125 23.5469V32H36.6719V23.5469H38.125ZM36.5625 21.3047C36.5625 21.0703 36.6328 20.8724 36.7734 20.7109C36.9193 20.5495 37.1328 20.4688 37.4141 20.4688C37.6901 20.4688 37.901 20.5495 38.0469 20.7109C38.1979 20.8724 38.2734 21.0703 38.2734 21.3047C38.2734 21.5286 38.1979 21.7214 38.0469 21.8828C37.901 22.0391 37.6901 22.1172 37.4141 22.1172C37.1328 22.1172 36.9193 22.0391 36.7734 21.8828C36.6328 21.7214 36.5625 21.5286 36.5625 21.3047ZM42.0156 20V32H40.5625V20H42.0156ZM45.9062 20V32H44.4531V20H45.9062ZM53.2109 30.5547V26.2031C53.2109 25.8698 53.1432 25.5807 53.0078 25.3359C52.8776 25.0859 52.6797 24.8932 52.4141 24.7578C52.1484 24.6224 51.8203 24.5547 51.4297 24.5547C51.0651 24.5547 50.7448 24.6172 50.4688 24.7422C50.1979 24.8672 49.9844 25.0312 49.8281 25.2344C49.6771 25.4375 49.6016 25.6562 49.6016 25.8906H48.1562C48.1562 25.5885 48.2344 25.2891 48.3906 24.9922C48.5469 24.6953 48.7708 24.4271 49.0625 24.1875C49.3594 23.9427 49.7135 23.75 50.125 23.6094C50.5417 23.4635 51.0052 23.3906 51.5156 23.3906C52.1302 23.3906 52.6719 23.4948 53.1406 23.7031C53.6146 23.9115 53.9844 24.2266 54.25 24.6484C54.5208 25.0651 54.6562 25.5885 54.6562 26.2188V30.1562C54.6562 30.4375 54.6797 30.737 54.7266 31.0547C54.7786 31.3724 54.8542 31.6458 54.9531 31.875V32H53.4453C53.3724 31.8333 53.3151 31.612 53.2734 31.3359C53.2318 31.0547 53.2109 30.7943 53.2109 30.5547ZM53.4609 26.875L53.4766 27.8906H52.0156C51.6042 27.8906 51.237 27.9245 50.9141 27.9922C50.5911 28.0547 50.3203 28.151 50.1016 28.2812C49.8828 28.4115 49.7161 28.5755 49.6016 28.7734C49.487 28.9661 49.4297 29.1927 49.4297 29.4531C49.4297 29.7188 49.4896 29.9609 49.6094 30.1797C49.7292 30.3984 49.9089 30.5729 50.1484 30.7031C50.3932 30.8281 50.6927 30.8906 51.0469 30.8906C51.4896 30.8906 51.8802 30.7969 52.2188 30.6094C52.5573 30.4219 52.8255 30.1927 53.0234 29.9219C53.2266 29.651 53.3359 29.388 53.3516 29.1328L53.9688 29.8281C53.9323 30.0469 53.8333 30.2891 53.6719 30.5547C53.5104 30.8203 53.2943 31.0755 53.0234 31.3203C52.7578 31.5599 52.4401 31.7604 52.0703 31.9219C51.7057 32.0781 51.2943 32.1562 50.8359 32.1562C50.263 32.1562 49.7604 32.0443 49.3281 31.8203C48.901 31.5964 48.5677 31.2969 48.3281 30.9219C48.0938 30.5417 47.9766 30.1172 47.9766 29.6484C47.9766 29.1953 48.0651 28.7969 48.2422 28.4531C48.4193 28.1042 48.6745 27.8151 49.0078 27.5859C49.3411 27.3516 49.7422 27.1745 50.2109 27.0547C50.6797 26.9349 51.2031 26.875 51.7812 26.875H53.4609ZM61.8516 29.7578C61.8516 29.5495 61.8047 29.3568 61.7109 29.1797C61.6224 28.9974 61.4375 28.8333 61.1562 28.6875C60.8802 28.5365 60.4635 28.4062 59.9062 28.2969C59.4375 28.1979 59.013 28.0807 58.6328 27.9453C58.2578 27.8099 57.9375 27.6458 57.6719 27.4531C57.4115 27.2604 57.2109 27.0339 57.0703 26.7734C56.9297 26.513 56.8594 26.2083 56.8594 25.8594C56.8594 25.526 56.9323 25.2109 57.0781 24.9141C57.2292 24.6172 57.4401 24.3542 57.7109 24.125C57.987 23.8958 58.3177 23.7161 58.7031 23.5859C59.0885 23.4557 59.5182 23.3906 59.9922 23.3906C60.6693 23.3906 61.2474 23.5104 61.7266 23.75C62.2057 23.9896 62.5729 24.3099 62.8281 24.7109C63.0833 25.1068 63.2109 25.5469 63.2109 26.0312H61.7656C61.7656 25.7969 61.6953 25.5703 61.5547 25.3516C61.4193 25.1276 61.2188 24.9427 60.9531 24.7969C60.6927 24.651 60.3724 24.5781 59.9922 24.5781C59.5911 24.5781 59.2656 24.6406 59.0156 24.7656C58.7708 24.8854 58.5911 25.0391 58.4766 25.2266C58.3672 25.4141 58.3125 25.612 58.3125 25.8203C58.3125 25.9766 58.3385 26.1172 58.3906 26.2422C58.4479 26.362 58.5469 26.474 58.6875 26.5781C58.8281 26.6771 59.026 26.7708 59.2812 26.8594C59.5365 26.9479 59.862 27.0365 60.2578 27.125C60.9505 27.2812 61.5208 27.4688 61.9688 27.6875C62.4167 27.9062 62.75 28.1745 62.9688 28.4922C63.1875 28.8099 63.2969 29.1953 63.2969 29.6484C63.2969 30.0182 63.2188 30.3568 63.0625 30.6641C62.9115 30.9714 62.6901 31.237 62.3984 31.4609C62.112 31.6797 61.7682 31.8516 61.3672 31.9766C60.9714 32.0964 60.526 32.1562 60.0312 32.1562C59.2865 32.1562 58.6562 32.0234 58.1406 31.7578C57.625 31.4922 57.2344 31.1484 56.9688 30.7266C56.7031 30.3047 56.5703 29.8594 56.5703 29.3906H58.0234C58.0443 29.7865 58.1589 30.1016 58.3672 30.3359C58.5755 30.5651 58.8307 30.7292 59.1328 30.8281C59.4349 30.9219 59.7344 30.9688 60.0312 30.9688C60.4271 30.9688 60.7578 30.9167 61.0234 30.8125C61.2943 30.7083 61.5 30.5651 61.6406 30.3828C61.7812 30.2005 61.8516 29.9922 61.8516 29.7578Z" fill="black"/>
<path d="M18.1875 50.3828H19.6875C19.6094 51.1016 19.4036 51.7448 19.0703 52.3125C18.737 52.8802 18.2656 53.3307 17.6562 53.6641C17.0469 53.9922 16.2865 54.1562 15.375 54.1562C14.7083 54.1562 14.1016 54.0312 13.5547 53.7812C13.013 53.5312 12.5469 53.1771 12.1562 52.7188C11.7656 52.2552 11.4635 51.7005 11.25 51.0547C11.0417 50.4036 10.9375 49.6797 10.9375 48.8828V47.75C10.9375 46.9531 11.0417 46.2318 11.25 45.5859C11.4635 44.9349 11.7682 44.3776 12.1641 43.9141C12.5651 43.4505 13.0469 43.0938 13.6094 42.8438C14.1719 42.5938 14.8047 42.4688 15.5078 42.4688C16.3672 42.4688 17.0938 42.6302 17.6875 42.9531C18.2812 43.276 18.7422 43.724 19.0703 44.2969C19.4036 44.8646 19.6094 45.5234 19.6875 46.2734H18.1875C18.1146 45.7422 17.9792 45.2865 17.7812 44.9062C17.5833 44.5208 17.3021 44.224 16.9375 44.0156C16.5729 43.8073 16.0964 43.7031 15.5078 43.7031C15.0026 43.7031 14.5573 43.7995 14.1719 43.9922C13.7917 44.1849 13.4714 44.4583 13.2109 44.8125C12.9557 45.1667 12.763 45.5911 12.6328 46.0859C12.5026 46.5807 12.4375 47.1302 12.4375 47.7344V48.8828C12.4375 49.4401 12.4948 49.9635 12.6094 50.4531C12.7292 50.9427 12.9089 51.3724 13.1484 51.7422C13.388 52.112 13.6927 52.4036 14.0625 52.6172C14.4323 52.8255 14.8698 52.9297 15.375 52.9297C16.0156 52.9297 16.526 52.8281 16.9062 52.625C17.2865 52.4219 17.5729 52.1302 17.7656 51.75C17.9635 51.3698 18.1042 50.9141 18.1875 50.3828ZM21.1406 49.8672V49.6875C21.1406 49.0781 21.2292 48.513 21.4062 47.9922C21.5833 47.4661 21.8385 47.0104 22.1719 46.625C22.5052 46.2344 22.9089 45.9323 23.3828 45.7188C23.8568 45.5 24.388 45.3906 24.9766 45.3906C25.5703 45.3906 26.1042 45.5 26.5781 45.7188C27.0573 45.9323 27.4635 46.2344 27.7969 46.625C28.1354 47.0104 28.3932 47.4661 28.5703 47.9922C28.7474 48.513 28.8359 49.0781 28.8359 49.6875V49.8672C28.8359 50.4766 28.7474 51.0417 28.5703 51.5625C28.3932 52.0833 28.1354 52.5391 27.7969 52.9297C27.4635 53.3151 27.0599 53.6172 26.5859 53.8359C26.1172 54.0495 25.5859 54.1562 24.9922 54.1562C24.3984 54.1562 23.8646 54.0495 23.3906 53.8359C22.9167 53.6172 22.5104 53.3151 22.1719 52.9297C21.8385 52.5391 21.5833 52.0833 21.4062 51.5625C21.2292 51.0417 21.1406 50.4766 21.1406 49.8672ZM22.5859 49.6875V49.8672C22.5859 50.2891 22.6354 50.6875 22.7344 51.0625C22.8333 51.4323 22.9818 51.7604 23.1797 52.0469C23.3828 52.3333 23.6354 52.5599 23.9375 52.7266C24.2396 52.888 24.5911 52.9688 24.9922 52.9688C25.388 52.9688 25.7344 52.888 26.0312 52.7266C26.3333 52.5599 26.5833 52.3333 26.7812 52.0469C26.9792 51.7604 27.1276 51.4323 27.2266 51.0625C27.3307 50.6875 27.3828 50.2891 27.3828 49.8672V49.6875C27.3828 49.2708 27.3307 48.8776 27.2266 48.5078C27.1276 48.1328 26.9766 47.8021 26.7734 47.5156C26.5755 47.224 26.3255 46.9948 26.0234 46.8281C25.7266 46.6615 25.3776 46.5781 24.9766 46.5781C24.5807 46.5781 24.2318 46.6615 23.9297 46.8281C23.6328 46.9948 23.3828 47.224 23.1797 47.5156C22.9818 47.8021 22.8333 48.1328 22.7344 48.5078C22.6354 48.8776 22.5859 49.2708 22.5859 49.6875ZM32.0938 47.3516V54H30.6484V45.5469H32.0156L32.0938 47.3516ZM31.75 49.4531L31.1484 49.4297C31.1536 48.8516 31.2396 48.3177 31.4062 47.8281C31.5729 47.3333 31.8073 46.9036 32.1094 46.5391C32.4115 46.1745 32.7708 45.8932 33.1875 45.6953C33.6094 45.4922 34.0755 45.3906 34.5859 45.3906C35.0026 45.3906 35.3776 45.4479 35.7109 45.5625C36.0443 45.6719 36.3281 45.849 36.5625 46.0938C36.8021 46.3385 36.9844 46.6562 37.1094 47.0469C37.2344 47.4323 37.2969 47.9036 37.2969 48.4609V54H35.8438V48.4453C35.8438 48.0026 35.7786 47.6484 35.6484 47.3828C35.5182 47.112 35.3281 46.9167 35.0781 46.7969C34.8281 46.6719 34.5208 46.6094 34.1562 46.6094C33.7969 46.6094 33.4688 46.6849 33.1719 46.8359C32.8802 46.987 32.6276 47.1953 32.4141 47.4609C32.2057 47.7266 32.0417 48.0312 31.9219 48.375C31.8073 48.7135 31.75 49.0729 31.75 49.4531ZM44.9688 45.5469H46.2812V53.8203C46.2812 54.5651 46.1302 55.2005 45.8281 55.7266C45.526 56.2526 45.1042 56.651 44.5625 56.9219C44.026 57.1979 43.4062 57.3359 42.7031 57.3359C42.4115 57.3359 42.0677 57.2891 41.6719 57.1953C41.2812 57.1068 40.8958 56.9531 40.5156 56.7344C40.1406 56.5208 39.8255 56.2318 39.5703 55.8672L40.3281 55.0078C40.6823 55.4349 41.0521 55.7318 41.4375 55.8984C41.8281 56.0651 42.2135 56.1484 42.5938 56.1484C43.0521 56.1484 43.4479 56.0625 43.7812 55.8906C44.1146 55.7188 44.3724 55.4635 44.5547 55.125C44.7422 54.7917 44.8359 54.3802 44.8359 53.8906V47.4062L44.9688 45.5469ZM39.1484 49.8672V49.7031C39.1484 49.0573 39.224 48.4714 39.375 47.9453C39.5312 47.4141 39.7526 46.9583 40.0391 46.5781C40.3307 46.1979 40.6823 45.9062 41.0938 45.7031C41.5052 45.4948 41.9688 45.3906 42.4844 45.3906C43.0156 45.3906 43.4792 45.4844 43.875 45.6719C44.276 45.8542 44.6146 46.1224 44.8906 46.4766C45.1719 46.8255 45.3932 47.2474 45.5547 47.7422C45.7161 48.237 45.8281 48.7969 45.8906 49.4219V50.1406C45.8333 50.7604 45.7214 51.3177 45.5547 51.8125C45.3932 52.3073 45.1719 52.7292 44.8906 53.0781C44.6146 53.4271 44.276 53.6953 43.875 53.8828C43.474 54.0651 43.0052 54.1562 42.4688 54.1562C41.9635 54.1562 41.5052 54.0495 41.0938 53.8359C40.6875 53.6224 40.3385 53.3229 40.0469 52.9375C39.7552 52.5521 39.5312 52.099 39.375 51.5781C39.224 51.0521 39.1484 50.4818 39.1484 49.8672ZM40.5938 49.7031V49.8672C40.5938 50.2891 40.6354 50.6849 40.7188 51.0547C40.8073 51.4245 40.9401 51.75 41.1172 52.0312C41.2995 52.3125 41.5312 52.5339 41.8125 52.6953C42.0938 52.8516 42.4297 52.9297 42.8203 52.9297C43.2995 52.9297 43.6953 52.8281 44.0078 52.625C44.3203 52.4219 44.5677 52.1536 44.75 51.8203C44.9375 51.487 45.0833 51.125 45.1875 50.7344V48.8516C45.1302 48.5651 45.0417 48.2891 44.9219 48.0234C44.8073 47.7526 44.6562 47.513 44.4688 47.3047C44.2865 47.0911 44.0599 46.9219 43.7891 46.7969C43.5182 46.6719 43.2005 46.6094 42.8359 46.6094C42.4401 46.6094 42.099 46.6927 41.8125 46.8594C41.5312 47.0208 41.2995 47.2448 41.1172 47.5312C40.9401 47.8125 40.8073 48.1406 40.7188 48.5156C40.6354 48.8854 40.5938 49.2812 40.5938 49.7031ZM48.0938 49.8672V49.6875C48.0938 49.0781 48.1823 48.513 48.3594 47.9922C48.5365 47.4661 48.7917 47.0104 49.125 46.625C49.4583 46.2344 49.862 45.9323 50.3359 45.7188C50.8099 45.5 51.3411 45.3906 51.9297 45.3906C52.5234 45.3906 53.0573 45.5 53.5312 45.7188C54.0104 45.9323 54.4167 46.2344 54.75 46.625C55.0885 47.0104 55.3464 47.4661 55.5234 47.9922C55.7005 48.513 55.7891 49.0781 55.7891 49.6875V49.8672C55.7891 50.4766 55.7005 51.0417 55.5234 51.5625C55.3464 52.0833 55.0885 52.5391 54.75 52.9297C54.4167 53.3151 54.013 53.6172 53.5391 53.8359C53.0703 54.0495 52.5391 54.1562 51.9453 54.1562C51.3516 54.1562 50.8177 54.0495 50.3438 53.8359C49.8698 53.6172 49.4635 53.3151 49.125 52.9297C48.7917 52.5391 48.5365 52.0833 48.3594 51.5625C48.1823 51.0417 48.0938 50.4766 48.0938 49.8672ZM49.5391 49.6875V49.8672C49.5391 50.2891 49.5885 50.6875 49.6875 51.0625C49.7865 51.4323 49.9349 51.7604 50.1328 52.0469C50.3359 52.3333 50.5885 52.5599 50.8906 52.7266C51.1927 52.888 51.5443 52.9688 51.9453 52.9688C52.3411 52.9688 52.6875 52.888 52.9844 52.7266C53.2865 52.5599 53.5365 52.3333 53.7344 52.0469C53.9323 51.7604 54.0807 51.4323 54.1797 51.0625C54.2839 50.6875 54.3359 50.2891 54.3359 49.8672V49.6875C54.3359 49.2708 54.2839 48.8776 54.1797 48.5078C54.0807 48.1328 53.9297 47.8021 53.7266 47.5156C53.5286 47.224 53.2786 46.9948 52.9766 46.8281C52.6797 46.6615 52.3307 46.5781 51.9297 46.5781C51.5339 46.5781 51.1849 46.6615 50.8828 46.8281C50.5859 46.9948 50.3359 47.224 50.1328 47.5156C49.9349 47.8021 49.7865 48.1328 49.6875 48.5078C49.5885 48.8776 49.5391 49.2708 49.5391 49.6875Z" fill="black"/>
</svg>
