<svg width="160" height="117" viewBox="0 0 160 117" fill="none" xmlns="http://www.w3.org/2000/svg">
<mask id="path-1-inside-1_52122_680" fill="white">
<path fill-rule="evenodd" clip-rule="evenodd" d="M59.6201 8.19008L55.2578 0L50.8382 8.19008H5C2.23858 8.19008 0 10.4286 0 13.1901V112C0 114.761 2.23857 117 4.99999 117H154.113C156.874 117 159.113 114.762 159.113 112V13.1901C159.113 10.4287 156.874 8.19008 154.113 8.19008H59.6201Z"/>
</mask>
<path fill-rule="evenodd" clip-rule="evenodd" d="M59.6201 8.19008L55.2578 0L50.8382 8.19008H5C2.23858 8.19008 0 10.4286 0 13.1901V112C0 114.761 2.23857 117 4.99999 117H154.113C156.874 117 159.113 114.762 159.113 112V13.1901C159.113 10.4287 156.874 8.19008 154.113 8.19008H59.6201Z" fill="white"/>
<path d="M55.2578 0L56.1404 -0.470106L55.2636 -2.11637L54.3778 -0.474902L55.2578 0ZM59.6201 8.19008L58.7375 8.66018L59.0198 9.19008H59.6201V8.19008ZM50.8382 8.19008V9.19008H51.4348L51.7182 8.66498L50.8382 8.19008ZM54.3752 0.470106L58.7375 8.66018L60.5027 7.71997L56.1404 -0.470106L54.3752 0.470106ZM51.7182 8.66498L56.1379 0.474902L54.3778 -0.474902L49.9581 7.71518L51.7182 8.66498ZM5 9.19008H50.8382V7.19008H5V9.19008ZM1 13.1901C1 10.9809 2.79086 9.19008 5 9.19008V7.19008C1.68629 7.19008 -1 9.87636 -1 13.1901H1ZM1 112V13.1901H-1V112H1ZM4.99999 116C2.79086 116 1 114.209 1 112H-1C-1 115.314 1.68628 118 4.99999 118V116ZM154.113 116H4.99999V118H154.113V116ZM158.113 112C158.113 114.209 156.322 116 154.113 116V118C157.426 118 160.113 115.314 160.113 112H158.113ZM158.113 13.1901V112H160.113V13.1901H158.113ZM154.113 9.19008C156.322 9.19008 158.113 10.9809 158.113 13.1901H160.113C160.113 9.87637 157.426 7.19008 154.113 7.19008V9.19008ZM59.6201 9.19008H154.113V7.19008H59.6201V9.19008Z" fill="black" mask="url(#path-1-inside-1_52122_680)"/>
<path d="M31.7736 87.5518L31.9923 89.0518L32.3126 87.7002L34.5626 79.7627H35.8282L38.0236 87.7002L38.3361 89.0752L38.5782 87.5439L40.3439 79.7627H41.8517L39.0939 91.1377H37.7267L35.3829 82.8486L35.2032 81.9814L35.0236 82.8486L32.5939 91.1377H31.2267L28.4767 79.7627H29.9767L31.7736 87.5518ZM44.7423 83.708C45.3829 82.9215 46.2163 82.5283 47.2423 82.5283C49.0288 82.5283 49.9298 83.5361 49.9454 85.5518V91.1377H48.5001V85.5439C48.4949 84.9346 48.3543 84.484 48.0782 84.1924C47.8074 83.9007 47.3829 83.7549 46.8048 83.7549C46.3361 83.7549 45.9246 83.8799 45.5704 84.1299C45.2163 84.3799 44.9402 84.708 44.7423 85.1143V91.1377H43.297V79.1377H44.7423V83.708ZM57.3282 91.1377C57.2449 90.971 57.1772 90.6742 57.1251 90.2471C56.4532 90.945 55.6512 91.2939 54.7189 91.2939C53.8855 91.2939 53.2006 91.0596 52.6642 90.5908C52.1329 90.1169 51.8673 89.5179 51.8673 88.7939C51.8673 87.9137 52.2006 87.2314 52.8673 86.7471C53.5392 86.2575 54.4819 86.0127 55.6954 86.0127H57.1017V85.3486C57.1017 84.8434 56.9506 84.4424 56.6486 84.1455C56.3465 83.8434 55.9012 83.6924 55.3126 83.6924C54.797 83.6924 54.3647 83.8226 54.0157 84.083C53.6668 84.3434 53.4923 84.6585 53.4923 85.0283H52.0392C52.0392 84.6064 52.1876 84.2002 52.4845 83.8096C52.7866 83.4137 53.1928 83.1012 53.7032 82.8721C54.2189 82.6429 54.784 82.5283 55.3986 82.5283C56.3725 82.5283 57.1355 82.7731 57.6876 83.2627C58.2397 83.7471 58.5262 84.4163 58.547 85.2705V89.1611C58.547 89.9372 58.646 90.5544 58.8439 91.0127V91.1377H57.3282ZM54.9298 90.0361C55.3829 90.0361 55.8126 89.9189 56.2189 89.6846C56.6251 89.4502 56.9194 89.1455 57.1017 88.7705V87.0361H55.9689C54.198 87.0361 53.3126 87.5544 53.3126 88.5908C53.3126 89.0439 53.4637 89.3981 53.7657 89.6533C54.0678 89.9085 54.4559 90.0361 54.9298 90.0361ZM62.7736 80.6377V82.6846H64.3517V83.8018H62.7736V89.0439C62.7736 89.3825 62.8439 89.6377 62.9845 89.8096C63.1251 89.9762 63.3647 90.0596 63.7032 90.0596C63.8699 90.0596 64.0991 90.0283 64.3907 89.9658V91.1377C64.0105 91.2419 63.6407 91.2939 63.2814 91.2939C62.6355 91.2939 62.1486 91.0986 61.8204 90.708C61.4923 90.3174 61.3282 89.7627 61.3282 89.0439V83.8018H59.7892V82.6846H61.3282V80.6377H62.7736ZM69.4376 90.1143C69.9532 90.1143 70.4038 89.958 70.7892 89.6455C71.1746 89.333 71.3881 88.9424 71.4298 88.4736H72.797C72.771 88.958 72.6043 89.4189 72.297 89.8564C71.9897 90.2939 71.5782 90.6429 71.0626 90.9033C70.5522 91.1637 70.0105 91.2939 69.4376 91.2939C68.2866 91.2939 67.3699 90.9111 66.6876 90.1455C66.0105 89.3747 65.672 88.3226 65.672 86.9893V86.7471C65.672 85.9242 65.823 85.1924 66.1251 84.5518C66.4272 83.9111 66.8595 83.4137 67.422 83.0596C67.9897 82.7054 68.659 82.5283 69.4298 82.5283C70.3777 82.5283 71.1642 82.8122 71.7892 83.3799C72.4194 83.9476 72.7553 84.6846 72.797 85.5908H71.4298C71.3881 85.0439 71.1798 84.596 70.8048 84.2471C70.435 83.8929 69.9767 83.7158 69.4298 83.7158C68.6954 83.7158 68.1251 83.9814 67.7189 84.5127C67.3178 85.0387 67.1173 85.8018 67.1173 86.8018V87.0752C67.1173 88.0492 67.3178 88.7992 67.7189 89.3252C68.1199 89.8512 68.6928 90.1143 69.4376 90.1143ZM75.8673 83.708C76.5079 82.9215 77.3413 82.5283 78.3673 82.5283C80.1538 82.5283 81.0548 83.5361 81.0704 85.5518V91.1377H79.6251V85.5439C79.6199 84.9346 79.4793 84.484 79.2032 84.1924C78.9324 83.9007 78.5079 83.7549 77.9298 83.7549C77.4611 83.7549 77.0496 83.8799 76.6954 84.1299C76.3413 84.3799 76.0652 84.708 75.8673 85.1143V91.1377H74.422V79.1377H75.8673V83.708ZM86.8204 86.833C86.8204 86.0049 86.9819 85.2601 87.3048 84.5986C87.6329 83.9372 88.0861 83.4268 88.6642 83.0674C89.2475 82.708 89.9116 82.5283 90.6564 82.5283C91.8074 82.5283 92.7371 82.9268 93.4454 83.7236C94.159 84.5205 94.5157 85.5804 94.5157 86.9033V87.0049C94.5157 87.8278 94.3569 88.5674 94.0392 89.2236C93.7267 89.8747 93.2762 90.3825 92.6876 90.7471C92.1043 91.1117 91.4324 91.2939 90.672 91.2939C89.5262 91.2939 88.5965 90.8955 87.8829 90.0986C87.1746 89.3018 86.8204 88.2471 86.8204 86.9346V86.833ZM88.2736 87.0049C88.2736 87.9424 88.4897 88.695 88.922 89.2627C89.3595 89.8304 89.9428 90.1143 90.672 90.1143C91.4064 90.1143 91.9897 89.8278 92.422 89.2549C92.8543 88.6768 93.0704 87.8695 93.0704 86.833C93.0704 85.9059 92.8491 85.1559 92.4064 84.583C91.9689 84.0049 91.3855 83.7158 90.6564 83.7158C89.9428 83.7158 89.3673 83.9997 88.9298 84.5674C88.4923 85.1351 88.2736 85.9476 88.2736 87.0049ZM97.6954 82.6846L97.7423 83.7471C98.3881 82.9346 99.2319 82.5283 100.274 82.5283C102.06 82.5283 102.961 83.5361 102.977 85.5518V91.1377H101.531V85.5439C101.526 84.9346 101.386 84.484 101.109 84.1924C100.839 83.9007 100.414 83.7549 99.8361 83.7549C99.3673 83.7549 98.9559 83.8799 98.6017 84.1299C98.2475 84.3799 97.9715 84.708 97.7736 85.1143V91.1377H96.3282V82.6846H97.6954ZM106.727 91.1377H105.281V79.1377H106.727V91.1377ZM110.617 91.1377H109.172V82.6846H110.617V91.1377ZM109.055 80.4424C109.055 80.208 109.125 80.0101 109.266 79.8486C109.412 79.6872 109.625 79.6064 109.906 79.6064C110.188 79.6064 110.401 79.6872 110.547 79.8486C110.693 80.0101 110.766 80.208 110.766 80.4424C110.766 80.6768 110.693 80.8721 110.547 81.0283C110.401 81.1846 110.188 81.2627 109.906 81.2627C109.625 81.2627 109.412 81.1846 109.266 81.0283C109.125 80.8721 109.055 80.6768 109.055 80.4424ZM114.305 82.6846L114.352 83.7471C114.998 82.9346 115.841 82.5283 116.883 82.5283C118.669 82.5283 119.57 83.5361 119.586 85.5518V91.1377H118.141V85.5439C118.136 84.9346 117.995 84.484 117.719 84.1924C117.448 83.9007 117.024 83.7549 116.445 83.7549C115.977 83.7549 115.565 83.8799 115.211 84.1299C114.857 84.3799 114.581 84.708 114.383 85.1143V91.1377H112.938V82.6846H114.305ZM125.274 91.2939C124.128 91.2939 123.195 90.9189 122.477 90.1689C121.758 89.4137 121.399 88.4059 121.399 87.1455V86.8799C121.399 86.0413 121.557 85.2939 121.875 84.6377C122.198 83.9762 122.646 83.4606 123.219 83.0908C123.797 82.7158 124.422 82.5283 125.094 82.5283C126.193 82.5283 127.047 82.8903 127.656 83.6143C128.266 84.3382 128.57 85.3747 128.57 86.7236V87.3252H122.844C122.865 88.1585 123.107 88.833 123.57 89.3486C124.039 89.859 124.633 90.1143 125.352 90.1143C125.862 90.1143 126.294 90.0101 126.649 89.8018C127.003 89.5934 127.313 89.3174 127.578 88.9736L128.461 89.6611C127.753 90.7497 126.69 91.2939 125.274 91.2939ZM125.094 83.7158C124.511 83.7158 124.021 83.9294 123.625 84.3564C123.229 84.7783 122.984 85.3721 122.891 86.1377H127.125V86.0283C127.083 85.2939 126.886 84.7262 126.531 84.3252C126.177 83.9189 125.698 83.7158 125.094 83.7158Z" fill="#4B9200"/>
<path d="M15.5156 27.5391H12.4766V26.3125H15.5156C16.1042 26.3125 16.5807 26.2188 16.9453 26.0312C17.3099 25.8438 17.5755 25.5833 17.7422 25.25C17.9141 24.9167 18 24.5365 18 24.1094C18 23.7188 17.9141 23.3516 17.7422 23.0078C17.5755 22.6641 17.3099 22.388 16.9453 22.1797C16.5807 21.9661 16.1042 21.8594 15.5156 21.8594H12.8281V32H11.3203V20.625H15.5156C16.375 20.625 17.1016 20.7734 17.6953 21.0703C18.2891 21.3672 18.7396 21.7786 19.0469 22.3047C19.3542 22.8255 19.5078 23.4219 19.5078 24.0938C19.5078 24.8229 19.3542 25.4453 19.0469 25.9609C18.7396 26.4766 18.2891 26.8698 17.6953 27.1406C17.1016 27.4062 16.375 27.5391 15.5156 27.5391ZM26.0859 30.5547V26.2031C26.0859 25.8698 26.0182 25.5807 25.8828 25.3359C25.7526 25.0859 25.5547 24.8932 25.2891 24.7578C25.0234 24.6224 24.6953 24.5547 24.3047 24.5547C23.9401 24.5547 23.6198 24.6172 23.3438 24.7422C23.0729 24.8672 22.8594 25.0312 22.7031 25.2344C22.5521 25.4375 22.4766 25.6562 22.4766 25.8906H21.0312C21.0312 25.5885 21.1094 25.2891 21.2656 24.9922C21.4219 24.6953 21.6458 24.4271 21.9375 24.1875C22.2344 23.9427 22.5885 23.75 23 23.6094C23.4167 23.4635 23.8802 23.3906 24.3906 23.3906C25.0052 23.3906 25.5469 23.4948 26.0156 23.7031C26.4896 23.9115 26.8594 24.2266 27.125 24.6484C27.3958 25.0651 27.5312 25.5885 27.5312 26.2188V30.1562C27.5312 30.4375 27.5547 30.737 27.6016 31.0547C27.6536 31.3724 27.7292 31.6458 27.8281 31.875V32H26.3203C26.2474 31.8333 26.1901 31.612 26.1484 31.3359C26.1068 31.0547 26.0859 30.7943 26.0859 30.5547ZM26.3359 26.875L26.3516 27.8906H24.8906C24.4792 27.8906 24.112 27.9245 23.7891 27.9922C23.4661 28.0547 23.1953 28.151 22.9766 28.2812C22.7578 28.4115 22.5911 28.5755 22.4766 28.7734C22.362 28.9661 22.3047 29.1927 22.3047 29.4531C22.3047 29.7188 22.3646 29.9609 22.4844 30.1797C22.6042 30.3984 22.7839 30.5729 23.0234 30.7031C23.2682 30.8281 23.5677 30.8906 23.9219 30.8906C24.3646 30.8906 24.7552 30.7969 25.0938 30.6094C25.4323 30.4219 25.7005 30.1927 25.8984 29.9219C26.1016 29.651 26.2109 29.388 26.2266 29.1328L26.8438 29.8281C26.8073 30.0469 26.7083 30.2891 26.5469 30.5547C26.3854 30.8203 26.1693 31.0755 25.8984 31.3203C25.6328 31.5599 25.3151 31.7604 24.9453 31.9219C24.5807 32.0781 24.1693 32.1562 23.7109 32.1562C23.138 32.1562 22.6354 32.0443 22.2031 31.8203C21.776 31.5964 21.4427 31.2969 21.2031 30.9219C20.9688 30.5417 20.8516 30.1172 20.8516 29.6484C20.8516 29.1953 20.9401 28.7969 21.1172 28.4531C21.2943 28.1042 21.5495 27.8151 21.8828 27.5859C22.2161 27.3516 22.6172 27.1745 23.0859 27.0547C23.5547 26.9349 24.0781 26.875 24.6562 26.875H26.3359ZM31.25 25.3516V32H29.8047V23.5469H31.1719L31.25 25.3516ZM30.9062 27.4531L30.3047 27.4297C30.3099 26.8516 30.3958 26.3177 30.5625 25.8281C30.7292 25.3333 30.9635 24.9036 31.2656 24.5391C31.5677 24.1745 31.9271 23.8932 32.3438 23.6953C32.7656 23.4922 33.2318 23.3906 33.7422 23.3906C34.1589 23.3906 34.5339 23.4479 34.8672 23.5625C35.2005 23.6719 35.4844 23.849 35.7188 24.0938C35.9583 24.3385 36.1406 24.6562 36.2656 25.0469C36.3906 25.4323 36.4531 25.9036 36.4531 26.4609V32H35V26.4453C35 26.0026 34.9349 25.6484 34.8047 25.3828C34.6745 25.112 34.4844 24.9167 34.2344 24.7969C33.9844 24.6719 33.6771 24.6094 33.3125 24.6094C32.9531 24.6094 32.625 24.6849 32.3281 24.8359C32.0365 24.987 31.7839 25.1953 31.5703 25.4609C31.362 25.7266 31.1979 26.0312 31.0781 26.375C30.9635 26.7135 30.9062 27.0729 30.9062 27.4531ZM43.9766 30.3594V20H45.4297V32H44.1016L43.9766 30.3594ZM38.2891 27.8672V27.7031C38.2891 27.0573 38.3672 26.4714 38.5234 25.9453C38.6849 25.4141 38.9115 24.9583 39.2031 24.5781C39.5 24.1979 39.8516 23.9062 40.2578 23.7031C40.6693 23.4948 41.1276 23.3906 41.6328 23.3906C42.1641 23.3906 42.6276 23.4844 43.0234 23.6719C43.4245 23.8542 43.763 24.1224 44.0391 24.4766C44.3203 24.8255 44.5417 25.2474 44.7031 25.7422C44.8646 26.237 44.9766 26.7969 45.0391 27.4219V28.1406C44.9818 28.7604 44.8698 29.3177 44.7031 29.8125C44.5417 30.3073 44.3203 30.7292 44.0391 31.0781C43.763 31.4271 43.4245 31.6953 43.0234 31.8828C42.6224 32.0651 42.1536 32.1562 41.6172 32.1562C41.1224 32.1562 40.6693 32.0495 40.2578 31.8359C39.8516 31.6224 39.5 31.3229 39.2031 30.9375C38.9115 30.5521 38.6849 30.099 38.5234 29.5781C38.3672 29.0521 38.2891 28.4818 38.2891 27.8672ZM39.7422 27.7031V27.8672C39.7422 28.2891 39.7839 28.6849 39.8672 29.0547C39.9557 29.4245 40.0911 29.75 40.2734 30.0312C40.4557 30.3125 40.6875 30.5339 40.9688 30.6953C41.25 30.8516 41.5859 30.9297 41.9766 30.9297C42.4557 30.9297 42.849 30.8281 43.1562 30.625C43.4688 30.4219 43.7188 30.1536 43.9062 29.8203C44.0938 29.487 44.2396 29.125 44.3438 28.7344V26.8516C44.2812 26.5651 44.1901 26.2891 44.0703 26.0234C43.9557 25.7526 43.8047 25.513 43.6172 25.3047C43.4349 25.0911 43.2083 24.9219 42.9375 24.7969C42.6719 24.6719 42.3568 24.6094 41.9922 24.6094C41.5964 24.6094 41.2552 24.6927 40.9688 24.8594C40.6875 25.0208 40.4557 25.2448 40.2734 25.5312C40.0911 25.8125 39.9557 26.1406 39.8672 26.5156C39.7839 26.8854 39.7422 27.2812 39.7422 27.7031ZM52.6641 30.5547V26.2031C52.6641 25.8698 52.5964 25.5807 52.4609 25.3359C52.3307 25.0859 52.1328 24.8932 51.8672 24.7578C51.6016 24.6224 51.2734 24.5547 50.8828 24.5547C50.5182 24.5547 50.1979 24.6172 49.9219 24.7422C49.651 24.8672 49.4375 25.0312 49.2812 25.2344C49.1302 25.4375 49.0547 25.6562 49.0547 25.8906H47.6094C47.6094 25.5885 47.6875 25.2891 47.8438 24.9922C48 24.6953 48.224 24.4271 48.5156 24.1875C48.8125 23.9427 49.1667 23.75 49.5781 23.6094C49.9948 23.4635 50.4583 23.3906 50.9688 23.3906C51.5833 23.3906 52.125 23.4948 52.5938 23.7031C53.0677 23.9115 53.4375 24.2266 53.7031 24.6484C53.974 25.0651 54.1094 25.5885 54.1094 26.2188V30.1562C54.1094 30.4375 54.1328 30.737 54.1797 31.0547C54.2318 31.3724 54.3073 31.6458 54.4062 31.875V32H52.8984C52.8255 31.8333 52.7682 31.612 52.7266 31.3359C52.6849 31.0547 52.6641 30.7943 52.6641 30.5547ZM52.9141 26.875L52.9297 27.8906H51.4688C51.0573 27.8906 50.6901 27.9245 50.3672 27.9922C50.0443 28.0547 49.7734 28.151 49.5547 28.2812C49.3359 28.4115 49.1693 28.5755 49.0547 28.7734C48.9401 28.9661 48.8828 29.1927 48.8828 29.4531C48.8828 29.7188 48.9427 29.9609 49.0625 30.1797C49.1823 30.3984 49.362 30.5729 49.6016 30.7031C49.8464 30.8281 50.1458 30.8906 50.5 30.8906C50.9427 30.8906 51.3333 30.7969 51.6719 30.6094C52.0104 30.4219 52.2786 30.1927 52.4766 29.9219C52.6797 29.651 52.7891 29.388 52.8047 29.1328L53.4219 29.8281C53.3854 30.0469 53.2865 30.2891 53.125 30.5547C52.9635 30.8203 52.7474 31.0755 52.4766 31.3203C52.2109 31.5599 51.8932 31.7604 51.5234 31.9219C51.1589 32.0781 50.7474 32.1562 50.2891 32.1562C49.7161 32.1562 49.2135 32.0443 48.7812 31.8203C48.3542 31.5964 48.0208 31.2969 47.7812 30.9219C47.5469 30.5417 47.4297 30.1172 47.4297 29.6484C47.4297 29.1953 47.5182 28.7969 47.6953 28.4531C47.8724 28.1042 48.1276 27.8151 48.4609 27.5859C48.7943 27.3516 49.1953 27.1745 49.6641 27.0547C50.1328 26.9349 50.6562 26.875 51.2344 26.875H52.9141ZM61.3047 29.7578C61.3047 29.5495 61.2578 29.3568 61.1641 29.1797C61.0755 28.9974 60.8906 28.8333 60.6094 28.6875C60.3333 28.5365 59.9167 28.4062 59.3594 28.2969C58.8906 28.1979 58.4661 28.0807 58.0859 27.9453C57.7109 27.8099 57.3906 27.6458 57.125 27.4531C56.8646 27.2604 56.6641 27.0339 56.5234 26.7734C56.3828 26.513 56.3125 26.2083 56.3125 25.8594C56.3125 25.526 56.3854 25.2109 56.5312 24.9141C56.6823 24.6172 56.8932 24.3542 57.1641 24.125C57.4401 23.8958 57.7708 23.7161 58.1562 23.5859C58.5417 23.4557 58.9714 23.3906 59.4453 23.3906C60.1224 23.3906 60.7005 23.5104 61.1797 23.75C61.6589 23.9896 62.026 24.3099 62.2812 24.7109C62.5365 25.1068 62.6641 25.5469 62.6641 26.0312H61.2188C61.2188 25.7969 61.1484 25.5703 61.0078 25.3516C60.8724 25.1276 60.6719 24.9427 60.4062 24.7969C60.1458 24.651 59.8255 24.5781 59.4453 24.5781C59.0443 24.5781 58.7188 24.6406 58.4688 24.7656C58.224 24.8854 58.0443 25.0391 57.9297 25.2266C57.8203 25.4141 57.7656 25.612 57.7656 25.8203C57.7656 25.9766 57.7917 26.1172 57.8438 26.2422C57.901 26.362 58 26.474 58.1406 26.5781C58.2812 26.6771 58.4792 26.7708 58.7344 26.8594C58.9896 26.9479 59.3151 27.0365 59.7109 27.125C60.4036 27.2812 60.974 27.4688 61.4219 27.6875C61.8698 27.9062 62.2031 28.1745 62.4219 28.4922C62.6406 28.8099 62.75 29.1953 62.75 29.6484C62.75 30.0182 62.6719 30.3568 62.5156 30.6641C62.3646 30.9714 62.1432 31.237 61.8516 31.4609C61.5651 31.6797 61.2214 31.8516 60.8203 31.9766C60.4245 32.0964 59.9792 32.1562 59.4844 32.1562C58.7396 32.1562 58.1094 32.0234 57.5938 31.7578C57.0781 31.4922 56.6875 31.1484 56.4219 30.7266C56.1562 30.3047 56.0234 29.8594 56.0234 29.3906H57.4766C57.4974 29.7865 57.612 30.1016 57.8203 30.3359C58.0286 30.5651 58.2839 30.7292 58.5859 30.8281C58.888 30.9219 59.1875 30.9688 59.4844 30.9688C59.8802 30.9688 60.2109 30.9167 60.4766 30.8125C60.7474 30.7083 60.9531 30.5651 61.0938 30.3828C61.2344 30.2005 61.3047 29.9922 61.3047 29.7578Z" fill="black"/>
<path d="M17.3828 51.125C17.3828 50.8594 17.3411 50.625 17.2578 50.4219C17.1797 50.2135 17.0391 50.026 16.8359 49.8594C16.638 49.6927 16.362 49.5339 16.0078 49.3828C15.6589 49.2318 15.2161 49.0781 14.6797 48.9219C14.1172 48.7552 13.6094 48.5703 13.1562 48.3672C12.7031 48.1589 12.3151 47.9219 11.9922 47.6562C11.6693 47.3906 11.4219 47.0859 11.25 46.7422C11.0781 46.3984 10.9922 46.0052 10.9922 45.5625C10.9922 45.1198 11.0833 44.7109 11.2656 44.3359C11.4479 43.9609 11.7083 43.6354 12.0469 43.3594C12.3906 43.0781 12.7995 42.8594 13.2734 42.7031C13.7474 42.5469 14.276 42.4688 14.8594 42.4688C15.7135 42.4688 16.4375 42.6328 17.0312 42.9609C17.6302 43.2839 18.0859 43.7083 18.3984 44.2344C18.7109 44.7552 18.8672 45.3125 18.8672 45.9062H17.3672C17.3672 45.4792 17.276 45.1016 17.0938 44.7734C16.9115 44.4401 16.6354 44.1797 16.2656 43.9922C15.8958 43.7995 15.4271 43.7031 14.8594 43.7031C14.3229 43.7031 13.8802 43.7839 13.5312 43.9453C13.1823 44.1068 12.9219 44.3255 12.75 44.6016C12.5833 44.8776 12.5 45.1927 12.5 45.5469C12.5 45.7865 12.5495 46.0052 12.6484 46.2031C12.7526 46.3958 12.9115 46.5755 13.125 46.7422C13.3438 46.9089 13.6198 47.0625 13.9531 47.2031C14.2917 47.3438 14.6953 47.4792 15.1641 47.6094C15.8099 47.7917 16.3672 47.9948 16.8359 48.2188C17.3047 48.4427 17.6901 48.6953 17.9922 48.9766C18.2995 49.2526 18.526 49.5677 18.6719 49.9219C18.8229 50.2708 18.8984 50.6667 18.8984 51.1094C18.8984 51.5729 18.8047 51.9922 18.6172 52.3672C18.4297 52.7422 18.1615 53.0625 17.8125 53.3281C17.4635 53.5938 17.0443 53.7995 16.5547 53.9453C16.0703 54.0859 15.5286 54.1562 14.9297 54.1562C14.4036 54.1562 13.8854 54.0833 13.375 53.9375C12.8698 53.7917 12.4089 53.5729 11.9922 53.2812C11.5807 52.9896 11.25 52.6302 11 52.2031C10.7552 51.7708 10.6328 51.2708 10.6328 50.7031H12.1328C12.1328 51.0938 12.2083 51.4297 12.3594 51.7109C12.5104 51.987 12.7161 52.2161 12.9766 52.3984C13.2422 52.5807 13.5417 52.7161 13.875 52.8047C14.2135 52.888 14.5651 52.9297 14.9297 52.9297C15.4557 52.9297 15.901 52.8568 16.2656 52.7109C16.6302 52.5651 16.9062 52.3568 17.0938 52.0859C17.2865 51.8151 17.3828 51.4948 17.3828 51.125ZM20.2188 49.8672V49.6875C20.2188 49.0781 20.3073 48.513 20.4844 47.9922C20.6615 47.4661 20.9167 47.0104 21.25 46.625C21.5833 46.2344 21.987 45.9323 22.4609 45.7188C22.9349 45.5 23.4661 45.3906 24.0547 45.3906C24.6484 45.3906 25.1823 45.5 25.6562 45.7188C26.1354 45.9323 26.5417 46.2344 26.875 46.625C27.2135 47.0104 27.4714 47.4661 27.6484 47.9922C27.8255 48.513 27.9141 49.0781 27.9141 49.6875V49.8672C27.9141 50.4766 27.8255 51.0417 27.6484 51.5625C27.4714 52.0833 27.2135 52.5391 26.875 52.9297C26.5417 53.3151 26.138 53.6172 25.6641 53.8359C25.1953 54.0495 24.6641 54.1562 24.0703 54.1562C23.4766 54.1562 22.9427 54.0495 22.4688 53.8359C21.9948 53.6172 21.5885 53.3151 21.25 52.9297C20.9167 52.5391 20.6615 52.0833 20.4844 51.5625C20.3073 51.0417 20.2188 50.4766 20.2188 49.8672ZM21.6641 49.6875V49.8672C21.6641 50.2891 21.7135 50.6875 21.8125 51.0625C21.9115 51.4323 22.0599 51.7604 22.2578 52.0469C22.4609 52.3333 22.7135 52.5599 23.0156 52.7266C23.3177 52.888 23.6693 52.9688 24.0703 52.9688C24.4661 52.9688 24.8125 52.888 25.1094 52.7266C25.4115 52.5599 25.6615 52.3333 25.8594 52.0469C26.0573 51.7604 26.2057 51.4323 26.3047 51.0625C26.4089 50.6875 26.4609 50.2891 26.4609 49.8672V49.6875C26.4609 49.2708 26.4089 48.8776 26.3047 48.5078C26.2057 48.1328 26.0547 47.8021 25.8516 47.5156C25.6536 47.224 25.4036 46.9948 25.1016 46.8281C24.8047 46.6615 24.4557 46.5781 24.0547 46.5781C23.6589 46.5781 23.3099 46.6615 23.0078 46.8281C22.7109 46.9948 22.4609 47.224 22.2578 47.5156C22.0599 47.8021 21.9115 48.1328 21.8125 48.5078C21.7135 48.8776 21.6641 49.2708 21.6641 49.6875ZM34.8984 52.0469V45.5469H36.3516V54H34.9688L34.8984 52.0469ZM35.1719 50.2656L35.7734 50.25C35.7734 50.8125 35.7135 51.3333 35.5938 51.8125C35.4792 52.2865 35.2917 52.6979 35.0312 53.0469C34.7708 53.3958 34.4297 53.6693 34.0078 53.8672C33.5859 54.0599 33.0729 54.1562 32.4688 54.1562C32.0573 54.1562 31.6797 54.0964 31.3359 53.9766C30.9974 53.8568 30.7057 53.6719 30.4609 53.4219C30.2161 53.1719 30.026 52.8464 29.8906 52.4453C29.7604 52.0443 29.6953 51.5625 29.6953 51V45.5469H31.1406V51.0156C31.1406 51.3958 31.1823 51.7109 31.2656 51.9609C31.3542 52.2057 31.4714 52.401 31.6172 52.5469C31.7682 52.6875 31.9349 52.7865 32.1172 52.8438C32.3047 52.901 32.4974 52.9297 32.6953 52.9297C33.3099 52.9297 33.7969 52.8125 34.1562 52.5781C34.5156 52.3385 34.7734 52.0182 34.9297 51.6172C35.0911 51.2109 35.1719 50.7604 35.1719 50.2656ZM42.0938 45.5469V46.6562H37.5234V45.5469H42.0938ZM39.0703 43.4922H40.5156V51.9062C40.5156 52.1927 40.5599 52.4089 40.6484 52.5547C40.737 52.7005 40.8516 52.7969 40.9922 52.8438C41.1328 52.8906 41.2839 52.9141 41.4453 52.9141C41.5651 52.9141 41.6901 52.9036 41.8203 52.8828C41.9557 52.8568 42.0573 52.8359 42.125 52.8203L42.1328 54C42.0182 54.0365 41.8672 54.0703 41.6797 54.1016C41.4974 54.138 41.276 54.1562 41.0156 54.1562C40.6615 54.1562 40.3359 54.0859 40.0391 53.9453C39.7422 53.8047 39.5052 53.5703 39.3281 53.2422C39.1562 52.9089 39.0703 52.4609 39.0703 51.8984V43.4922ZM45.2344 42V54H43.7891V42H45.2344ZM44.8906 49.4531L44.2891 49.4297C44.2943 48.8516 44.3802 48.3177 44.5469 47.8281C44.7135 47.3333 44.9479 46.9036 45.25 46.5391C45.5521 46.1745 45.9115 45.8932 46.3281 45.6953C46.75 45.4922 47.2161 45.3906 47.7266 45.3906C48.1432 45.3906 48.5182 45.4479 48.8516 45.5625C49.1849 45.6719 49.4688 45.849 49.7031 46.0938C49.9427 46.3385 50.125 46.6562 50.25 47.0469C50.375 47.4323 50.4375 47.9036 50.4375 48.4609V54H48.9844V48.4453C48.9844 48.0026 48.9193 47.6484 48.7891 47.3828C48.6589 47.112 48.4688 46.9167 48.2188 46.7969C47.9688 46.6719 47.6615 46.6094 47.2969 46.6094C46.9375 46.6094 46.6094 46.6849 46.3125 46.8359C46.0208 46.987 45.7682 47.1953 45.5547 47.4609C45.3464 47.7266 45.1823 48.0312 45.0625 48.375C44.9479 48.7135 44.8906 49.0729 44.8906 49.4531ZM54.7422 52.5L56.9141 45.5469H57.8672L57.6797 46.9297L55.4688 54H54.5391L54.7422 52.5ZM53.2812 45.5469L55.1328 52.5781L55.2656 54H54.2891L51.8359 45.5469H53.2812ZM59.9453 52.5234L61.7109 45.5469H63.1484L60.6953 54H59.7266L59.9453 52.5234ZM58.0781 45.5469L60.2031 52.3828L60.4453 54H59.5234L57.25 46.9141L57.0625 45.5469H58.0781ZM68.1406 54.1562C67.5521 54.1562 67.0182 54.0573 66.5391 53.8594C66.0651 53.6562 65.6562 53.3724 65.3125 53.0078C64.974 52.6432 64.7135 52.2109 64.5312 51.7109C64.349 51.2109 64.2578 50.6641 64.2578 50.0703V49.7422C64.2578 49.0547 64.3594 48.4427 64.5625 47.9062C64.7656 47.3646 65.0417 46.9062 65.3906 46.5312C65.7396 46.1562 66.1354 45.8724 66.5781 45.6797C67.0208 45.487 67.4792 45.3906 67.9531 45.3906C68.5573 45.3906 69.0781 45.4948 69.5156 45.7031C69.9583 45.9115 70.3203 46.2031 70.6016 46.5781C70.8828 46.9479 71.0911 47.3854 71.2266 47.8906C71.362 48.3906 71.4297 48.9375 71.4297 49.5312V50.1797H65.1172V49H69.9844V48.8906C69.9635 48.5156 69.8854 48.151 69.75 47.7969C69.6198 47.4427 69.4115 47.151 69.125 46.9219C68.8385 46.6927 68.4479 46.5781 67.9531 46.5781C67.625 46.5781 67.3229 46.6484 67.0469 46.7891C66.7708 46.9245 66.5339 47.1276 66.3359 47.3984C66.138 47.6693 65.9844 48 65.875 48.3906C65.7656 48.7812 65.7109 49.2318 65.7109 49.7422V50.0703C65.7109 50.4714 65.7656 50.849 65.875 51.2031C65.9896 51.5521 66.1536 51.8594 66.3672 52.125C66.5859 52.3906 66.849 52.599 67.1562 52.75C67.4688 52.901 67.8229 52.9766 68.2188 52.9766C68.7292 52.9766 69.1615 52.8724 69.5156 52.6641C69.8698 52.4557 70.1797 52.1771 70.4453 51.8281L71.3203 52.5234C71.138 52.7995 70.9062 53.0625 70.625 53.3125C70.3438 53.5625 69.9974 53.7656 69.5859 53.9219C69.1797 54.0781 68.6979 54.1562 68.1406 54.1562ZM78.0391 51.7578C78.0391 51.5495 77.9922 51.3568 77.8984 51.1797C77.8099 50.9974 77.625 50.8333 77.3438 50.6875C77.0677 50.5365 76.651 50.4062 76.0938 50.2969C75.625 50.1979 75.2005 50.0807 74.8203 49.9453C74.4453 49.8099 74.125 49.6458 73.8594 49.4531C73.599 49.2604 73.3984 49.0339 73.2578 48.7734C73.1172 48.513 73.0469 48.2083 73.0469 47.8594C73.0469 47.526 73.1198 47.2109 73.2656 46.9141C73.4167 46.6172 73.6276 46.3542 73.8984 46.125C74.1745 45.8958 74.5052 45.7161 74.8906 45.5859C75.276 45.4557 75.7057 45.3906 76.1797 45.3906C76.8568 45.3906 77.4349 45.5104 77.9141 45.75C78.3932 45.9896 78.7604 46.3099 79.0156 46.7109C79.2708 47.1068 79.3984 47.5469 79.3984 48.0312H77.9531C77.9531 47.7969 77.8828 47.5703 77.7422 47.3516C77.6068 47.1276 77.4062 46.9427 77.1406 46.7969C76.8802 46.651 76.5599 46.5781 76.1797 46.5781C75.7786 46.5781 75.4531 46.6406 75.2031 46.7656C74.9583 46.8854 74.7786 47.0391 74.6641 47.2266C74.5547 47.4141 74.5 47.612 74.5 47.8203C74.5 47.9766 74.526 48.1172 74.5781 48.2422C74.6354 48.362 74.7344 48.474 74.875 48.5781C75.0156 48.6771 75.2135 48.7708 75.4688 48.8594C75.724 48.9479 76.0495 49.0365 76.4453 49.125C77.138 49.2812 77.7083 49.4688 78.1562 49.6875C78.6042 49.9062 78.9375 50.1745 79.1562 50.4922C79.375 50.8099 79.4844 51.1953 79.4844 51.6484C79.4844 52.0182 79.4062 52.3568 79.25 52.6641C79.099 52.9714 78.8776 53.237 78.5859 53.4609C78.2995 53.6797 77.9557 53.8516 77.5547 53.9766C77.1589 54.0964 76.7135 54.1562 76.2188 54.1562C75.474 54.1562 74.8438 54.0234 74.3281 53.7578C73.8125 53.4922 73.4219 53.1484 73.1562 52.7266C72.8906 52.3047 72.7578 51.8594 72.7578 51.3906H74.2109C74.2318 51.7865 74.3464 52.1016 74.5547 52.3359C74.763 52.5651 75.0182 52.7292 75.3203 52.8281C75.6224 52.9219 75.9219 52.9688 76.2188 52.9688C76.6146 52.9688 76.9453 52.9167 77.2109 52.8125C77.4818 52.7083 77.6875 52.5651 77.8281 52.3828C77.9688 52.2005 78.0391 51.9922 78.0391 51.7578ZM84.9219 45.5469V46.6562H80.3516V45.5469H84.9219ZM81.8984 43.4922H83.3438V51.9062C83.3438 52.1927 83.388 52.4089 83.4766 52.5547C83.5651 52.7005 83.6797 52.7969 83.8203 52.8438C83.9609 52.8906 84.112 52.9141 84.2734 52.9141C84.3932 52.9141 84.5182 52.9036 84.6484 52.8828C84.7839 52.8568 84.8854 52.8359 84.9531 52.8203L84.9609 54C84.8464 54.0365 84.6953 54.0703 84.5078 54.1016C84.3255 54.138 84.1042 54.1562 83.8438 54.1562C83.4896 54.1562 83.1641 54.0859 82.8672 53.9453C82.5703 53.8047 82.3333 53.5703 82.1562 53.2422C81.9844 52.9089 81.8984 52.4609 81.8984 51.8984V43.4922ZM97.6719 50.3828H99.1719C99.0938 51.1016 98.888 51.7448 98.5547 52.3125C98.2214 52.8802 97.75 53.3307 97.1406 53.6641C96.5312 53.9922 95.7708 54.1562 94.8594 54.1562C94.1927 54.1562 93.5859 54.0312 93.0391 53.7812C92.4974 53.5312 92.0312 53.1771 91.6406 52.7188C91.25 52.2552 90.9479 51.7005 90.7344 51.0547C90.526 50.4036 90.4219 49.6797 90.4219 48.8828V47.75C90.4219 46.9531 90.526 46.2318 90.7344 45.5859C90.9479 44.9349 91.2526 44.3776 91.6484 43.9141C92.0495 43.4505 92.5312 43.0938 93.0938 42.8438C93.6562 42.5938 94.2891 42.4688 94.9922 42.4688C95.8516 42.4688 96.5781 42.6302 97.1719 42.9531C97.7656 43.276 98.2266 43.724 98.5547 44.2969C98.888 44.8646 99.0938 45.5234 99.1719 46.2734H97.6719C97.599 45.7422 97.4635 45.2865 97.2656 44.9062C97.0677 44.5208 96.7865 44.224 96.4219 44.0156C96.0573 43.8073 95.5807 43.7031 94.9922 43.7031C94.487 43.7031 94.0417 43.7995 93.6562 43.9922C93.276 44.1849 92.9557 44.4583 92.6953 44.8125C92.4401 45.1667 92.2474 45.5911 92.1172 46.0859C91.987 46.5807 91.9219 47.1302 91.9219 47.7344V48.8828C91.9219 49.4401 91.9792 49.9635 92.0938 50.4531C92.2135 50.9427 92.3932 51.3724 92.6328 51.7422C92.8724 52.112 93.1771 52.4036 93.5469 52.6172C93.9167 52.8255 94.3542 52.9297 94.8594 52.9297C95.5 52.9297 96.0104 52.8281 96.3906 52.625C96.7708 52.4219 97.0573 52.1302 97.25 51.75C97.4479 51.3698 97.5885 50.9141 97.6719 50.3828ZM102.453 42V54H101.008V42H102.453ZM102.109 49.4531L101.508 49.4297C101.513 48.8516 101.599 48.3177 101.766 47.8281C101.932 47.3333 102.167 46.9036 102.469 46.5391C102.771 46.1745 103.13 45.8932 103.547 45.6953C103.969 45.4922 104.435 45.3906 104.945 45.3906C105.362 45.3906 105.737 45.4479 106.07 45.5625C106.404 45.6719 106.688 45.849 106.922 46.0938C107.161 46.3385 107.344 46.6562 107.469 47.0469C107.594 47.4323 107.656 47.9036 107.656 48.4609V54H106.203V48.4453C106.203 48.0026 106.138 47.6484 106.008 47.3828C105.878 47.112 105.688 46.9167 105.438 46.7969C105.188 46.6719 104.88 46.6094 104.516 46.6094C104.156 46.6094 103.828 46.6849 103.531 46.8359C103.24 46.987 102.987 47.1953 102.773 47.4609C102.565 47.7266 102.401 48.0312 102.281 48.375C102.167 48.7135 102.109 49.0729 102.109 49.4531ZM111.391 45.5469V54H109.938V45.5469H111.391ZM109.828 43.3047C109.828 43.0703 109.898 42.8724 110.039 42.7109C110.185 42.5495 110.398 42.4688 110.68 42.4688C110.956 42.4688 111.167 42.5495 111.312 42.7109C111.464 42.8724 111.539 43.0703 111.539 43.3047C111.539 43.5286 111.464 43.7214 111.312 43.8828C111.167 44.0391 110.956 44.1172 110.68 44.1172C110.398 44.1172 110.185 44.0391 110.039 43.8828C109.898 43.7214 109.828 43.5286 109.828 43.3047ZM115.156 47.3516V54H113.711V45.5469H115.078L115.156 47.3516ZM114.812 49.4531L114.211 49.4297C114.216 48.8516 114.302 48.3177 114.469 47.8281C114.635 47.3333 114.87 46.9036 115.172 46.5391C115.474 46.1745 115.833 45.8932 116.25 45.6953C116.672 45.4922 117.138 45.3906 117.648 45.3906C118.065 45.3906 118.44 45.4479 118.773 45.5625C119.107 45.6719 119.391 45.849 119.625 46.0938C119.865 46.3385 120.047 46.6562 120.172 47.0469C120.297 47.4323 120.359 47.9036 120.359 48.4609V54H118.906V48.4453C118.906 48.0026 118.841 47.6484 118.711 47.3828C118.581 47.112 118.391 46.9167 118.141 46.7969C117.891 46.6719 117.583 46.6094 117.219 46.6094C116.859 46.6094 116.531 46.6849 116.234 46.8359C115.943 46.987 115.69 47.1953 115.477 47.4609C115.268 47.7266 115.104 48.0312 114.984 48.375C114.87 48.7135 114.812 49.0729 114.812 49.4531ZM127.539 52.5547V48.2031C127.539 47.8698 127.471 47.5807 127.336 47.3359C127.206 47.0859 127.008 46.8932 126.742 46.7578C126.477 46.6224 126.148 46.5547 125.758 46.5547C125.393 46.5547 125.073 46.6172 124.797 46.7422C124.526 46.8672 124.312 47.0312 124.156 47.2344C124.005 47.4375 123.93 47.6562 123.93 47.8906H122.484C122.484 47.5885 122.562 47.2891 122.719 46.9922C122.875 46.6953 123.099 46.4271 123.391 46.1875C123.688 45.9427 124.042 45.75 124.453 45.6094C124.87 45.4635 125.333 45.3906 125.844 45.3906C126.458 45.3906 127 45.4948 127.469 45.7031C127.943 45.9115 128.312 46.2266 128.578 46.6484C128.849 47.0651 128.984 47.5885 128.984 48.2188V52.1562C128.984 52.4375 129.008 52.737 129.055 53.0547C129.107 53.3724 129.182 53.6458 129.281 53.875V54H127.773C127.701 53.8333 127.643 53.612 127.602 53.3359C127.56 53.0547 127.539 52.7943 127.539 52.5547ZM127.789 48.875L127.805 49.8906H126.344C125.932 49.8906 125.565 49.9245 125.242 49.9922C124.919 50.0547 124.648 50.151 124.43 50.2812C124.211 50.4115 124.044 50.5755 123.93 50.7734C123.815 50.9661 123.758 51.1927 123.758 51.4531C123.758 51.7188 123.818 51.9609 123.938 52.1797C124.057 52.3984 124.237 52.5729 124.477 52.7031C124.721 52.8281 125.021 52.8906 125.375 52.8906C125.818 52.8906 126.208 52.7969 126.547 52.6094C126.885 52.4219 127.154 52.1927 127.352 51.9219C127.555 51.651 127.664 51.388 127.68 51.1328L128.297 51.8281C128.26 52.0469 128.161 52.2891 128 52.5547C127.839 52.8203 127.622 53.0755 127.352 53.3203C127.086 53.5599 126.768 53.7604 126.398 53.9219C126.034 54.0781 125.622 54.1562 125.164 54.1562C124.591 54.1562 124.089 54.0443 123.656 53.8203C123.229 53.5964 122.896 53.2969 122.656 52.9219C122.422 52.5417 122.305 52.1172 122.305 51.6484C122.305 51.1953 122.393 50.7969 122.57 50.4531C122.747 50.1042 123.003 49.8151 123.336 49.5859C123.669 49.3516 124.07 49.1745 124.539 49.0547C125.008 48.9349 125.531 48.875 126.109 48.875H127.789Z" fill="black"/>
</svg>
