<svg width="160" height="117" viewBox="0 0 160 117" fill="none" xmlns="http://www.w3.org/2000/svg">
<mask id="path-1-inside-1_52132_696" fill="white">
<path fill-rule="evenodd" clip-rule="evenodd" d="M59.6201 8.19008L55.2578 0L50.8382 8.19008H5C2.23858 8.19008 0 10.4286 0 13.1901V112C0 114.761 2.23857 117 4.99999 117H154.113C156.874 117 159.113 114.762 159.113 112V13.1901C159.113 10.4287 156.874 8.19008 154.113 8.19008H59.6201Z"/>
</mask>
<path fill-rule="evenodd" clip-rule="evenodd" d="M59.6201 8.19008L55.2578 0L50.8382 8.19008H5C2.23858 8.19008 0 10.4286 0 13.1901V112C0 114.761 2.23857 117 4.99999 117H154.113C156.874 117 159.113 114.762 159.113 112V13.1901C159.113 10.4287 156.874 8.19008 154.113 8.19008H59.6201Z" fill="white"/>
<path d="M55.2578 0L56.1404 -0.470106L55.2636 -2.11637L54.3778 -0.474902L55.2578 0ZM59.6201 8.19008L58.7375 8.66018L59.0198 9.19008H59.6201V8.19008ZM50.8382 8.19008V9.19008H51.4348L51.7182 8.66498L50.8382 8.19008ZM54.3752 0.470106L58.7375 8.66018L60.5027 7.71997L56.1404 -0.470106L54.3752 0.470106ZM51.7182 8.66498L56.1379 0.474902L54.3778 -0.474902L49.9581 7.71518L51.7182 8.66498ZM5 9.19008H50.8382V7.19008H5V9.19008ZM1 13.1901C1 10.9809 2.79086 9.19008 5 9.19008V7.19008C1.68629 7.19008 -1 9.87636 -1 13.1901H1ZM1 112V13.1901H-1V112H1ZM4.99999 116C2.79086 116 1 114.209 1 112H-1C-1 115.314 1.68628 118 4.99999 118V116ZM154.113 116H4.99999V118H154.113V116ZM158.113 112C158.113 114.209 156.322 116 154.113 116V118C157.426 118 160.113 115.314 160.113 112H158.113ZM158.113 13.1901V112H160.113V13.1901H158.113ZM154.113 9.19008C156.322 9.19008 158.113 10.9809 158.113 13.1901H160.113C160.113 9.87637 157.426 7.19008 154.113 7.19008V9.19008ZM59.6201 9.19008H154.113V7.19008H59.6201V9.19008Z" fill="black" mask="url(#path-1-inside-1_52132_696)"/>
<rect x="11.1267" y="71" width="135.746" height="31" rx="5" fill="#F1F3F2"/>
<path d="M31.7734 87.552L31.9922 89.052L32.3125 87.7004L34.5625 79.7629H35.8281L38.0234 87.7004L38.3359 89.0754L38.5781 87.5442L40.3438 79.7629H41.8516L39.0938 91.1379H37.7266L35.3828 82.8489L35.2031 81.9817L35.0234 82.8489L32.5938 91.1379H31.2266L28.4766 79.7629H29.9766L31.7734 87.552ZM44.7422 83.7082C45.3828 82.9218 46.2161 82.5285 47.2422 82.5285C49.0286 82.5285 49.9297 83.5364 49.9453 85.552V91.1379H48.5V85.5442C48.4948 84.9348 48.3542 84.4843 48.0781 84.1926C47.8073 83.9009 47.3828 83.7551 46.8047 83.7551C46.3359 83.7551 45.9245 83.8801 45.5703 84.1301C45.2161 84.3801 44.9401 84.7082 44.7422 85.1145V91.1379H43.2969V79.1379H44.7422V83.7082ZM57.3281 91.1379C57.2448 90.9713 57.1771 90.6744 57.125 90.2473C56.4531 90.9452 55.651 91.2942 54.7188 91.2942C53.8854 91.2942 53.2005 91.0598 52.6641 90.591C52.1328 90.1171 51.8672 89.5181 51.8672 88.7942C51.8672 87.914 52.2005 87.2317 52.8672 86.7473C53.5391 86.2577 54.4818 86.0129 55.6953 86.0129H57.1016V85.3489C57.1016 84.8437 56.9505 84.4426 56.6484 84.1457C56.3464 83.8437 55.901 83.6926 55.3125 83.6926C54.7969 83.6926 54.3646 83.8228 54.0156 84.0832C53.6667 84.3437 53.4922 84.6588 53.4922 85.0285H52.0391C52.0391 84.6067 52.1875 84.2004 52.4844 83.8098C52.7865 83.414 53.1927 83.1015 53.7031 82.8723C54.2188 82.6431 54.7839 82.5285 55.3984 82.5285C56.3724 82.5285 57.1354 82.7733 57.6875 83.2629C58.2396 83.7473 58.526 84.4166 58.5469 85.2707V89.1614C58.5469 89.9374 58.6458 90.5546 58.8438 91.0129V91.1379H57.3281ZM54.9297 90.0364C55.3828 90.0364 55.8125 89.9192 56.2188 89.6848C56.625 89.4504 56.9193 89.1457 57.1016 88.7707V87.0364H55.9688C54.1979 87.0364 53.3125 87.5546 53.3125 88.591C53.3125 89.0442 53.4635 89.3983 53.7656 89.6535C54.0677 89.9088 54.4557 90.0364 54.9297 90.0364ZM62.7734 80.6379V82.6848H64.3516V83.802H62.7734V89.0442C62.7734 89.3827 62.8438 89.6379 62.9844 89.8098C63.125 89.9765 63.3646 90.0598 63.7031 90.0598C63.8698 90.0598 64.099 90.0285 64.3906 89.966V91.1379C64.0104 91.2421 63.6406 91.2942 63.2812 91.2942C62.6354 91.2942 62.1484 91.0989 61.8203 90.7082C61.4922 90.3176 61.3281 89.7629 61.3281 89.0442V83.802H59.7891V82.6848H61.3281V80.6379H62.7734ZM69.4375 90.1145C69.9531 90.1145 70.4036 89.9582 70.7891 89.6457C71.1745 89.3332 71.388 88.9426 71.4297 88.4739H72.7969C72.7708 88.9582 72.6042 89.4192 72.2969 89.8567C71.9896 90.2942 71.5781 90.6431 71.0625 90.9035C70.5521 91.164 70.0104 91.2942 69.4375 91.2942C68.2865 91.2942 67.3698 90.9114 66.6875 90.1457C66.0104 89.3749 65.6719 88.3228 65.6719 86.9895V86.7473C65.6719 85.9244 65.8229 85.1926 66.125 84.552C66.4271 83.9114 66.8594 83.414 67.4219 83.0598C67.9896 82.7056 68.6589 82.5285 69.4297 82.5285C70.3776 82.5285 71.1641 82.8124 71.7891 83.3801C72.4193 83.9478 72.7552 84.6848 72.7969 85.591H71.4297C71.388 85.0442 71.1797 84.5963 70.8047 84.2473C70.4349 83.8931 69.9766 83.716 69.4297 83.716C68.6953 83.716 68.125 83.9817 67.7188 84.5129C67.3177 85.039 67.1172 85.802 67.1172 86.802V87.0754C67.1172 88.0494 67.3177 88.7994 67.7188 89.3254C68.1198 89.8515 68.6927 90.1145 69.4375 90.1145ZM75.8672 83.7082C76.5078 82.9218 77.3411 82.5285 78.3672 82.5285C80.1536 82.5285 81.0547 83.5364 81.0703 85.552V91.1379H79.625V85.5442C79.6198 84.9348 79.4792 84.4843 79.2031 84.1926C78.9323 83.9009 78.5078 83.7551 77.9297 83.7551C77.4609 83.7551 77.0495 83.8801 76.6953 84.1301C76.3411 84.3801 76.0651 84.7082 75.8672 85.1145V91.1379H74.4219V79.1379H75.8672V83.7082ZM86.8203 86.8332C86.8203 86.0051 86.9818 85.2603 87.3047 84.5989C87.6328 83.9374 88.0859 83.427 88.6641 83.0676C89.2474 82.7082 89.9115 82.5285 90.6562 82.5285C91.8073 82.5285 92.737 82.927 93.4453 83.7239C94.1589 84.5207 94.5156 85.5806 94.5156 86.9035V87.0051C94.5156 87.828 94.3568 88.5676 94.0391 89.2239C93.7266 89.8749 93.276 90.3827 92.6875 90.7473C92.1042 91.1119 91.4323 91.2942 90.6719 91.2942C89.526 91.2942 88.5964 90.8957 87.8828 90.0989C87.1745 89.302 86.8203 88.2473 86.8203 86.9348V86.8332ZM88.2734 87.0051C88.2734 87.9426 88.4896 88.6952 88.9219 89.2629C89.3594 89.8306 89.9427 90.1145 90.6719 90.1145C91.4062 90.1145 91.9896 89.828 92.4219 89.2551C92.8542 88.677 93.0703 87.8697 93.0703 86.8332C93.0703 85.9062 92.849 85.1562 92.4062 84.5832C91.9688 84.0051 91.3854 83.716 90.6562 83.716C89.9427 83.716 89.3672 83.9999 88.9297 84.5676C88.4922 85.1353 88.2734 85.9478 88.2734 87.0051ZM97.6953 82.6848L97.7422 83.7473C98.388 82.9348 99.2318 82.5285 100.273 82.5285C102.06 82.5285 102.961 83.5364 102.977 85.552V91.1379H101.531V85.5442C101.526 84.9348 101.385 84.4843 101.109 84.1926C100.839 83.9009 100.414 83.7551 99.8359 83.7551C99.3672 83.7551 98.9557 83.8801 98.6016 84.1301C98.2474 84.3801 97.9714 84.7082 97.7734 85.1145V91.1379H96.3281V82.6848H97.6953ZM106.727 91.1379H105.281V79.1379H106.727V91.1379ZM110.617 91.1379H109.172V82.6848H110.617V91.1379ZM109.055 80.4426C109.055 80.2082 109.125 80.0103 109.266 79.8489C109.411 79.6874 109.625 79.6067 109.906 79.6067C110.188 79.6067 110.401 79.6874 110.547 79.8489C110.693 80.0103 110.766 80.2082 110.766 80.4426C110.766 80.677 110.693 80.8723 110.547 81.0285C110.401 81.1848 110.188 81.2629 109.906 81.2629C109.625 81.2629 109.411 81.1848 109.266 81.0285C109.125 80.8723 109.055 80.677 109.055 80.4426ZM114.305 82.6848L114.352 83.7473C114.997 82.9348 115.841 82.5285 116.883 82.5285C118.669 82.5285 119.57 83.5364 119.586 85.552V91.1379H118.141V85.5442C118.135 84.9348 117.995 84.4843 117.719 84.1926C117.448 83.9009 117.023 83.7551 116.445 83.7551C115.977 83.7551 115.565 83.8801 115.211 84.1301C114.857 84.3801 114.581 84.7082 114.383 85.1145V91.1379H112.938V82.6848H114.305ZM125.273 91.2942C124.128 91.2942 123.195 90.9192 122.477 90.1692C121.758 89.414 121.398 88.4062 121.398 87.1457V86.8801C121.398 86.0416 121.557 85.2942 121.875 84.6379C122.198 83.9765 122.646 83.4608 123.219 83.091C123.797 82.716 124.422 82.5285 125.094 82.5285C126.193 82.5285 127.047 82.8905 127.656 83.6145C128.266 84.3384 128.57 85.3749 128.57 86.7239V87.3254H122.844C122.865 88.1588 123.107 88.8332 123.57 89.3489C124.039 89.8593 124.633 90.1145 125.352 90.1145C125.862 90.1145 126.294 90.0103 126.648 89.802C127.003 89.5937 127.312 89.3176 127.578 88.9739L128.461 89.6614C127.753 90.7499 126.69 91.2942 125.273 91.2942ZM125.094 83.716C124.51 83.716 124.021 83.9296 123.625 84.3567C123.229 84.7785 122.984 85.3723 122.891 86.1379H127.125V86.0285C127.083 85.2942 126.885 84.7265 126.531 84.3254C126.177 83.9192 125.698 83.716 125.094 83.716Z" fill="#4B9200"/>
<path d="M17.3828 29.125C17.3828 28.8594 17.3411 28.625 17.2578 28.4219C17.1797 28.2135 17.0391 28.026 16.8359 27.8594C16.638 27.6927 16.362 27.5339 16.0078 27.3828C15.6589 27.2318 15.2161 27.0781 14.6797 26.9219C14.1172 26.7552 13.6094 26.5703 13.1562 26.3672C12.7031 26.1589 12.3151 25.9219 11.9922 25.6562C11.6693 25.3906 11.4219 25.0859 11.25 24.7422C11.0781 24.3984 10.9922 24.0052 10.9922 23.5625C10.9922 23.1198 11.0833 22.7109 11.2656 22.3359C11.4479 21.9609 11.7083 21.6354 12.0469 21.3594C12.3906 21.0781 12.7995 20.8594 13.2734 20.7031C13.7474 20.5469 14.276 20.4688 14.8594 20.4688C15.7135 20.4688 16.4375 20.6328 17.0312 20.9609C17.6302 21.2839 18.0859 21.7083 18.3984 22.2344C18.7109 22.7552 18.8672 23.3125 18.8672 23.9062H17.3672C17.3672 23.4792 17.276 23.1016 17.0938 22.7734C16.9115 22.4401 16.6354 22.1797 16.2656 21.9922C15.8958 21.7995 15.4271 21.7031 14.8594 21.7031C14.3229 21.7031 13.8802 21.7839 13.5312 21.9453C13.1823 22.1068 12.9219 22.3255 12.75 22.6016C12.5833 22.8776 12.5 23.1927 12.5 23.5469C12.5 23.7865 12.5495 24.0052 12.6484 24.2031C12.7526 24.3958 12.9115 24.5755 13.125 24.7422C13.3438 24.9089 13.6198 25.0625 13.9531 25.2031C14.2917 25.3438 14.6953 25.4792 15.1641 25.6094C15.8099 25.7917 16.3672 25.9948 16.8359 26.2188C17.3047 26.4427 17.6901 26.6953 17.9922 26.9766C18.2995 27.2526 18.526 27.5677 18.6719 27.9219C18.8229 28.2708 18.8984 28.6667 18.8984 29.1094C18.8984 29.5729 18.8047 29.9922 18.6172 30.3672C18.4297 30.7422 18.1615 31.0625 17.8125 31.3281C17.4635 31.5938 17.0443 31.7995 16.5547 31.9453C16.0703 32.0859 15.5286 32.1562 14.9297 32.1562C14.4036 32.1562 13.8854 32.0833 13.375 31.9375C12.8698 31.7917 12.4089 31.5729 11.9922 31.2812C11.5807 30.9896 11.25 30.6302 11 30.2031C10.7552 29.7708 10.6328 29.2708 10.6328 28.7031H12.1328C12.1328 29.0938 12.2083 29.4297 12.3594 29.7109C12.5104 29.987 12.7161 30.2161 12.9766 30.3984C13.2422 30.5807 13.5417 30.7161 13.875 30.8047C14.2135 30.888 14.5651 30.9297 14.9297 30.9297C15.4557 30.9297 15.901 30.8568 16.2656 30.7109C16.6302 30.5651 16.9062 30.3568 17.0938 30.0859C17.2865 29.8151 17.3828 29.4948 17.3828 29.125ZM22.1719 20V32H20.7188V20H22.1719ZM24.1094 27.8672V27.6875C24.1094 27.0781 24.1979 26.513 24.375 25.9922C24.5521 25.4661 24.8073 25.0104 25.1406 24.625C25.474 24.2344 25.8776 23.9323 26.3516 23.7188C26.8255 23.5 27.3568 23.3906 27.9453 23.3906C28.5391 23.3906 29.0729 23.5 29.5469 23.7188C30.026 23.9323 30.4323 24.2344 30.7656 24.625C31.1042 25.0104 31.362 25.4661 31.5391 25.9922C31.7161 26.513 31.8047 27.0781 31.8047 27.6875V27.8672C31.8047 28.4766 31.7161 29.0417 31.5391 29.5625C31.362 30.0833 31.1042 30.5391 30.7656 30.9297C30.4323 31.3151 30.0286 31.6172 29.5547 31.8359C29.0859 32.0495 28.5547 32.1562 27.9609 32.1562C27.3672 32.1562 26.8333 32.0495 26.3594 31.8359C25.8854 31.6172 25.4792 31.3151 25.1406 30.9297C24.8073 30.5391 24.5521 30.0833 24.375 29.5625C24.1979 29.0417 24.1094 28.4766 24.1094 27.8672ZM25.5547 27.6875V27.8672C25.5547 28.2891 25.6042 28.6875 25.7031 29.0625C25.8021 29.4323 25.9505 29.7604 26.1484 30.0469C26.3516 30.3333 26.6042 30.5599 26.9062 30.7266C27.2083 30.888 27.5599 30.9688 27.9609 30.9688C28.3568 30.9688 28.7031 30.888 29 30.7266C29.3021 30.5599 29.5521 30.3333 29.75 30.0469C29.9479 29.7604 30.0964 29.4323 30.1953 29.0625C30.2995 28.6875 30.3516 28.2891 30.3516 27.8672V27.6875C30.3516 27.2708 30.2995 26.8776 30.1953 26.5078C30.0964 26.1328 29.9453 25.8021 29.7422 25.5156C29.5443 25.224 29.2943 24.9948 28.9922 24.8281C28.6953 24.6615 28.3464 24.5781 27.9453 24.5781C27.5495 24.5781 27.2005 24.6615 26.8984 24.8281C26.6016 24.9948 26.3516 25.224 26.1484 25.5156C25.9505 25.8021 25.8021 26.1328 25.7031 26.5078C25.6042 26.8776 25.5547 27.2708 25.5547 27.6875ZM37.1562 23.5469V24.6562H32.5859V23.5469H37.1562ZM34.1328 21.4922H35.5781V29.9062C35.5781 30.1927 35.6224 30.4089 35.7109 30.5547C35.7995 30.7005 35.9141 30.7969 36.0547 30.8438C36.1953 30.8906 36.3464 30.9141 36.5078 30.9141C36.6276 30.9141 36.7526 30.9036 36.8828 30.8828C37.0182 30.8568 37.1198 30.8359 37.1875 30.8203L37.1953 32C37.0807 32.0365 36.9297 32.0703 36.7422 32.1016C36.5599 32.138 36.3385 32.1562 36.0781 32.1562C35.724 32.1562 35.3984 32.0859 35.1016 31.9453C34.8047 31.8047 34.5677 31.5703 34.3906 31.2422C34.2188 30.9089 34.1328 30.4609 34.1328 29.8984V21.4922ZM40.2969 20V32H38.8516V20H40.2969ZM39.9531 27.4531L39.3516 27.4297C39.3568 26.8516 39.4427 26.3177 39.6094 25.8281C39.776 25.3333 40.0104 24.9036 40.3125 24.5391C40.6146 24.1745 40.974 23.8932 41.3906 23.6953C41.8125 23.4922 42.2786 23.3906 42.7891 23.3906C43.2057 23.3906 43.5807 23.4479 43.9141 23.5625C44.2474 23.6719 44.5312 23.849 44.7656 24.0938C45.0052 24.3385 45.1875 24.6562 45.3125 25.0469C45.4375 25.4323 45.5 25.9036 45.5 26.4609V32H44.0469V26.4453C44.0469 26.0026 43.9818 25.6484 43.8516 25.3828C43.7214 25.112 43.5312 24.9167 43.2812 24.7969C43.0312 24.6719 42.724 24.6094 42.3594 24.6094C42 24.6094 41.6719 24.6849 41.375 24.8359C41.0833 24.987 40.8307 25.1953 40.6172 25.4609C40.4089 25.7266 40.2448 26.0312 40.125 26.375C40.0104 26.7135 39.9531 27.0729 39.9531 27.4531Z" fill="black"/>
<path d="M15.375 48.6797H12.4922L12.4766 47.4688H15.0938C15.526 47.4688 15.9036 47.3958 16.2266 47.25C16.5495 47.1042 16.7995 46.8958 16.9766 46.625C17.1589 46.349 17.25 46.0208 17.25 45.6406C17.25 45.224 17.1693 44.8854 17.0078 44.625C16.8516 44.3594 16.6094 44.1667 16.2812 44.0469C15.9583 43.9219 15.5469 43.8594 15.0469 43.8594H12.8281V54H11.3203V42.625H15.0469C15.6302 42.625 16.151 42.6849 16.6094 42.8047C17.0677 42.9193 17.4557 43.1016 17.7734 43.3516C18.0964 43.5964 18.3411 43.9089 18.5078 44.2891C18.6745 44.6693 18.7578 45.125 18.7578 45.6562C18.7578 46.125 18.638 46.5495 18.3984 46.9297C18.1589 47.3047 17.8255 47.612 17.3984 47.8516C16.9766 48.0911 16.4818 48.2448 15.9141 48.3125L15.375 48.6797ZM15.3047 54H11.8984L12.75 52.7734H15.3047C15.7839 52.7734 16.1901 52.6901 16.5234 52.5234C16.862 52.3568 17.1198 52.1224 17.2969 51.8203C17.474 51.513 17.5625 51.151 17.5625 50.7344C17.5625 50.3125 17.487 49.9479 17.3359 49.6406C17.1849 49.3333 16.9479 49.0964 16.625 48.9297C16.3021 48.763 15.8854 48.6797 15.375 48.6797H13.2266L13.2422 47.4688H16.1797L16.5 47.9062C17.0469 47.9531 17.5104 48.1094 17.8906 48.375C18.2708 48.6354 18.5599 48.9688 18.7578 49.375C18.9609 49.7812 19.0625 50.2292 19.0625 50.7188C19.0625 51.4271 18.9062 52.026 18.5938 52.5156C18.2865 53 17.8516 53.3698 17.2891 53.625C16.7266 53.875 16.0651 54 15.3047 54ZM22.5156 46.875V54H21.0703V45.5469H22.4766L22.5156 46.875ZM25.1562 45.5L25.1484 46.8438C25.0286 46.8177 24.9141 46.8021 24.8047 46.7969C24.7005 46.7865 24.5807 46.7812 24.4453 46.7812C24.112 46.7812 23.8177 46.8333 23.5625 46.9375C23.3073 47.0417 23.0911 47.1875 22.9141 47.375C22.737 47.5625 22.5964 47.7865 22.4922 48.0469C22.3932 48.3021 22.3281 48.5833 22.2969 48.8906L21.8906 49.125C21.8906 48.6146 21.9401 48.1354 22.0391 47.6875C22.1432 47.2396 22.3021 46.8438 22.5156 46.5C22.7292 46.151 23 45.8802 23.3281 45.6875C23.6615 45.4896 24.0573 45.3906 24.5156 45.3906C24.6198 45.3906 24.7396 45.4036 24.875 45.4297C25.0104 45.4505 25.1042 45.474 25.1562 45.5ZM31.1641 52.5547V48.2031C31.1641 47.8698 31.0964 47.5807 30.9609 47.3359C30.8307 47.0859 30.6328 46.8932 30.3672 46.7578C30.1016 46.6224 29.7734 46.5547 29.3828 46.5547C29.0182 46.5547 28.6979 46.6172 28.4219 46.7422C28.151 46.8672 27.9375 47.0312 27.7812 47.2344C27.6302 47.4375 27.5547 47.6562 27.5547 47.8906H26.1094C26.1094 47.5885 26.1875 47.2891 26.3438 46.9922C26.5 46.6953 26.724 46.4271 27.0156 46.1875C27.3125 45.9427 27.6667 45.75 28.0781 45.6094C28.4948 45.4635 28.9583 45.3906 29.4688 45.3906C30.0833 45.3906 30.625 45.4948 31.0938 45.7031C31.5677 45.9115 31.9375 46.2266 32.2031 46.6484C32.474 47.0651 32.6094 47.5885 32.6094 48.2188V52.1562C32.6094 52.4375 32.6328 52.737 32.6797 53.0547C32.7318 53.3724 32.8073 53.6458 32.9062 53.875V54H31.3984C31.3255 53.8333 31.2682 53.612 31.2266 53.3359C31.1849 53.0547 31.1641 52.7943 31.1641 52.5547ZM31.4141 48.875L31.4297 49.8906H29.9688C29.5573 49.8906 29.1901 49.9245 28.8672 49.9922C28.5443 50.0547 28.2734 50.151 28.0547 50.2812C27.8359 50.4115 27.6693 50.5755 27.5547 50.7734C27.4401 50.9661 27.3828 51.1927 27.3828 51.4531C27.3828 51.7188 27.4427 51.9609 27.5625 52.1797C27.6823 52.3984 27.862 52.5729 28.1016 52.7031C28.3464 52.8281 28.6458 52.8906 29 52.8906C29.4427 52.8906 29.8333 52.7969 30.1719 52.6094C30.5104 52.4219 30.7786 52.1927 30.9766 51.9219C31.1797 51.651 31.2891 51.388 31.3047 51.1328L31.9219 51.8281C31.8854 52.0469 31.7865 52.2891 31.625 52.5547C31.4635 52.8203 31.2474 53.0755 30.9766 53.3203C30.7109 53.5599 30.3932 53.7604 30.0234 53.9219C29.6589 54.0781 29.2474 54.1562 28.7891 54.1562C28.2161 54.1562 27.7135 54.0443 27.2812 53.8203C26.8542 53.5964 26.5208 53.2969 26.2812 52.9219C26.0469 52.5417 25.9297 52.1172 25.9297 51.6484C25.9297 51.1953 26.0182 50.7969 26.1953 50.4531C26.3724 50.1042 26.6276 49.8151 26.9609 49.5859C27.2943 49.3516 27.6953 49.1745 28.1641 49.0547C28.6328 48.9349 29.1562 48.875 29.7344 48.875H31.4141ZM41.1797 52.8125V54H35.0312V52.8125H41.1797ZM40.9531 46.5703L35.3594 54H34.4766V52.9375L40.0312 45.5469H40.9531V46.5703ZM40.3125 45.5469V46.7422H34.5391V45.5469H40.3125ZM44.3906 45.5469V54H42.9375V45.5469H44.3906ZM42.8281 43.3047C42.8281 43.0703 42.8984 42.8724 43.0391 42.7109C43.1849 42.5495 43.3984 42.4688 43.6797 42.4688C43.9557 42.4688 44.1667 42.5495 44.3125 42.7109C44.4635 42.8724 44.5391 43.0703 44.5391 43.3047C44.5391 43.5286 44.4635 43.7214 44.3125 43.8828C44.1667 44.0391 43.9557 44.1172 43.6797 44.1172C43.3984 44.1172 43.1849 44.0391 43.0391 43.8828C42.8984 43.7214 42.8281 43.5286 42.8281 43.3047ZM48.2812 42V54H46.8281V42H48.2812Z" fill="black"/>
</svg>
